<?xml version="1.0" standalone="no"?>
 <!DOCTYPE svg PUBLIC "-//W3C//DTD SVG 1.1//EN" 
 "http://www.w3.org/Graphics/SVG/1.1/DTD/svg11.dtd"> 
<svg
  xmlns:svg="http://www.w3.org/2000/svg"
  xmlns="http://www.w3.org/2000/svg"
  xmlns:xlink="http://www.w3.org/1999/xlink"
  version="1.1"
  width="297.0022mm" height="210.0072mm" viewBox="0.0000 0.0000 297.0022 210.0072">
<title>SVG Image created as SUM25-TopPasteMaskLayer.svg date 2025/06/25 15:42:16 </title>
  <desc>Image generated by PCBNEW </desc>
<g style="fill:#000000; fill-opacity:1.0000;stroke:#000000; stroke-opacity:1.0000;
stroke-linecap:round; stroke-linejoin:round;"
 transform="translate(0 0) scale(1 1)">
<path style="fill:#000000; fill-opacity:1.0000; stroke:none;fill-rule:evenodd;"
d="M 75.8905,80.3668
75.8869,80.3850
75.8766,80.4005
75.8611,80.4108
75.8429,80.4144
75.5571,80.4144
75.5389,80.4108
75.5234,80.4005
75.5131,80.3850
75.5095,80.3668
75.5095,78.6332
75.5131,78.6150
75.5234,78.5995
75.5389,78.5892
75.5571,78.5856
75.8429,78.5856
75.8611,78.5892
75.8766,78.5995
75.8869,78.6150
75.8905,78.6332
Z" /> 
<path style="fill:#000000; fill-opacity:1.0000; stroke:none;fill-rule:evenodd;"
d="M 76.6905,80.3668
76.6869,80.3850
76.6765,80.4005
76.6611,80.4108
76.6429,80.4144
76.3571,80.4144
76.3389,80.4108
76.3234,80.4005
76.3131,80.3850
76.3095,80.3668
76.3095,78.6332
76.3131,78.6150
76.3234,78.5995
76.3389,78.5892
76.3571,78.5856
76.6429,78.5856
76.6611,78.5892
76.6765,78.5995
76.6869,78.6150
76.6905,78.6332
Z" /> 
<path style="fill:#000000; fill-opacity:1.0000; stroke:none;fill-rule:evenodd;"
d="M 77.4905,80.3668
77.4869,80.3850
77.4766,80.4005
77.4611,80.4108
77.4429,80.4144
77.1571,80.4144
77.1389,80.4108
77.1234,80.4005
77.1131,80.3850
77.1095,80.3668
77.1095,78.6332
77.1131,78.6150
77.1234,78.5995
77.1389,78.5892
77.1571,78.5856
77.4429,78.5856
77.4611,78.5892
77.4766,78.5995
77.4869,78.6150
77.4905,78.6332
Z" /> 
<path style="fill:#000000; fill-opacity:1.0000; stroke:none;fill-rule:evenodd;"
d="M 78.2905,80.3668
78.2869,80.3850
78.2766,80.4005
78.2611,80.4108
78.2429,80.4144
77.9571,80.4144
77.9389,80.4108
77.9234,80.4005
77.9131,80.3850
77.9095,80.3668
77.9095,78.6332
77.9131,78.6150
77.9234,78.5995
77.9389,78.5892
77.9571,78.5856
78.2429,78.5856
78.2611,78.5892
78.2766,78.5995
78.2869,78.6150
78.2905,78.6332
Z" /> 
<path style="fill:#000000; fill-opacity:1.0000; stroke:none;fill-rule:evenodd;"
d="M 79.0905,80.3668
79.0869,80.3850
79.0766,80.4005
79.0611,80.4108
79.0429,80.4144
78.7571,80.4144
78.7389,80.4108
78.7234,80.4005
78.7131,80.3850
78.7095,80.3668
78.7095,78.6332
78.7131,78.6150
78.7234,78.5995
78.7389,78.5892
78.7571,78.5856
79.0429,78.5856
79.0611,78.5892
79.0766,78.5995
79.0869,78.6150
79.0905,78.6332
Z" /> 
<path style="fill:#000000; fill-opacity:1.0000; stroke:none;fill-rule:evenodd;"
d="M 79.8905,80.3668
79.8869,80.3850
79.8766,80.4005
79.8611,80.4108
79.8429,80.4144
79.5571,80.4144
79.5389,80.4108
79.5234,80.4005
79.5131,80.3850
79.5095,80.3668
79.5095,78.6332
79.5131,78.6150
79.5234,78.5995
79.5389,78.5892
79.5571,78.5856
79.8429,78.5856
79.8611,78.5892
79.8766,78.5995
79.8869,78.6150
79.8905,78.6332
Z" /> 
<path style="fill:#000000; fill-opacity:1.0000; stroke:none;fill-rule:evenodd;"
d="M 80.6905,80.3668
80.6869,80.3850
80.6766,80.4005
80.6611,80.4108
80.6429,80.4144
80.3571,80.4144
80.3389,80.4108
80.3234,80.4005
80.3131,80.3850
80.3095,80.3668
80.3095,78.6332
80.3131,78.6150
80.3234,78.5995
80.3389,78.5892
80.3571,78.5856
80.6429,78.5856
80.6611,78.5892
80.6766,78.5995
80.6869,78.6150
80.6905,78.6332
Z" /> 
<path style="fill:#000000; fill-opacity:1.0000; stroke:none;fill-rule:evenodd;"
d="M 81.4905,80.3668
81.4869,80.3850
81.4766,80.4005
81.4611,80.4108
81.4429,80.4144
81.1571,80.4144
81.1389,80.4108
81.1234,80.4005
81.1131,80.3850
81.1095,80.3668
81.1095,78.6332
81.1131,78.6150
81.1234,78.5995
81.1389,78.5892
81.1571,78.5856
81.4429,78.5856
81.4611,78.5892
81.4766,78.5995
81.4869,78.6150
81.4905,78.6332
Z" /> 
<path style="fill:#000000; fill-opacity:1.0000; stroke:none;fill-rule:evenodd;"
d="M 82.2905,80.3668
82.2869,80.3850
82.2766,80.4005
82.2611,80.4108
82.2429,80.4144
81.9571,80.4144
81.9389,80.4108
81.9234,80.4005
81.9131,80.3850
81.9095,80.3668
81.9095,78.6332
81.9131,78.6150
81.9234,78.5995
81.9389,78.5892
81.9571,78.5856
82.2429,78.5856
82.2611,78.5892
82.2766,78.5995
82.2869,78.6150
82.2905,78.6332
Z" /> 
<path style="fill:#000000; fill-opacity:1.0000; stroke:none;fill-rule:evenodd;"
d="M 83.0905,80.3668
83.0869,80.3850
83.0766,80.4005
83.0611,80.4108
83.0429,80.4144
82.7571,80.4144
82.7389,80.4108
82.7234,80.4005
82.7131,80.3850
82.7095,80.3668
82.7095,78.6332
82.7131,78.6150
82.7234,78.5995
82.7389,78.5892
82.7571,78.5856
83.0429,78.5856
83.0611,78.5892
83.0766,78.5995
83.0869,78.6150
83.0905,78.6332
Z" /> 
<path style="fill:#000000; fill-opacity:1.0000; stroke:none;fill-rule:evenodd;"
d="M 83.8905,80.3668
83.8869,80.3850
83.8766,80.4005
83.8611,80.4108
83.8429,80.4144
83.5571,80.4144
83.5389,80.4108
83.5234,80.4005
83.5131,80.3850
83.5095,80.3668
83.5095,78.6332
83.5131,78.6150
83.5234,78.5995
83.5389,78.5892
83.5571,78.5856
83.8429,78.5856
83.8611,78.5892
83.8766,78.5995
83.8869,78.6150
83.8905,78.6332
Z" /> 
<path style="fill:#000000; fill-opacity:1.0000; stroke:none;fill-rule:evenodd;"
d="M 84.6905,80.3668
84.6869,80.3850
84.6766,80.4005
84.6611,80.4108
84.6429,80.4144
84.3571,80.4144
84.3389,80.4108
84.3234,80.4005
84.3131,80.3850
84.3095,80.3668
84.3095,78.6332
84.3131,78.6150
84.3234,78.5995
84.3389,78.5892
84.3571,78.5856
84.6429,78.5856
84.6611,78.5892
84.6766,78.5995
84.6869,78.6150
84.6905,78.6332
Z" /> 
<path style="fill:#000000; fill-opacity:1.0000; stroke:none;fill-rule:evenodd;"
d="M 85.4905,80.3668
85.4869,80.3850
85.4766,80.4005
85.4611,80.4108
85.4429,80.4144
85.1571,80.4144
85.1389,80.4108
85.1234,80.4005
85.1131,80.3850
85.1095,80.3668
85.1095,78.6332
85.1131,78.6150
85.1234,78.5995
85.1389,78.5892
85.1571,78.5856
85.4429,78.5856
85.4611,78.5892
85.4766,78.5995
85.4869,78.6150
85.4905,78.6332
Z" /> 
<path style="fill:#000000; fill-opacity:1.0000; stroke:none;fill-rule:evenodd;"
d="M 86.2905,80.3668
86.2869,80.3850
86.2766,80.4005
86.2611,80.4108
86.2429,80.4144
85.9571,80.4144
85.9389,80.4108
85.9234,80.4005
85.9131,80.3850
85.9095,80.3668
85.9095,78.6332
85.9131,78.6150
85.9234,78.5995
85.9389,78.5892
85.9571,78.5856
86.2429,78.5856
86.2611,78.5892
86.2766,78.5995
86.2869,78.6150
86.2905,78.6332
Z" /> 
<path style="fill:#000000; fill-opacity:1.0000; stroke:none;fill-rule:evenodd;"
d="M 87.0905,80.3668
87.0869,80.3850
87.0766,80.4005
87.0611,80.4108
87.0429,80.4144
86.7571,80.4144
86.7389,80.4108
86.7234,80.4005
86.7131,80.3850
86.7095,80.3668
86.7095,78.6332
86.7131,78.6150
86.7234,78.5995
86.7389,78.5892
86.7571,78.5856
87.0429,78.5856
87.0611,78.5892
87.0766,78.5995
87.0869,78.6150
87.0905,78.6332
Z" /> 
<path style="fill:#000000; fill-opacity:1.0000; stroke:none;fill-rule:evenodd;"
d="M 87.8905,80.3668
87.8869,80.3850
87.8766,80.4005
87.8611,80.4108
87.8429,80.4144
87.5571,80.4144
87.5389,80.4108
87.5234,80.4005
87.5131,80.3850
87.5095,80.3668
87.5095,78.6332
87.5131,78.6150
87.5234,78.5995
87.5389,78.5892
87.5571,78.5856
87.8429,78.5856
87.8611,78.5892
87.8766,78.5995
87.8869,78.6150
87.8905,78.6332
Z" /> 
<path style="fill:#000000; fill-opacity:1.0000; stroke:none;fill-rule:evenodd;"
d="M 88.6905,80.3668
88.6869,80.3850
88.6766,80.4005
88.6611,80.4108
88.6429,80.4144
88.3571,80.4144
88.3389,80.4108
88.3234,80.4005
88.3131,80.3850
88.3095,80.3668
88.3095,78.6332
88.3131,78.6150
88.3234,78.5995
88.3389,78.5892
88.3571,78.5856
88.6429,78.5856
88.6611,78.5892
88.6766,78.5995
88.6869,78.6150
88.6905,78.6332
Z" /> 
<path style="fill:#000000; fill-opacity:1.0000; stroke:none;fill-rule:evenodd;"
d="M 89.4905,80.3668
89.4869,80.3850
89.4766,80.4005
89.4611,80.4108
89.4429,80.4144
89.1571,80.4144
89.1389,80.4108
89.1234,80.4005
89.1131,80.3850
89.1095,80.3668
89.1095,78.6332
89.1131,78.6150
89.1234,78.5995
89.1389,78.5892
89.1571,78.5856
89.4429,78.5856
89.4611,78.5892
89.4766,78.5995
89.4869,78.6150
89.4905,78.6332
Z" /> 
<path style="fill:#000000; fill-opacity:1.0000; stroke:none;fill-rule:evenodd;"
d="M 75.8905,86.2668
75.8869,86.2850
75.8766,86.3005
75.8611,86.3108
75.8429,86.3144
75.5571,86.3144
75.5389,86.3108
75.5234,86.3005
75.5131,86.2850
75.5095,86.2668
75.5095,84.5332
75.5131,84.5150
75.5234,84.4995
75.5389,84.4892
75.5571,84.4856
75.8429,84.4856
75.8611,84.4892
75.8766,84.4995
75.8869,84.5150
75.8905,84.5332
Z" /> 
<path style="fill:#000000; fill-opacity:1.0000; stroke:none;fill-rule:evenodd;"
d="M 76.6905,86.2668
76.6869,86.2850
76.6765,86.3005
76.6611,86.3108
76.6429,86.3144
76.3571,86.3144
76.3389,86.3108
76.3234,86.3005
76.3131,86.2850
76.3095,86.2668
76.3095,84.5332
76.3131,84.5150
76.3234,84.4995
76.3389,84.4892
76.3571,84.4856
76.6429,84.4856
76.6611,84.4892
76.6765,84.4995
76.6869,84.5150
76.6905,84.5332
Z" /> 
<path style="fill:#000000; fill-opacity:1.0000; stroke:none;fill-rule:evenodd;"
d="M 77.4905,86.2668
77.4869,86.2850
77.4766,86.3005
77.4611,86.3108
77.4429,86.3144
77.1571,86.3144
77.1389,86.3108
77.1234,86.3005
77.1131,86.2850
77.1095,86.2668
77.1095,84.5332
77.1131,84.5150
77.1234,84.4995
77.1389,84.4892
77.1571,84.4856
77.4429,84.4856
77.4611,84.4892
77.4766,84.4995
77.4869,84.5150
77.4905,84.5332
Z" /> 
<path style="fill:#000000; fill-opacity:1.0000; stroke:none;fill-rule:evenodd;"
d="M 78.2905,86.2668
78.2869,86.2850
78.2766,86.3005
78.2611,86.3108
78.2429,86.3144
77.9571,86.3144
77.9389,86.3108
77.9234,86.3005
77.9131,86.2850
77.9095,86.2668
77.9095,84.5332
77.9131,84.5150
77.9234,84.4995
77.9389,84.4892
77.9571,84.4856
78.2429,84.4856
78.2611,84.4892
78.2766,84.4995
78.2869,84.5150
78.2905,84.5332
Z" /> 
<path style="fill:#000000; fill-opacity:1.0000; stroke:none;fill-rule:evenodd;"
d="M 79.0905,86.2668
79.0869,86.2850
79.0766,86.3005
79.0611,86.3108
79.0429,86.3144
78.7571,86.3144
78.7389,86.3108
78.7234,86.3005
78.7131,86.2850
78.7095,86.2668
78.7095,84.5332
78.7131,84.5150
78.7234,84.4995
78.7389,84.4892
78.7571,84.4856
79.0429,84.4856
79.0611,84.4892
79.0766,84.4995
79.0869,84.5150
79.0905,84.5332
Z" /> 
<path style="fill:#000000; fill-opacity:1.0000; stroke:none;fill-rule:evenodd;"
d="M 79.8905,86.2668
79.8869,86.2850
79.8766,86.3005
79.8611,86.3108
79.8429,86.3144
79.5571,86.3144
79.5389,86.3108
79.5234,86.3005
79.5131,86.2850
79.5095,86.2668
79.5095,84.5332
79.5131,84.5150
79.5234,84.4995
79.5389,84.4892
79.5571,84.4856
79.8429,84.4856
79.8611,84.4892
79.8766,84.4995
79.8869,84.5150
79.8905,84.5332
Z" /> 
<path style="fill:#000000; fill-opacity:1.0000; stroke:none;fill-rule:evenodd;"
d="M 80.6905,86.2668
80.6869,86.2850
80.6766,86.3005
80.6611,86.3108
80.6429,86.3144
80.3571,86.3144
80.3389,86.3108
80.3234,86.3005
80.3131,86.2850
80.3095,86.2668
80.3095,84.5332
80.3131,84.5150
80.3234,84.4995
80.3389,84.4892
80.3571,84.4856
80.6429,84.4856
80.6611,84.4892
80.6766,84.4995
80.6869,84.5150
80.6905,84.5332
Z" /> 
<path style="fill:#000000; fill-opacity:1.0000; stroke:none;fill-rule:evenodd;"
d="M 81.4905,86.2668
81.4869,86.2850
81.4766,86.3005
81.4611,86.3108
81.4429,86.3144
81.1571,86.3144
81.1389,86.3108
81.1234,86.3005
81.1131,86.2850
81.1095,86.2668
81.1095,84.5332
81.1131,84.5150
81.1234,84.4995
81.1389,84.4892
81.1571,84.4856
81.4429,84.4856
81.4611,84.4892
81.4766,84.4995
81.4869,84.5150
81.4905,84.5332
Z" /> 
<path style="fill:#000000; fill-opacity:1.0000; stroke:none;fill-rule:evenodd;"
d="M 82.2905,86.2668
82.2869,86.2850
82.2766,86.3005
82.2611,86.3108
82.2429,86.3144
81.9571,86.3144
81.9389,86.3108
81.9234,86.3005
81.9131,86.2850
81.9095,86.2668
81.9095,84.5332
81.9131,84.5150
81.9234,84.4995
81.9389,84.4892
81.9571,84.4856
82.2429,84.4856
82.2611,84.4892
82.2766,84.4995
82.2869,84.5150
82.2905,84.5332
Z" /> 
<path style="fill:#000000; fill-opacity:1.0000; stroke:none;fill-rule:evenodd;"
d="M 83.0905,86.2668
83.0869,86.2850
83.0766,86.3005
83.0611,86.3108
83.0429,86.3144
82.7571,86.3144
82.7389,86.3108
82.7234,86.3005
82.7131,86.2850
82.7095,86.2668
82.7095,84.5332
82.7131,84.5150
82.7234,84.4995
82.7389,84.4892
82.7571,84.4856
83.0429,84.4856
83.0611,84.4892
83.0766,84.4995
83.0869,84.5150
83.0905,84.5332
Z" /> 
<path style="fill:#000000; fill-opacity:1.0000; stroke:none;fill-rule:evenodd;"
d="M 83.8905,86.2668
83.8869,86.2850
83.8766,86.3005
83.8611,86.3108
83.8429,86.3144
83.5571,86.3144
83.5389,86.3108
83.5234,86.3005
83.5131,86.2850
83.5095,86.2668
83.5095,84.5332
83.5131,84.5150
83.5234,84.4995
83.5389,84.4892
83.5571,84.4856
83.8429,84.4856
83.8611,84.4892
83.8766,84.4995
83.8869,84.5150
83.8905,84.5332
Z" /> 
<path style="fill:#000000; fill-opacity:1.0000; stroke:none;fill-rule:evenodd;"
d="M 84.6905,86.2668
84.6869,86.2850
84.6766,86.3005
84.6611,86.3108
84.6429,86.3144
84.3571,86.3144
84.3389,86.3108
84.3234,86.3005
84.3131,86.2850
84.3095,86.2668
84.3095,84.5332
84.3131,84.5150
84.3234,84.4995
84.3389,84.4892
84.3571,84.4856
84.6429,84.4856
84.6611,84.4892
84.6766,84.4995
84.6869,84.5150
84.6905,84.5332
Z" /> 
<path style="fill:#000000; fill-opacity:1.0000; stroke:none;fill-rule:evenodd;"
d="M 85.4905,86.2668
85.4869,86.2850
85.4766,86.3005
85.4611,86.3108
85.4429,86.3144
85.1571,86.3144
85.1389,86.3108
85.1234,86.3005
85.1131,86.2850
85.1095,86.2668
85.1095,84.5332
85.1131,84.5150
85.1234,84.4995
85.1389,84.4892
85.1571,84.4856
85.4429,84.4856
85.4611,84.4892
85.4766,84.4995
85.4869,84.5150
85.4905,84.5332
Z" /> 
<path style="fill:#000000; fill-opacity:1.0000; stroke:none;fill-rule:evenodd;"
d="M 86.2905,86.2668
86.2869,86.2850
86.2766,86.3005
86.2611,86.3108
86.2429,86.3144
85.9571,86.3144
85.9389,86.3108
85.9234,86.3005
85.9131,86.2850
85.9095,86.2668
85.9095,84.5332
85.9131,84.5150
85.9234,84.4995
85.9389,84.4892
85.9571,84.4856
86.2429,84.4856
86.2611,84.4892
86.2766,84.4995
86.2869,84.5150
86.2905,84.5332
Z" /> 
<path style="fill:#000000; fill-opacity:1.0000; stroke:none;fill-rule:evenodd;"
d="M 87.0905,86.2668
87.0869,86.2850
87.0766,86.3005
87.0611,86.3108
87.0429,86.3144
86.7571,86.3144
86.7389,86.3108
86.7234,86.3005
86.7131,86.2850
86.7095,86.2668
86.7095,84.5332
86.7131,84.5150
86.7234,84.4995
86.7389,84.4892
86.7571,84.4856
87.0429,84.4856
87.0611,84.4892
87.0766,84.4995
87.0869,84.5150
87.0905,84.5332
Z" /> 
<path style="fill:#000000; fill-opacity:1.0000; stroke:none;fill-rule:evenodd;"
d="M 87.8905,86.2668
87.8869,86.2850
87.8766,86.3005
87.8611,86.3108
87.8429,86.3144
87.5571,86.3144
87.5389,86.3108
87.5234,86.3005
87.5131,86.2850
87.5095,86.2668
87.5095,84.5332
87.5131,84.5150
87.5234,84.4995
87.5389,84.4892
87.5571,84.4856
87.8429,84.4856
87.8611,84.4892
87.8766,84.4995
87.8869,84.5150
87.8905,84.5332
Z" /> 
<path style="fill:#000000; fill-opacity:1.0000; stroke:none;fill-rule:evenodd;"
d="M 88.6905,86.2668
88.6869,86.2850
88.6766,86.3005
88.6611,86.3108
88.6429,86.3144
88.3571,86.3144
88.3389,86.3108
88.3234,86.3005
88.3131,86.2850
88.3095,86.2668
88.3095,84.5332
88.3131,84.5150
88.3234,84.4995
88.3389,84.4892
88.3571,84.4856
88.6429,84.4856
88.6611,84.4892
88.6766,84.4995
88.6869,84.5150
88.6905,84.5332
Z" /> 
<path style="fill:#000000; fill-opacity:1.0000; stroke:none;fill-rule:evenodd;"
d="M 89.4905,86.2668
89.4869,86.2850
89.4766,86.3005
89.4611,86.3108
89.4429,86.3144
89.1571,86.3144
89.1389,86.3108
89.1234,86.3005
89.1131,86.2850
89.1095,86.2668
89.1095,84.5332
89.1131,84.5150
89.1234,84.4995
89.1389,84.4892
89.1571,84.4856
89.4429,84.4856
89.4611,84.4892
89.4766,84.4995
89.4869,84.5150
89.4905,84.5332
Z" /> 
<path style="fill:#000000; fill-opacity:1.0000; stroke:none;fill-rule:evenodd;"
d="M 106.7987,80.4406
106.7951,80.4588
106.7848,80.4743
106.7693,80.4846
106.7511,80.4882
106.4653,80.4882
106.4471,80.4846
106.4316,80.4743
106.4213,80.4588
106.4177,80.4406
106.4177,78.7070
106.4213,78.6888
106.4316,78.6733
106.4471,78.6630
106.4653,78.6594
106.7511,78.6594
106.7693,78.6630
106.7848,78.6733
106.7951,78.6888
106.7987,78.7070
Z" /> 
<path style="fill:#000000; fill-opacity:1.0000; stroke:none;fill-rule:evenodd;"
d="M 107.5987,80.4406
107.5951,80.4588
107.5847,80.4743
107.5693,80.4846
107.5511,80.4882
107.2653,80.4882
107.2471,80.4846
107.2316,80.4743
107.2213,80.4588
107.2177,80.4406
107.2177,78.7070
107.2213,78.6888
107.2316,78.6733
107.2471,78.6630
107.2653,78.6594
107.5511,78.6594
107.5693,78.6630
107.5847,78.6733
107.5951,78.6888
107.5987,78.7070
Z" /> 
<path style="fill:#000000; fill-opacity:1.0000; stroke:none;fill-rule:evenodd;"
d="M 108.3987,80.4406
108.3951,80.4588
108.3848,80.4743
108.3693,80.4846
108.3511,80.4882
108.0653,80.4882
108.0471,80.4846
108.0316,80.4743
108.0213,80.4588
108.0177,80.4406
108.0177,78.7070
108.0213,78.6888
108.0316,78.6733
108.0471,78.6630
108.0653,78.6594
108.3511,78.6594
108.3693,78.6630
108.3848,78.6733
108.3951,78.6888
108.3987,78.7070
Z" /> 
<path style="fill:#000000; fill-opacity:1.0000; stroke:none;fill-rule:evenodd;"
d="M 109.1987,80.4406
109.1951,80.4588
109.1848,80.4743
109.1693,80.4846
109.1511,80.4882
108.8653,80.4882
108.8471,80.4846
108.8316,80.4743
108.8213,80.4588
108.8177,80.4406
108.8177,78.7070
108.8213,78.6888
108.8316,78.6733
108.8471,78.6630
108.8653,78.6594
109.1511,78.6594
109.1693,78.6630
109.1848,78.6733
109.1951,78.6888
109.1987,78.7070
Z" /> 
<path style="fill:#000000; fill-opacity:1.0000; stroke:none;fill-rule:evenodd;"
d="M 109.9987,80.4406
109.9951,80.4588
109.9848,80.4743
109.9693,80.4846
109.9511,80.4882
109.6653,80.4882
109.6471,80.4846
109.6316,80.4743
109.6213,80.4588
109.6177,80.4406
109.6177,78.7070
109.6213,78.6888
109.6316,78.6733
109.6471,78.6630
109.6653,78.6594
109.9511,78.6594
109.9693,78.6630
109.9848,78.6733
109.9951,78.6888
109.9987,78.7070
Z" /> 
<path style="fill:#000000; fill-opacity:1.0000; stroke:none;fill-rule:evenodd;"
d="M 110.7987,80.4406
110.7951,80.4588
110.7848,80.4743
110.7693,80.4846
110.7511,80.4882
110.4653,80.4882
110.4471,80.4846
110.4316,80.4743
110.4213,80.4588
110.4177,80.4406
110.4177,78.7070
110.4213,78.6888
110.4316,78.6733
110.4471,78.6630
110.4653,78.6594
110.7511,78.6594
110.7693,78.6630
110.7848,78.6733
110.7951,78.6888
110.7987,78.7070
Z" /> 
<path style="fill:#000000; fill-opacity:1.0000; stroke:none;fill-rule:evenodd;"
d="M 111.5987,80.4406
111.5951,80.4588
111.5848,80.4743
111.5693,80.4846
111.5511,80.4882
111.2653,80.4882
111.2471,80.4846
111.2316,80.4743
111.2213,80.4588
111.2177,80.4406
111.2177,78.7070
111.2213,78.6888
111.2316,78.6733
111.2471,78.6630
111.2653,78.6594
111.5511,78.6594
111.5693,78.6630
111.5848,78.6733
111.5951,78.6888
111.5987,78.7070
Z" /> 
<path style="fill:#000000; fill-opacity:1.0000; stroke:none;fill-rule:evenodd;"
d="M 112.3987,80.4406
112.3951,80.4588
112.3848,80.4743
112.3693,80.4846
112.3511,80.4882
112.0653,80.4882
112.0471,80.4846
112.0316,80.4743
112.0213,80.4588
112.0177,80.4406
112.0177,78.7070
112.0213,78.6888
112.0316,78.6733
112.0471,78.6630
112.0653,78.6594
112.3511,78.6594
112.3693,78.6630
112.3848,78.6733
112.3951,78.6888
112.3987,78.7070
Z" /> 
<path style="fill:#000000; fill-opacity:1.0000; stroke:none;fill-rule:evenodd;"
d="M 113.1987,80.4406
113.1951,80.4588
113.1848,80.4743
113.1693,80.4846
113.1511,80.4882
112.8653,80.4882
112.8471,80.4846
112.8316,80.4743
112.8213,80.4588
112.8177,80.4406
112.8177,78.7070
112.8213,78.6888
112.8316,78.6733
112.8471,78.6630
112.8653,78.6594
113.1511,78.6594
113.1693,78.6630
113.1848,78.6733
113.1951,78.6888
113.1987,78.7070
Z" /> 
<path style="fill:#000000; fill-opacity:1.0000; stroke:none;fill-rule:evenodd;"
d="M 113.9987,80.4406
113.9951,80.4588
113.9848,80.4743
113.9693,80.4846
113.9511,80.4882
113.6653,80.4882
113.6471,80.4846
113.6316,80.4743
113.6213,80.4588
113.6177,80.4406
113.6177,78.7070
113.6213,78.6888
113.6316,78.6733
113.6471,78.6630
113.6653,78.6594
113.9511,78.6594
113.9693,78.6630
113.9848,78.6733
113.9951,78.6888
113.9987,78.7070
Z" /> 
<path style="fill:#000000; fill-opacity:1.0000; stroke:none;fill-rule:evenodd;"
d="M 114.7987,80.4406
114.7951,80.4588
114.7848,80.4743
114.7693,80.4846
114.7511,80.4882
114.4653,80.4882
114.4471,80.4846
114.4316,80.4743
114.4213,80.4588
114.4177,80.4406
114.4177,78.7070
114.4213,78.6888
114.4316,78.6733
114.4471,78.6630
114.4653,78.6594
114.7511,78.6594
114.7693,78.6630
114.7848,78.6733
114.7951,78.6888
114.7987,78.7070
Z" /> 
<path style="fill:#000000; fill-opacity:1.0000; stroke:none;fill-rule:evenodd;"
d="M 115.5987,80.4406
115.5951,80.4588
115.5848,80.4743
115.5693,80.4846
115.5511,80.4882
115.2653,80.4882
115.2471,80.4846
115.2316,80.4743
115.2213,80.4588
115.2177,80.4406
115.2177,78.7070
115.2213,78.6888
115.2316,78.6733
115.2471,78.6630
115.2653,78.6594
115.5511,78.6594
115.5693,78.6630
115.5848,78.6733
115.5951,78.6888
115.5987,78.7070
Z" /> 
<path style="fill:#000000; fill-opacity:1.0000; stroke:none;fill-rule:evenodd;"
d="M 116.3987,80.4406
116.3951,80.4588
116.3848,80.4743
116.3693,80.4846
116.3511,80.4882
116.0653,80.4882
116.0471,80.4846
116.0316,80.4743
116.0213,80.4588
116.0177,80.4406
116.0177,78.7070
116.0213,78.6888
116.0316,78.6733
116.0471,78.6630
116.0653,78.6594
116.3511,78.6594
116.3693,78.6630
116.3848,78.6733
116.3951,78.6888
116.3987,78.7070
Z" /> 
<path style="fill:#000000; fill-opacity:1.0000; stroke:none;fill-rule:evenodd;"
d="M 117.1987,80.4406
117.1951,80.4588
117.1848,80.4743
117.1693,80.4846
117.1511,80.4882
116.8653,80.4882
116.8471,80.4846
116.8316,80.4743
116.8213,80.4588
116.8177,80.4406
116.8177,78.7070
116.8213,78.6888
116.8316,78.6733
116.8471,78.6630
116.8653,78.6594
117.1511,78.6594
117.1693,78.6630
117.1848,78.6733
117.1951,78.6888
117.1987,78.7070
Z" /> 
<path style="fill:#000000; fill-opacity:1.0000; stroke:none;fill-rule:evenodd;"
d="M 117.9987,80.4406
117.9951,80.4588
117.9848,80.4743
117.9693,80.4846
117.9511,80.4882
117.6653,80.4882
117.6471,80.4846
117.6316,80.4743
117.6213,80.4588
117.6177,80.4406
117.6177,78.7070
117.6213,78.6888
117.6316,78.6733
117.6471,78.6630
117.6653,78.6594
117.9511,78.6594
117.9693,78.6630
117.9848,78.6733
117.9951,78.6888
117.9987,78.7070
Z" /> 
<path style="fill:#000000; fill-opacity:1.0000; stroke:none;fill-rule:evenodd;"
d="M 118.7987,80.4406
118.7951,80.4588
118.7848,80.4743
118.7693,80.4846
118.7511,80.4882
118.4653,80.4882
118.4471,80.4846
118.4316,80.4743
118.4213,80.4588
118.4177,80.4406
118.4177,78.7070
118.4213,78.6888
118.4316,78.6733
118.4471,78.6630
118.4653,78.6594
118.7511,78.6594
118.7693,78.6630
118.7848,78.6733
118.7951,78.6888
118.7987,78.7070
Z" /> 
<path style="fill:#000000; fill-opacity:1.0000; stroke:none;fill-rule:evenodd;"
d="M 119.5987,80.4406
119.5951,80.4588
119.5848,80.4743
119.5693,80.4846
119.5511,80.4882
119.2653,80.4882
119.2471,80.4846
119.2316,80.4743
119.2213,80.4588
119.2177,80.4406
119.2177,78.7070
119.2213,78.6888
119.2316,78.6733
119.2471,78.6630
119.2653,78.6594
119.5511,78.6594
119.5693,78.6630
119.5848,78.6733
119.5951,78.6888
119.5987,78.7070
Z" /> 
<path style="fill:#000000; fill-opacity:1.0000; stroke:none;fill-rule:evenodd;"
d="M 120.3987,80.4406
120.3951,80.4588
120.3848,80.4743
120.3693,80.4846
120.3511,80.4882
120.0653,80.4882
120.0471,80.4846
120.0316,80.4743
120.0213,80.4588
120.0177,80.4406
120.0177,78.7070
120.0213,78.6888
120.0316,78.6733
120.0471,78.6630
120.0653,78.6594
120.3511,78.6594
120.3693,78.6630
120.3848,78.6733
120.3951,78.6888
120.3987,78.7070
Z" /> 
<path style="fill:#000000; fill-opacity:1.0000; stroke:none;fill-rule:evenodd;"
d="M 106.7987,86.3406
106.7951,86.3588
106.7848,86.3743
106.7693,86.3846
106.7511,86.3882
106.4653,86.3882
106.4471,86.3846
106.4316,86.3743
106.4213,86.3588
106.4177,86.3406
106.4177,84.6070
106.4213,84.5888
106.4316,84.5733
106.4471,84.5630
106.4653,84.5594
106.7511,84.5594
106.7693,84.5630
106.7848,84.5733
106.7951,84.5888
106.7987,84.6070
Z" /> 
<path style="fill:#000000; fill-opacity:1.0000; stroke:none;fill-rule:evenodd;"
d="M 107.5987,86.3406
107.5951,86.3588
107.5847,86.3743
107.5693,86.3846
107.5511,86.3882
107.2653,86.3882
107.2471,86.3846
107.2316,86.3743
107.2213,86.3588
107.2177,86.3406
107.2177,84.6070
107.2213,84.5888
107.2316,84.5733
107.2471,84.5630
107.2653,84.5594
107.5511,84.5594
107.5693,84.5630
107.5847,84.5733
107.5951,84.5888
107.5987,84.6070
Z" /> 
<path style="fill:#000000; fill-opacity:1.0000; stroke:none;fill-rule:evenodd;"
d="M 108.3987,86.3406
108.3951,86.3588
108.3848,86.3743
108.3693,86.3846
108.3511,86.3882
108.0653,86.3882
108.0471,86.3846
108.0316,86.3743
108.0213,86.3588
108.0177,86.3406
108.0177,84.6070
108.0213,84.5888
108.0316,84.5733
108.0471,84.5630
108.0653,84.5594
108.3511,84.5594
108.3693,84.5630
108.3848,84.5733
108.3951,84.5888
108.3987,84.6070
Z" /> 
<path style="fill:#000000; fill-opacity:1.0000; stroke:none;fill-rule:evenodd;"
d="M 109.1987,86.3406
109.1951,86.3588
109.1848,86.3743
109.1693,86.3846
109.1511,86.3882
108.8653,86.3882
108.8471,86.3846
108.8316,86.3743
108.8213,86.3588
108.8177,86.3406
108.8177,84.6070
108.8213,84.5888
108.8316,84.5733
108.8471,84.5630
108.8653,84.5594
109.1511,84.5594
109.1693,84.5630
109.1848,84.5733
109.1951,84.5888
109.1987,84.6070
Z" /> 
<path style="fill:#000000; fill-opacity:1.0000; stroke:none;fill-rule:evenodd;"
d="M 109.9987,86.3406
109.9951,86.3588
109.9848,86.3743
109.9693,86.3846
109.9511,86.3882
109.6653,86.3882
109.6471,86.3846
109.6316,86.3743
109.6213,86.3588
109.6177,86.3406
109.6177,84.6070
109.6213,84.5888
109.6316,84.5733
109.6471,84.5630
109.6653,84.5594
109.9511,84.5594
109.9693,84.5630
109.9848,84.5733
109.9951,84.5888
109.9987,84.6070
Z" /> 
<path style="fill:#000000; fill-opacity:1.0000; stroke:none;fill-rule:evenodd;"
d="M 110.7987,86.3406
110.7951,86.3588
110.7848,86.3743
110.7693,86.3846
110.7511,86.3882
110.4653,86.3882
110.4471,86.3846
110.4316,86.3743
110.4213,86.3588
110.4177,86.3406
110.4177,84.6070
110.4213,84.5888
110.4316,84.5733
110.4471,84.5630
110.4653,84.5594
110.7511,84.5594
110.7693,84.5630
110.7848,84.5733
110.7951,84.5888
110.7987,84.6070
Z" /> 
<path style="fill:#000000; fill-opacity:1.0000; stroke:none;fill-rule:evenodd;"
d="M 111.5987,86.3406
111.5951,86.3588
111.5848,86.3743
111.5693,86.3846
111.5511,86.3882
111.2653,86.3882
111.2471,86.3846
111.2316,86.3743
111.2213,86.3588
111.2177,86.3406
111.2177,84.6070
111.2213,84.5888
111.2316,84.5733
111.2471,84.5630
111.2653,84.5594
111.5511,84.5594
111.5693,84.5630
111.5848,84.5733
111.5951,84.5888
111.5987,84.6070
Z" /> 
<path style="fill:#000000; fill-opacity:1.0000; stroke:none;fill-rule:evenodd;"
d="M 112.3987,86.3406
112.3951,86.3588
112.3848,86.3743
112.3693,86.3846
112.3511,86.3882
112.0653,86.3882
112.0471,86.3846
112.0316,86.3743
112.0213,86.3588
112.0177,86.3406
112.0177,84.6070
112.0213,84.5888
112.0316,84.5733
112.0471,84.5630
112.0653,84.5594
112.3511,84.5594
112.3693,84.5630
112.3848,84.5733
112.3951,84.5888
112.3987,84.6070
Z" /> 
<path style="fill:#000000; fill-opacity:1.0000; stroke:none;fill-rule:evenodd;"
d="M 113.1987,86.3406
113.1951,86.3588
113.1848,86.3743
113.1693,86.3846
113.1511,86.3882
112.8653,86.3882
112.8471,86.3846
112.8316,86.3743
112.8213,86.3588
112.8177,86.3406
112.8177,84.6070
112.8213,84.5888
112.8316,84.5733
112.8471,84.5630
112.8653,84.5594
113.1511,84.5594
113.1693,84.5630
113.1848,84.5733
113.1951,84.5888
113.1987,84.6070
Z" /> 
<path style="fill:#000000; fill-opacity:1.0000; stroke:none;fill-rule:evenodd;"
d="M 113.9987,86.3406
113.9951,86.3588
113.9848,86.3743
113.9693,86.3846
113.9511,86.3882
113.6653,86.3882
113.6471,86.3846
113.6316,86.3743
113.6213,86.3588
113.6177,86.3406
113.6177,84.6070
113.6213,84.5888
113.6316,84.5733
113.6471,84.5630
113.6653,84.5594
113.9511,84.5594
113.9693,84.5630
113.9848,84.5733
113.9951,84.5888
113.9987,84.6070
Z" /> 
<path style="fill:#000000; fill-opacity:1.0000; stroke:none;fill-rule:evenodd;"
d="M 114.7987,86.3406
114.7951,86.3588
114.7848,86.3743
114.7693,86.3846
114.7511,86.3882
114.4653,86.3882
114.4471,86.3846
114.4316,86.3743
114.4213,86.3588
114.4177,86.3406
114.4177,84.6070
114.4213,84.5888
114.4316,84.5733
114.4471,84.5630
114.4653,84.5594
114.7511,84.5594
114.7693,84.5630
114.7848,84.5733
114.7951,84.5888
114.7987,84.6070
Z" /> 
<path style="fill:#000000; fill-opacity:1.0000; stroke:none;fill-rule:evenodd;"
d="M 115.5987,86.3406
115.5951,86.3588
115.5848,86.3743
115.5693,86.3846
115.5511,86.3882
115.2653,86.3882
115.2471,86.3846
115.2316,86.3743
115.2213,86.3588
115.2177,86.3406
115.2177,84.6070
115.2213,84.5888
115.2316,84.5733
115.2471,84.5630
115.2653,84.5594
115.5511,84.5594
115.5693,84.5630
115.5848,84.5733
115.5951,84.5888
115.5987,84.6070
Z" /> 
<path style="fill:#000000; fill-opacity:1.0000; stroke:none;fill-rule:evenodd;"
d="M 116.3987,86.3406
116.3951,86.3588
116.3848,86.3743
116.3693,86.3846
116.3511,86.3882
116.0653,86.3882
116.0471,86.3846
116.0316,86.3743
116.0213,86.3588
116.0177,86.3406
116.0177,84.6070
116.0213,84.5888
116.0316,84.5733
116.0471,84.5630
116.0653,84.5594
116.3511,84.5594
116.3693,84.5630
116.3848,84.5733
116.3951,84.5888
116.3987,84.6070
Z" /> 
<path style="fill:#000000; fill-opacity:1.0000; stroke:none;fill-rule:evenodd;"
d="M 117.1987,86.3406
117.1951,86.3588
117.1848,86.3743
117.1693,86.3846
117.1511,86.3882
116.8653,86.3882
116.8471,86.3846
116.8316,86.3743
116.8213,86.3588
116.8177,86.3406
116.8177,84.6070
116.8213,84.5888
116.8316,84.5733
116.8471,84.5630
116.8653,84.5594
117.1511,84.5594
117.1693,84.5630
117.1848,84.5733
117.1951,84.5888
117.1987,84.6070
Z" /> 
<path style="fill:#000000; fill-opacity:1.0000; stroke:none;fill-rule:evenodd;"
d="M 117.9987,86.3406
117.9951,86.3588
117.9848,86.3743
117.9693,86.3846
117.9511,86.3882
117.6653,86.3882
117.6471,86.3846
117.6316,86.3743
117.6213,86.3588
117.6177,86.3406
117.6177,84.6070
117.6213,84.5888
117.6316,84.5733
117.6471,84.5630
117.6653,84.5594
117.9511,84.5594
117.9693,84.5630
117.9848,84.5733
117.9951,84.5888
117.9987,84.6070
Z" /> 
<path style="fill:#000000; fill-opacity:1.0000; stroke:none;fill-rule:evenodd;"
d="M 118.7987,86.3406
118.7951,86.3588
118.7848,86.3743
118.7693,86.3846
118.7511,86.3882
118.4653,86.3882
118.4471,86.3846
118.4316,86.3743
118.4213,86.3588
118.4177,86.3406
118.4177,84.6070
118.4213,84.5888
118.4316,84.5733
118.4471,84.5630
118.4653,84.5594
118.7511,84.5594
118.7693,84.5630
118.7848,84.5733
118.7951,84.5888
118.7987,84.6070
Z" /> 
<path style="fill:#000000; fill-opacity:1.0000; stroke:none;fill-rule:evenodd;"
d="M 119.5987,86.3406
119.5951,86.3588
119.5848,86.3743
119.5693,86.3846
119.5511,86.3882
119.2653,86.3882
119.2471,86.3846
119.2316,86.3743
119.2213,86.3588
119.2177,86.3406
119.2177,84.6070
119.2213,84.5888
119.2316,84.5733
119.2471,84.5630
119.2653,84.5594
119.5511,84.5594
119.5693,84.5630
119.5848,84.5733
119.5951,84.5888
119.5987,84.6070
Z" /> 
<path style="fill:#000000; fill-opacity:1.0000; stroke:none;fill-rule:evenodd;"
d="M 120.3987,86.3406
120.3951,86.3588
120.3848,86.3743
120.3693,86.3846
120.3511,86.3882
120.0653,86.3882
120.0471,86.3846
120.0316,86.3743
120.0213,86.3588
120.0177,86.3406
120.0177,84.6070
120.0213,84.5888
120.0316,84.5733
120.0471,84.5630
120.0653,84.5594
120.3511,84.5594
120.3693,84.5630
120.3848,84.5733
120.3951,84.5888
120.3987,84.6070
Z" /> 
</g> 
</svg>
