<?xml version="1.0" standalone="no"?>
 <!DOCTYPE svg PUBLIC "-//W3C//DTD SVG 1.1//EN" 
 "http://www.w3.org/Graphics/SVG/1.1/DTD/svg11.dtd"> 
<svg
  xmlns:svg="http://www.w3.org/2000/svg"
  xmlns="http://www.w3.org/2000/svg"
  xmlns:xlink="http://www.w3.org/1999/xlink"
  version="1.1"
  width="297.0022mm" height="210.0072mm" viewBox="0.0000 0.0000 297.0022 210.0072">
<title>SVG Image created as SUM25-BottomSolderMaskLayer.svg date 2025/06/25 15:42:16 </title>
  <desc>Image generated by PCBNEW </desc>
<g style="fill:#000000; fill-opacity:1.0000;stroke:#000000; stroke-opacity:1.0000;
stroke-linecap:round; stroke-linejoin:round;"
 transform="translate(0 0) scale(1 1)">
<path style="fill:#000000; fill-opacity:1.0000; stroke:none;fill-rule:evenodd;"
d="M 94.0530,98.2350
94.0608,98.1960
94.0829,98.1629
94.1160,98.1408
94.1550,98.1330
95.6850,98.1330
95.7240,98.1408
95.7571,98.1629
95.7792,98.1960
95.7870,98.2350
95.7870,99.7650
95.7792,99.8040
95.7571,99.8371
95.7240,99.8592
95.6850,99.8670
94.1550,99.8670
94.1160,99.8592
94.0829,99.8371
94.0608,99.8040
94.0530,99.7650
Z" /> 
</g>
<g style="fill:#000000; fill-opacity:1.0000; stroke:none;">
<circle cx="97.4600" cy="99.0000" r="0.8670" /> 
</g>
<g style="fill:#000000; fill-opacity:1.0000; stroke:none;">
<circle cx="100.0000" cy="99.0000" r="0.8670" /> 
</g>
<g style="fill:#000000; fill-opacity:1.0000; stroke:none;">
<circle cx="102.5400" cy="99.0000" r="0.8670" /> 
</g>
<g style="fill:#000000; fill-opacity:1.0000; stroke:none;">
<circle cx="94.9200" cy="101.5400" r="0.8670" /> 
</g>
<g style="fill:#000000; fill-opacity:1.0000; stroke:none;">
<circle cx="97.4600" cy="101.5400" r="0.8670" /> 
</g>
<g style="fill:#000000; fill-opacity:1.0000; stroke:none;">
<circle cx="100.0000" cy="101.5400" r="0.8670" /> 
</g>
<g style="fill:#000000; fill-opacity:1.0000; stroke:none;">
<circle cx="102.5400" cy="101.5400" r="0.8670" /> 
</g>
<g style="fill:#000000; fill-opacity:1.0000; stroke:none;">
<circle cx="91.3972" cy="87.6972" r="0.7751" /> 
</g>
<g style="fill:#000000; fill-opacity:1.0000; stroke:none;">
<circle cx="73.5918" cy="88.8148" r="0.7751" /> 
</g>
<g style="fill:#000000; fill-opacity:1.0000; stroke:none;">
<circle cx="91.3972" cy="84.4460" r="0.7751" /> 
</g>
<g style="fill:#000000; fill-opacity:1.0000; stroke:none;">
<circle cx="73.5918" cy="84.4460" r="0.7751" /> 
</g>
<g style="fill:#000000; fill-opacity:1.0000; stroke:none;">
<circle cx="90.5082" cy="82.4394" r="1.0291" /> 
</g>
<g style="fill:#000000; fill-opacity:1.0000; stroke:none;">
<circle cx="74.5062" cy="82.4394" r="1.0291" /> 
</g>
<g style="fill:#000000; fill-opacity:1.0000; stroke:none;">
<circle cx="91.3972" cy="80.4582" r="0.7751" /> 
</g>
<g style="fill:#000000; fill-opacity:1.0000; stroke:none;">
<circle cx="73.5918" cy="80.4582" r="0.7751" /> 
</g>
<g style="fill:#000000; fill-opacity:1.0000; stroke:none;">
<circle cx="91.3972" cy="78.4262" r="0.7751" /> 
</g>
<g style="fill:#000000; fill-opacity:1.0000; stroke:none;">
<circle cx="73.5918" cy="78.4262" r="0.7751" /> 
</g>
<g style="fill:#000000; fill-opacity:1.0000; stroke:none;">
<circle cx="122.3054" cy="87.7710" r="0.7751" /> 
</g>
<g style="fill:#000000; fill-opacity:1.0000; stroke:none;">
<circle cx="104.5000" cy="88.8886" r="0.7751" /> 
</g>
<g style="fill:#000000; fill-opacity:1.0000; stroke:none;">
<circle cx="122.3054" cy="84.5198" r="0.7751" /> 
</g>
<g style="fill:#000000; fill-opacity:1.0000; stroke:none;">
<circle cx="104.5000" cy="84.5198" r="0.7751" /> 
</g>
<g style="fill:#000000; fill-opacity:1.0000; stroke:none;">
<circle cx="121.4164" cy="82.5132" r="1.0291" /> 
</g>
<g style="fill:#000000; fill-opacity:1.0000; stroke:none;">
<circle cx="105.4144" cy="82.5132" r="1.0291" /> 
</g>
<g style="fill:#000000; fill-opacity:1.0000; stroke:none;">
<circle cx="122.3054" cy="80.5320" r="0.7751" /> 
</g>
<g style="fill:#000000; fill-opacity:1.0000; stroke:none;">
<circle cx="104.5000" cy="80.5320" r="0.7751" /> 
</g>
<g style="fill:#000000; fill-opacity:1.0000; stroke:none;">
<circle cx="122.3054" cy="78.5000" r="0.7751" /> 
</g>
<g style="fill:#000000; fill-opacity:1.0000; stroke:none;">
<circle cx="104.5000" cy="78.5000" r="0.7751" /> 
</g>
<g style="fill:#000000; fill-opacity:1.0000; stroke:none;">
<circle cx="99.0000" cy="69.5000" r="1.5000" /> 
</g>
<g style="fill:#000000; fill-opacity:1.0000; stroke:none;">
<circle cx="92.0972" cy="156.2028" r="0.7751" /> 
</g>
<g style="fill:#000000; fill-opacity:1.0000; stroke:none;">
<circle cx="74.2918" cy="155.0852" r="0.7751" /> 
</g>
<g style="fill:#000000; fill-opacity:1.0000; stroke:none;">
<circle cx="92.0972" cy="159.4540" r="0.7751" /> 
</g>
<g style="fill:#000000; fill-opacity:1.0000; stroke:none;">
<circle cx="74.2918" cy="159.4540" r="0.7751" /> 
</g>
<g style="fill:#000000; fill-opacity:1.0000; stroke:none;">
<circle cx="91.2082" cy="161.4606" r="1.0291" /> 
</g>
<g style="fill:#000000; fill-opacity:1.0000; stroke:none;">
<circle cx="75.2062" cy="161.4606" r="1.0291" /> 
</g>
<g style="fill:#000000; fill-opacity:1.0000; stroke:none;">
<circle cx="92.0972" cy="163.4418" r="0.7751" /> 
</g>
<g style="fill:#000000; fill-opacity:1.0000; stroke:none;">
<circle cx="74.2918" cy="163.4418" r="0.7751" /> 
</g>
<g style="fill:#000000; fill-opacity:1.0000; stroke:none;">
<circle cx="92.0972" cy="165.4738" r="0.7751" /> 
</g>
<g style="fill:#000000; fill-opacity:1.0000; stroke:none;">
<circle cx="74.2918" cy="165.4738" r="0.7751" /> 
<path style="fill:#000000; fill-opacity:1.0000; stroke:none;fill-rule:evenodd;"
d="M 76.6925,165.3433
76.6869,165.3713
76.6711,165.3950
76.6474,165.4108
76.6194,165.4164
76.1806,165.4164
76.1526,165.4108
76.1289,165.3950
76.1131,165.3713
76.1075,165.3433
76.1075,163.4567
76.1131,163.4287
76.1289,163.4050
76.1526,163.3892
76.1806,163.3836
76.6194,163.3836
76.6474,163.3892
76.6711,163.4050
76.6869,163.4287
76.6925,163.4567
Z" /> 
<path style="fill:#000000; fill-opacity:1.0000; stroke:none;fill-rule:evenodd;"
d="M 77.4925,165.3433
77.4869,165.3713
77.4711,165.3950
77.4474,165.4108
77.4194,165.4164
76.9806,165.4164
76.9526,165.4108
76.9289,165.3950
76.9131,165.3713
76.9075,165.3433
76.9075,163.4567
76.9131,163.4287
76.9289,163.4050
76.9526,163.3892
76.9806,163.3836
77.4194,163.3836
77.4474,163.3892
77.4711,163.4050
77.4869,163.4287
77.4925,163.4567
Z" /> 
<path style="fill:#000000; fill-opacity:1.0000; stroke:none;fill-rule:evenodd;"
d="M 78.2925,165.3433
78.2869,165.3713
78.2711,165.3950
78.2474,165.4108
78.2194,165.4164
77.7806,165.4164
77.7526,165.4108
77.7289,165.3950
77.7131,165.3713
77.7075,165.3433
77.7075,163.4567
77.7131,163.4287
77.7289,163.4050
77.7526,163.3892
77.7806,163.3836
78.2194,163.3836
78.2474,163.3892
78.2711,163.4050
78.2869,163.4287
78.2925,163.4567
Z" /> 
<path style="fill:#000000; fill-opacity:1.0000; stroke:none;fill-rule:evenodd;"
d="M 79.0925,165.3433
79.0869,165.3713
79.0711,165.3950
79.0474,165.4108
79.0194,165.4164
78.5806,165.4164
78.5526,165.4108
78.5289,165.3950
78.5131,165.3713
78.5075,165.3433
78.5075,163.4567
78.5131,163.4287
78.5289,163.4050
78.5526,163.3892
78.5806,163.3836
79.0194,163.3836
79.0474,163.3892
79.0711,163.4050
79.0869,163.4287
79.0925,163.4567
Z" /> 
<path style="fill:#000000; fill-opacity:1.0000; stroke:none;fill-rule:evenodd;"
d="M 79.8925,165.3433
79.8869,165.3713
79.8711,165.3950
79.8474,165.4108
79.8194,165.4164
79.3806,165.4164
79.3526,165.4108
79.3289,165.3950
79.3131,165.3713
79.3075,165.3433
79.3075,163.4567
79.3131,163.4287
79.3289,163.4050
79.3526,163.3892
79.3806,163.3836
79.8194,163.3836
79.8474,163.3892
79.8711,163.4050
79.8869,163.4287
79.8925,163.4567
Z" /> 
<path style="fill:#000000; fill-opacity:1.0000; stroke:none;fill-rule:evenodd;"
d="M 80.6925,165.3433
80.6869,165.3713
80.6711,165.3950
80.6474,165.4108
80.6194,165.4164
80.1806,165.4164
80.1526,165.4108
80.1289,165.3950
80.1131,165.3713
80.1075,165.3433
80.1075,163.4567
80.1131,163.4287
80.1289,163.4050
80.1526,163.3892
80.1806,163.3836
80.6194,163.3836
80.6474,163.3892
80.6711,163.4050
80.6869,163.4287
80.6925,163.4567
Z" /> 
<path style="fill:#000000; fill-opacity:1.0000; stroke:none;fill-rule:evenodd;"
d="M 81.4925,165.3433
81.4869,165.3713
81.4711,165.3950
81.4474,165.4108
81.4194,165.4164
80.9806,165.4164
80.9526,165.4108
80.9289,165.3950
80.9131,165.3713
80.9075,165.3433
80.9075,163.4567
80.9131,163.4287
80.9289,163.4050
80.9526,163.3892
80.9806,163.3836
81.4194,163.3836
81.4474,163.3892
81.4711,163.4050
81.4869,163.4287
81.4925,163.4567
Z" /> 
<path style="fill:#000000; fill-opacity:1.0000; stroke:none;fill-rule:evenodd;"
d="M 82.2925,165.3433
82.2869,165.3713
82.2711,165.3950
82.2474,165.4108
82.2194,165.4164
81.7806,165.4164
81.7526,165.4108
81.7289,165.3950
81.7131,165.3713
81.7075,165.3433
81.7075,163.4567
81.7131,163.4287
81.7289,163.4050
81.7526,163.3892
81.7806,163.3836
82.2194,163.3836
82.2474,163.3892
82.2711,163.4050
82.2869,163.4287
82.2925,163.4567
Z" /> 
<path style="fill:#000000; fill-opacity:1.0000; stroke:none;fill-rule:evenodd;"
d="M 83.0925,165.3433
83.0869,165.3713
83.0711,165.3950
83.0474,165.4108
83.0194,165.4164
82.5806,165.4164
82.5526,165.4108
82.5289,165.3950
82.5131,165.3713
82.5075,165.3433
82.5075,163.4567
82.5131,163.4287
82.5289,163.4050
82.5526,163.3892
82.5806,163.3836
83.0194,163.3836
83.0474,163.3892
83.0711,163.4050
83.0869,163.4287
83.0925,163.4567
Z" /> 
<path style="fill:#000000; fill-opacity:1.0000; stroke:none;fill-rule:evenodd;"
d="M 83.8925,165.3433
83.8869,165.3713
83.8711,165.3950
83.8474,165.4108
83.8194,165.4164
83.3806,165.4164
83.3526,165.4108
83.3289,165.3950
83.3131,165.3713
83.3075,165.3433
83.3075,163.4567
83.3131,163.4287
83.3289,163.4050
83.3526,163.3892
83.3806,163.3836
83.8194,163.3836
83.8474,163.3892
83.8711,163.4050
83.8869,163.4287
83.8925,163.4567
Z" /> 
<path style="fill:#000000; fill-opacity:1.0000; stroke:none;fill-rule:evenodd;"
d="M 84.6925,165.3433
84.6869,165.3713
84.6711,165.3950
84.6474,165.4108
84.6194,165.4164
84.1806,165.4164
84.1526,165.4108
84.1289,165.3950
84.1131,165.3713
84.1075,165.3433
84.1075,163.4567
84.1131,163.4287
84.1289,163.4050
84.1526,163.3892
84.1806,163.3836
84.6194,163.3836
84.6474,163.3892
84.6711,163.4050
84.6869,163.4287
84.6925,163.4567
Z" /> 
<path style="fill:#000000; fill-opacity:1.0000; stroke:none;fill-rule:evenodd;"
d="M 85.4925,165.3433
85.4869,165.3713
85.4711,165.3950
85.4474,165.4108
85.4194,165.4164
84.9806,165.4164
84.9526,165.4108
84.9289,165.3950
84.9131,165.3713
84.9075,165.3433
84.9075,163.4567
84.9131,163.4287
84.9289,163.4050
84.9526,163.3892
84.9806,163.3836
85.4194,163.3836
85.4474,163.3892
85.4711,163.4050
85.4869,163.4287
85.4925,163.4567
Z" /> 
<path style="fill:#000000; fill-opacity:1.0000; stroke:none;fill-rule:evenodd;"
d="M 86.2925,165.3433
86.2869,165.3713
86.2711,165.3950
86.2474,165.4108
86.2194,165.4164
85.7806,165.4164
85.7526,165.4108
85.7289,165.3950
85.7131,165.3713
85.7075,165.3433
85.7075,163.4567
85.7131,163.4287
85.7289,163.4050
85.7526,163.3892
85.7806,163.3836
86.2194,163.3836
86.2474,163.3892
86.2711,163.4050
86.2869,163.4287
86.2925,163.4567
Z" /> 
<path style="fill:#000000; fill-opacity:1.0000; stroke:none;fill-rule:evenodd;"
d="M 87.0925,165.3433
87.0869,165.3713
87.0711,165.3950
87.0474,165.4108
87.0194,165.4164
86.5806,165.4164
86.5526,165.4108
86.5289,165.3950
86.5131,165.3713
86.5075,165.3433
86.5075,163.4567
86.5131,163.4287
86.5289,163.4050
86.5526,163.3892
86.5806,163.3836
87.0194,163.3836
87.0474,163.3892
87.0711,163.4050
87.0869,163.4287
87.0925,163.4567
Z" /> 
<path style="fill:#000000; fill-opacity:1.0000; stroke:none;fill-rule:evenodd;"
d="M 87.8925,165.3433
87.8869,165.3713
87.8711,165.3950
87.8474,165.4108
87.8194,165.4164
87.3806,165.4164
87.3526,165.4108
87.3289,165.3950
87.3131,165.3713
87.3075,165.3433
87.3075,163.4567
87.3131,163.4287
87.3289,163.4050
87.3526,163.3892
87.3806,163.3836
87.8194,163.3836
87.8474,163.3892
87.8711,163.4050
87.8869,163.4287
87.8925,163.4567
Z" /> 
<path style="fill:#000000; fill-opacity:1.0000; stroke:none;fill-rule:evenodd;"
d="M 88.6925,165.3433
88.6869,165.3713
88.6711,165.3950
88.6474,165.4108
88.6194,165.4164
88.1806,165.4164
88.1526,165.4108
88.1289,165.3950
88.1131,165.3713
88.1075,165.3433
88.1075,163.4567
88.1131,163.4287
88.1289,163.4050
88.1526,163.3892
88.1806,163.3836
88.6194,163.3836
88.6474,163.3892
88.6711,163.4050
88.6869,163.4287
88.6925,163.4567
Z" /> 
<path style="fill:#000000; fill-opacity:1.0000; stroke:none;fill-rule:evenodd;"
d="M 89.4925,165.3433
89.4869,165.3713
89.4711,165.3950
89.4474,165.4108
89.4194,165.4164
88.9806,165.4164
88.9526,165.4108
88.9289,165.3950
88.9131,165.3713
88.9075,165.3433
88.9075,163.4567
88.9131,163.4287
88.9289,163.4050
88.9526,163.3892
88.9806,163.3836
89.4194,163.3836
89.4474,163.3892
89.4711,163.4050
89.4869,163.4287
89.4925,163.4567
Z" /> 
<path style="fill:#000000; fill-opacity:1.0000; stroke:none;fill-rule:evenodd;"
d="M 90.2925,165.3433
90.2869,165.3713
90.2711,165.3950
90.2474,165.4108
90.2194,165.4164
89.7806,165.4164
89.7526,165.4108
89.7289,165.3950
89.7131,165.3713
89.7075,165.3433
89.7075,163.4567
89.7131,163.4287
89.7289,163.4050
89.7526,163.3892
89.7806,163.3836
90.2194,163.3836
90.2474,163.3892
90.2711,163.4050
90.2869,163.4287
90.2925,163.4567
Z" /> 
<path style="fill:#000000; fill-opacity:1.0000; stroke:none;fill-rule:evenodd;"
d="M 76.6925,159.4433
76.6869,159.4713
76.6711,159.4950
76.6474,159.5108
76.6194,159.5164
76.1806,159.5164
76.1526,159.5108
76.1289,159.4950
76.1131,159.4713
76.1075,159.4433
76.1075,157.5567
76.1131,157.5287
76.1289,157.5050
76.1526,157.4892
76.1806,157.4836
76.6194,157.4836
76.6474,157.4892
76.6711,157.5050
76.6869,157.5287
76.6925,157.5567
Z" /> 
<path style="fill:#000000; fill-opacity:1.0000; stroke:none;fill-rule:evenodd;"
d="M 77.4925,159.4433
77.4869,159.4713
77.4711,159.4950
77.4474,159.5108
77.4194,159.5164
76.9806,159.5164
76.9526,159.5108
76.9289,159.4950
76.9131,159.4713
76.9075,159.4433
76.9075,157.5567
76.9131,157.5287
76.9289,157.5050
76.9526,157.4892
76.9806,157.4836
77.4194,157.4836
77.4474,157.4892
77.4711,157.5050
77.4869,157.5287
77.4925,157.5567
Z" /> 
<path style="fill:#000000; fill-opacity:1.0000; stroke:none;fill-rule:evenodd;"
d="M 78.2925,159.4433
78.2869,159.4713
78.2711,159.4950
78.2474,159.5108
78.2194,159.5164
77.7806,159.5164
77.7526,159.5108
77.7289,159.4950
77.7131,159.4713
77.7075,159.4433
77.7075,157.5567
77.7131,157.5287
77.7289,157.5050
77.7526,157.4892
77.7806,157.4836
78.2194,157.4836
78.2474,157.4892
78.2711,157.5050
78.2869,157.5287
78.2925,157.5567
Z" /> 
<path style="fill:#000000; fill-opacity:1.0000; stroke:none;fill-rule:evenodd;"
d="M 79.0925,159.4433
79.0869,159.4713
79.0711,159.4950
79.0474,159.5108
79.0194,159.5164
78.5806,159.5164
78.5526,159.5108
78.5289,159.4950
78.5131,159.4713
78.5075,159.4433
78.5075,157.5567
78.5131,157.5287
78.5289,157.5050
78.5526,157.4892
78.5806,157.4836
79.0194,157.4836
79.0474,157.4892
79.0711,157.5050
79.0869,157.5287
79.0925,157.5567
Z" /> 
<path style="fill:#000000; fill-opacity:1.0000; stroke:none;fill-rule:evenodd;"
d="M 79.8925,159.4433
79.8869,159.4713
79.8711,159.4950
79.8474,159.5108
79.8194,159.5164
79.3806,159.5164
79.3526,159.5108
79.3289,159.4950
79.3131,159.4713
79.3075,159.4433
79.3075,157.5567
79.3131,157.5287
79.3289,157.5050
79.3526,157.4892
79.3806,157.4836
79.8194,157.4836
79.8474,157.4892
79.8711,157.5050
79.8869,157.5287
79.8925,157.5567
Z" /> 
<path style="fill:#000000; fill-opacity:1.0000; stroke:none;fill-rule:evenodd;"
d="M 80.6925,159.4433
80.6869,159.4713
80.6711,159.4950
80.6474,159.5108
80.6194,159.5164
80.1806,159.5164
80.1526,159.5108
80.1289,159.4950
80.1131,159.4713
80.1075,159.4433
80.1075,157.5567
80.1131,157.5287
80.1289,157.5050
80.1526,157.4892
80.1806,157.4836
80.6194,157.4836
80.6474,157.4892
80.6711,157.5050
80.6869,157.5287
80.6925,157.5567
Z" /> 
<path style="fill:#000000; fill-opacity:1.0000; stroke:none;fill-rule:evenodd;"
d="M 81.4925,159.4433
81.4869,159.4713
81.4711,159.4950
81.4474,159.5108
81.4194,159.5164
80.9806,159.5164
80.9526,159.5108
80.9289,159.4950
80.9131,159.4713
80.9075,159.4433
80.9075,157.5567
80.9131,157.5287
80.9289,157.5050
80.9526,157.4892
80.9806,157.4836
81.4194,157.4836
81.4474,157.4892
81.4711,157.5050
81.4869,157.5287
81.4925,157.5567
Z" /> 
<path style="fill:#000000; fill-opacity:1.0000; stroke:none;fill-rule:evenodd;"
d="M 82.2925,159.4433
82.2869,159.4713
82.2711,159.4950
82.2474,159.5108
82.2194,159.5164
81.7806,159.5164
81.7526,159.5108
81.7289,159.4950
81.7131,159.4713
81.7075,159.4433
81.7075,157.5567
81.7131,157.5287
81.7289,157.5050
81.7526,157.4892
81.7806,157.4836
82.2194,157.4836
82.2474,157.4892
82.2711,157.5050
82.2869,157.5287
82.2925,157.5567
Z" /> 
<path style="fill:#000000; fill-opacity:1.0000; stroke:none;fill-rule:evenodd;"
d="M 83.0925,159.4433
83.0869,159.4713
83.0711,159.4950
83.0474,159.5108
83.0194,159.5164
82.5806,159.5164
82.5526,159.5108
82.5289,159.4950
82.5131,159.4713
82.5075,159.4433
82.5075,157.5567
82.5131,157.5287
82.5289,157.5050
82.5526,157.4892
82.5806,157.4836
83.0194,157.4836
83.0474,157.4892
83.0711,157.5050
83.0869,157.5287
83.0925,157.5567
Z" /> 
<path style="fill:#000000; fill-opacity:1.0000; stroke:none;fill-rule:evenodd;"
d="M 83.8925,159.4433
83.8869,159.4713
83.8711,159.4950
83.8474,159.5108
83.8194,159.5164
83.3806,159.5164
83.3526,159.5108
83.3289,159.4950
83.3131,159.4713
83.3075,159.4433
83.3075,157.5567
83.3131,157.5287
83.3289,157.5050
83.3526,157.4892
83.3806,157.4836
83.8194,157.4836
83.8474,157.4892
83.8711,157.5050
83.8869,157.5287
83.8925,157.5567
Z" /> 
<path style="fill:#000000; fill-opacity:1.0000; stroke:none;fill-rule:evenodd;"
d="M 84.6925,159.4433
84.6869,159.4713
84.6711,159.4950
84.6474,159.5108
84.6194,159.5164
84.1806,159.5164
84.1526,159.5108
84.1289,159.4950
84.1131,159.4713
84.1075,159.4433
84.1075,157.5567
84.1131,157.5287
84.1289,157.5050
84.1526,157.4892
84.1806,157.4836
84.6194,157.4836
84.6474,157.4892
84.6711,157.5050
84.6869,157.5287
84.6925,157.5567
Z" /> 
<path style="fill:#000000; fill-opacity:1.0000; stroke:none;fill-rule:evenodd;"
d="M 85.4925,159.4433
85.4869,159.4713
85.4711,159.4950
85.4474,159.5108
85.4194,159.5164
84.9806,159.5164
84.9526,159.5108
84.9289,159.4950
84.9131,159.4713
84.9075,159.4433
84.9075,157.5567
84.9131,157.5287
84.9289,157.5050
84.9526,157.4892
84.9806,157.4836
85.4194,157.4836
85.4474,157.4892
85.4711,157.5050
85.4869,157.5287
85.4925,157.5567
Z" /> 
<path style="fill:#000000; fill-opacity:1.0000; stroke:none;fill-rule:evenodd;"
d="M 86.2925,159.4433
86.2869,159.4713
86.2711,159.4950
86.2474,159.5108
86.2194,159.5164
85.7806,159.5164
85.7526,159.5108
85.7289,159.4950
85.7131,159.4713
85.7075,159.4433
85.7075,157.5567
85.7131,157.5287
85.7289,157.5050
85.7526,157.4892
85.7806,157.4836
86.2194,157.4836
86.2474,157.4892
86.2711,157.5050
86.2869,157.5287
86.2925,157.5567
Z" /> 
<path style="fill:#000000; fill-opacity:1.0000; stroke:none;fill-rule:evenodd;"
d="M 87.0925,159.4433
87.0869,159.4713
87.0711,159.4950
87.0474,159.5108
87.0194,159.5164
86.5806,159.5164
86.5526,159.5108
86.5289,159.4950
86.5131,159.4713
86.5075,159.4433
86.5075,157.5567
86.5131,157.5287
86.5289,157.5050
86.5526,157.4892
86.5806,157.4836
87.0194,157.4836
87.0474,157.4892
87.0711,157.5050
87.0869,157.5287
87.0925,157.5567
Z" /> 
<path style="fill:#000000; fill-opacity:1.0000; stroke:none;fill-rule:evenodd;"
d="M 87.8925,159.4433
87.8869,159.4713
87.8711,159.4950
87.8474,159.5108
87.8194,159.5164
87.3806,159.5164
87.3526,159.5108
87.3289,159.4950
87.3131,159.4713
87.3075,159.4433
87.3075,157.5567
87.3131,157.5287
87.3289,157.5050
87.3526,157.4892
87.3806,157.4836
87.8194,157.4836
87.8474,157.4892
87.8711,157.5050
87.8869,157.5287
87.8925,157.5567
Z" /> 
<path style="fill:#000000; fill-opacity:1.0000; stroke:none;fill-rule:evenodd;"
d="M 88.6925,159.4433
88.6869,159.4713
88.6711,159.4950
88.6474,159.5108
88.6194,159.5164
88.1806,159.5164
88.1526,159.5108
88.1289,159.4950
88.1131,159.4713
88.1075,159.4433
88.1075,157.5567
88.1131,157.5287
88.1289,157.5050
88.1526,157.4892
88.1806,157.4836
88.6194,157.4836
88.6474,157.4892
88.6711,157.5050
88.6869,157.5287
88.6925,157.5567
Z" /> 
<path style="fill:#000000; fill-opacity:1.0000; stroke:none;fill-rule:evenodd;"
d="M 89.4925,159.4433
89.4869,159.4713
89.4711,159.4950
89.4474,159.5108
89.4194,159.5164
88.9806,159.5164
88.9526,159.5108
88.9289,159.4950
88.9131,159.4713
88.9075,159.4433
88.9075,157.5567
88.9131,157.5287
88.9289,157.5050
88.9526,157.4892
88.9806,157.4836
89.4194,157.4836
89.4474,157.4892
89.4711,157.5050
89.4869,157.5287
89.4925,157.5567
Z" /> 
<path style="fill:#000000; fill-opacity:1.0000; stroke:none;fill-rule:evenodd;"
d="M 90.2925,159.4433
90.2869,159.4713
90.2711,159.4950
90.2474,159.5108
90.2194,159.5164
89.7806,159.5164
89.7526,159.5108
89.7289,159.4950
89.7131,159.4713
89.7075,159.4433
89.7075,157.5567
89.7131,157.5287
89.7289,157.5050
89.7526,157.4892
89.7806,157.4836
90.2194,157.4836
90.2474,157.4892
90.2711,157.5050
90.2869,157.5287
90.2925,157.5567
Z" /> 
</g>
<g style="fill:#000000; fill-opacity:1.0000; stroke:none;">
<circle cx="118.4972" cy="156.2028" r="0.7751" /> 
</g>
<g style="fill:#000000; fill-opacity:1.0000; stroke:none;">
<circle cx="100.6918" cy="155.0852" r="0.7751" /> 
</g>
<g style="fill:#000000; fill-opacity:1.0000; stroke:none;">
<circle cx="118.4972" cy="159.4540" r="0.7751" /> 
</g>
<g style="fill:#000000; fill-opacity:1.0000; stroke:none;">
<circle cx="100.6918" cy="159.4540" r="0.7751" /> 
</g>
<g style="fill:#000000; fill-opacity:1.0000; stroke:none;">
<circle cx="117.6082" cy="161.4606" r="1.0291" /> 
</g>
<g style="fill:#000000; fill-opacity:1.0000; stroke:none;">
<circle cx="101.6062" cy="161.4606" r="1.0291" /> 
</g>
<g style="fill:#000000; fill-opacity:1.0000; stroke:none;">
<circle cx="118.4972" cy="163.4418" r="0.7751" /> 
</g>
<g style="fill:#000000; fill-opacity:1.0000; stroke:none;">
<circle cx="100.6918" cy="163.4418" r="0.7751" /> 
</g>
<g style="fill:#000000; fill-opacity:1.0000; stroke:none;">
<circle cx="118.4972" cy="165.4738" r="0.7751" /> 
</g>
<g style="fill:#000000; fill-opacity:1.0000; stroke:none;">
<circle cx="100.6918" cy="165.4738" r="0.7751" /> 
<path style="fill:#000000; fill-opacity:1.0000; stroke:none;fill-rule:evenodd;"
d="M 103.0925,165.3433
103.0869,165.3713
103.0711,165.3950
103.0474,165.4108
103.0194,165.4164
102.5806,165.4164
102.5526,165.4108
102.5289,165.3950
102.5131,165.3713
102.5075,165.3433
102.5075,163.4567
102.5131,163.4287
102.5289,163.4050
102.5526,163.3892
102.5806,163.3836
103.0194,163.3836
103.0474,163.3892
103.0711,163.4050
103.0869,163.4287
103.0925,163.4567
Z" /> 
<path style="fill:#000000; fill-opacity:1.0000; stroke:none;fill-rule:evenodd;"
d="M 103.8925,165.3433
103.8869,165.3713
103.8711,165.3950
103.8474,165.4108
103.8194,165.4164
103.3806,165.4164
103.3526,165.4108
103.3289,165.3950
103.3131,165.3713
103.3075,165.3433
103.3075,163.4567
103.3131,163.4287
103.3289,163.4050
103.3526,163.3892
103.3806,163.3836
103.8194,163.3836
103.8474,163.3892
103.8711,163.4050
103.8869,163.4287
103.8925,163.4567
Z" /> 
<path style="fill:#000000; fill-opacity:1.0000; stroke:none;fill-rule:evenodd;"
d="M 104.6925,165.3433
104.6869,165.3713
104.6711,165.3950
104.6474,165.4108
104.6194,165.4164
104.1806,165.4164
104.1526,165.4108
104.1289,165.3950
104.1131,165.3713
104.1075,165.3433
104.1075,163.4567
104.1131,163.4287
104.1289,163.4050
104.1526,163.3892
104.1806,163.3836
104.6194,163.3836
104.6474,163.3892
104.6711,163.4050
104.6869,163.4287
104.6925,163.4567
Z" /> 
<path style="fill:#000000; fill-opacity:1.0000; stroke:none;fill-rule:evenodd;"
d="M 105.4925,165.3433
105.4869,165.3713
105.4711,165.3950
105.4474,165.4108
105.4194,165.4164
104.9806,165.4164
104.9526,165.4108
104.9289,165.3950
104.9131,165.3713
104.9075,165.3433
104.9075,163.4567
104.9131,163.4287
104.9289,163.4050
104.9526,163.3892
104.9806,163.3836
105.4194,163.3836
105.4474,163.3892
105.4711,163.4050
105.4869,163.4287
105.4925,163.4567
Z" /> 
<path style="fill:#000000; fill-opacity:1.0000; stroke:none;fill-rule:evenodd;"
d="M 106.2925,165.3433
106.2869,165.3713
106.2711,165.3950
106.2474,165.4108
106.2194,165.4164
105.7806,165.4164
105.7526,165.4108
105.7289,165.3950
105.7131,165.3713
105.7075,165.3433
105.7075,163.4567
105.7131,163.4287
105.7289,163.4050
105.7526,163.3892
105.7806,163.3836
106.2194,163.3836
106.2474,163.3892
106.2711,163.4050
106.2869,163.4287
106.2925,163.4567
Z" /> 
<path style="fill:#000000; fill-opacity:1.0000; stroke:none;fill-rule:evenodd;"
d="M 107.0925,165.3433
107.0869,165.3713
107.0711,165.3950
107.0474,165.4108
107.0194,165.4164
106.5806,165.4164
106.5526,165.4108
106.5289,165.3950
106.5131,165.3713
106.5075,165.3433
106.5075,163.4567
106.5131,163.4287
106.5289,163.4050
106.5526,163.3892
106.5806,163.3836
107.0194,163.3836
107.0474,163.3892
107.0711,163.4050
107.0869,163.4287
107.0925,163.4567
Z" /> 
<path style="fill:#000000; fill-opacity:1.0000; stroke:none;fill-rule:evenodd;"
d="M 107.8925,165.3433
107.8869,165.3713
107.8711,165.3950
107.8474,165.4108
107.8194,165.4164
107.3806,165.4164
107.3526,165.4108
107.3289,165.3950
107.3131,165.3713
107.3075,165.3433
107.3075,163.4567
107.3131,163.4287
107.3289,163.4050
107.3526,163.3892
107.3806,163.3836
107.8194,163.3836
107.8474,163.3892
107.8711,163.4050
107.8869,163.4287
107.8925,163.4567
Z" /> 
<path style="fill:#000000; fill-opacity:1.0000; stroke:none;fill-rule:evenodd;"
d="M 108.6925,165.3433
108.6869,165.3713
108.6711,165.3950
108.6474,165.4108
108.6194,165.4164
108.1806,165.4164
108.1526,165.4108
108.1289,165.3950
108.1131,165.3713
108.1075,165.3433
108.1075,163.4567
108.1131,163.4287
108.1289,163.4050
108.1526,163.3892
108.1806,163.3836
108.6194,163.3836
108.6474,163.3892
108.6711,163.4050
108.6869,163.4287
108.6925,163.4567
Z" /> 
<path style="fill:#000000; fill-opacity:1.0000; stroke:none;fill-rule:evenodd;"
d="M 109.4925,165.3433
109.4869,165.3713
109.4711,165.3950
109.4474,165.4108
109.4194,165.4164
108.9806,165.4164
108.9526,165.4108
108.9289,165.3950
108.9131,165.3713
108.9075,165.3433
108.9075,163.4567
108.9131,163.4287
108.9289,163.4050
108.9526,163.3892
108.9806,163.3836
109.4194,163.3836
109.4474,163.3892
109.4711,163.4050
109.4869,163.4287
109.4925,163.4567
Z" /> 
<path style="fill:#000000; fill-opacity:1.0000; stroke:none;fill-rule:evenodd;"
d="M 110.2925,165.3433
110.2869,165.3713
110.2711,165.3950
110.2474,165.4108
110.2194,165.4164
109.7806,165.4164
109.7526,165.4108
109.7289,165.3950
109.7131,165.3713
109.7075,165.3433
109.7075,163.4567
109.7131,163.4287
109.7289,163.4050
109.7526,163.3892
109.7806,163.3836
110.2194,163.3836
110.2474,163.3892
110.2711,163.4050
110.2869,163.4287
110.2925,163.4567
Z" /> 
<path style="fill:#000000; fill-opacity:1.0000; stroke:none;fill-rule:evenodd;"
d="M 111.0925,165.3433
111.0869,165.3713
111.0711,165.3950
111.0474,165.4108
111.0194,165.4164
110.5806,165.4164
110.5526,165.4108
110.5289,165.3950
110.5131,165.3713
110.5075,165.3433
110.5075,163.4567
110.5131,163.4287
110.5289,163.4050
110.5526,163.3892
110.5806,163.3836
111.0194,163.3836
111.0474,163.3892
111.0711,163.4050
111.0869,163.4287
111.0925,163.4567
Z" /> 
<path style="fill:#000000; fill-opacity:1.0000; stroke:none;fill-rule:evenodd;"
d="M 111.8925,165.3433
111.8869,165.3713
111.8711,165.3950
111.8474,165.4108
111.8194,165.4164
111.3806,165.4164
111.3526,165.4108
111.3289,165.3950
111.3131,165.3713
111.3075,165.3433
111.3075,163.4567
111.3131,163.4287
111.3289,163.4050
111.3526,163.3892
111.3806,163.3836
111.8194,163.3836
111.8474,163.3892
111.8711,163.4050
111.8869,163.4287
111.8925,163.4567
Z" /> 
<path style="fill:#000000; fill-opacity:1.0000; stroke:none;fill-rule:evenodd;"
d="M 112.6925,165.3433
112.6869,165.3713
112.6711,165.3950
112.6474,165.4108
112.6194,165.4164
112.1806,165.4164
112.1526,165.4108
112.1289,165.3950
112.1131,165.3713
112.1075,165.3433
112.1075,163.4567
112.1131,163.4287
112.1289,163.4050
112.1526,163.3892
112.1806,163.3836
112.6194,163.3836
112.6474,163.3892
112.6711,163.4050
112.6869,163.4287
112.6925,163.4567
Z" /> 
<path style="fill:#000000; fill-opacity:1.0000; stroke:none;fill-rule:evenodd;"
d="M 113.4925,165.3433
113.4869,165.3713
113.4711,165.3950
113.4474,165.4108
113.4194,165.4164
112.9806,165.4164
112.9526,165.4108
112.9289,165.3950
112.9131,165.3713
112.9075,165.3433
112.9075,163.4567
112.9131,163.4287
112.9289,163.4050
112.9526,163.3892
112.9806,163.3836
113.4194,163.3836
113.4474,163.3892
113.4711,163.4050
113.4869,163.4287
113.4925,163.4567
Z" /> 
<path style="fill:#000000; fill-opacity:1.0000; stroke:none;fill-rule:evenodd;"
d="M 114.2925,165.3433
114.2869,165.3713
114.2711,165.3950
114.2474,165.4108
114.2194,165.4164
113.7806,165.4164
113.7526,165.4108
113.7289,165.3950
113.7131,165.3713
113.7075,165.3433
113.7075,163.4567
113.7131,163.4287
113.7289,163.4050
113.7526,163.3892
113.7806,163.3836
114.2194,163.3836
114.2474,163.3892
114.2711,163.4050
114.2869,163.4287
114.2925,163.4567
Z" /> 
<path style="fill:#000000; fill-opacity:1.0000; stroke:none;fill-rule:evenodd;"
d="M 115.0925,165.3433
115.0869,165.3713
115.0711,165.3950
115.0474,165.4108
115.0194,165.4164
114.5806,165.4164
114.5526,165.4108
114.5289,165.3950
114.5131,165.3713
114.5075,165.3433
114.5075,163.4567
114.5131,163.4287
114.5289,163.4050
114.5526,163.3892
114.5806,163.3836
115.0194,163.3836
115.0474,163.3892
115.0711,163.4050
115.0869,163.4287
115.0925,163.4567
Z" /> 
<path style="fill:#000000; fill-opacity:1.0000; stroke:none;fill-rule:evenodd;"
d="M 115.8925,165.3433
115.8869,165.3713
115.8711,165.3950
115.8474,165.4108
115.8194,165.4164
115.3806,165.4164
115.3526,165.4108
115.3289,165.3950
115.3131,165.3713
115.3075,165.3433
115.3075,163.4567
115.3131,163.4287
115.3289,163.4050
115.3526,163.3892
115.3806,163.3836
115.8194,163.3836
115.8474,163.3892
115.8711,163.4050
115.8869,163.4287
115.8925,163.4567
Z" /> 
<path style="fill:#000000; fill-opacity:1.0000; stroke:none;fill-rule:evenodd;"
d="M 116.6925,165.3433
116.6869,165.3713
116.6711,165.3950
116.6474,165.4108
116.6194,165.4164
116.1806,165.4164
116.1526,165.4108
116.1289,165.3950
116.1131,165.3713
116.1075,165.3433
116.1075,163.4567
116.1131,163.4287
116.1289,163.4050
116.1526,163.3892
116.1806,163.3836
116.6194,163.3836
116.6474,163.3892
116.6711,163.4050
116.6869,163.4287
116.6925,163.4567
Z" /> 
<path style="fill:#000000; fill-opacity:1.0000; stroke:none;fill-rule:evenodd;"
d="M 103.0925,159.4433
103.0869,159.4713
103.0711,159.4950
103.0474,159.5108
103.0194,159.5164
102.5806,159.5164
102.5526,159.5108
102.5289,159.4950
102.5131,159.4713
102.5075,159.4433
102.5075,157.5567
102.5131,157.5287
102.5289,157.5050
102.5526,157.4892
102.5806,157.4836
103.0194,157.4836
103.0474,157.4892
103.0711,157.5050
103.0869,157.5287
103.0925,157.5567
Z" /> 
<path style="fill:#000000; fill-opacity:1.0000; stroke:none;fill-rule:evenodd;"
d="M 103.8925,159.4433
103.8869,159.4713
103.8711,159.4950
103.8474,159.5108
103.8194,159.5164
103.3806,159.5164
103.3526,159.5108
103.3289,159.4950
103.3131,159.4713
103.3075,159.4433
103.3075,157.5567
103.3131,157.5287
103.3289,157.5050
103.3526,157.4892
103.3806,157.4836
103.8194,157.4836
103.8474,157.4892
103.8711,157.5050
103.8869,157.5287
103.8925,157.5567
Z" /> 
<path style="fill:#000000; fill-opacity:1.0000; stroke:none;fill-rule:evenodd;"
d="M 104.6925,159.4433
104.6869,159.4713
104.6711,159.4950
104.6474,159.5108
104.6194,159.5164
104.1806,159.5164
104.1526,159.5108
104.1289,159.4950
104.1131,159.4713
104.1075,159.4433
104.1075,157.5567
104.1131,157.5287
104.1289,157.5050
104.1526,157.4892
104.1806,157.4836
104.6194,157.4836
104.6474,157.4892
104.6711,157.5050
104.6869,157.5287
104.6925,157.5567
Z" /> 
<path style="fill:#000000; fill-opacity:1.0000; stroke:none;fill-rule:evenodd;"
d="M 105.4925,159.4433
105.4869,159.4713
105.4711,159.4950
105.4474,159.5108
105.4194,159.5164
104.9806,159.5164
104.9526,159.5108
104.9289,159.4950
104.9131,159.4713
104.9075,159.4433
104.9075,157.5567
104.9131,157.5287
104.9289,157.5050
104.9526,157.4892
104.9806,157.4836
105.4194,157.4836
105.4474,157.4892
105.4711,157.5050
105.4869,157.5287
105.4925,157.5567
Z" /> 
<path style="fill:#000000; fill-opacity:1.0000; stroke:none;fill-rule:evenodd;"
d="M 106.2925,159.4433
106.2869,159.4713
106.2711,159.4950
106.2474,159.5108
106.2194,159.5164
105.7806,159.5164
105.7526,159.5108
105.7289,159.4950
105.7131,159.4713
105.7075,159.4433
105.7075,157.5567
105.7131,157.5287
105.7289,157.5050
105.7526,157.4892
105.7806,157.4836
106.2194,157.4836
106.2474,157.4892
106.2711,157.5050
106.2869,157.5287
106.2925,157.5567
Z" /> 
<path style="fill:#000000; fill-opacity:1.0000; stroke:none;fill-rule:evenodd;"
d="M 107.0925,159.4433
107.0869,159.4713
107.0711,159.4950
107.0474,159.5108
107.0194,159.5164
106.5806,159.5164
106.5526,159.5108
106.5289,159.4950
106.5131,159.4713
106.5075,159.4433
106.5075,157.5567
106.5131,157.5287
106.5289,157.5050
106.5526,157.4892
106.5806,157.4836
107.0194,157.4836
107.0474,157.4892
107.0711,157.5050
107.0869,157.5287
107.0925,157.5567
Z" /> 
<path style="fill:#000000; fill-opacity:1.0000; stroke:none;fill-rule:evenodd;"
d="M 107.8925,159.4433
107.8869,159.4713
107.8711,159.4950
107.8474,159.5108
107.8194,159.5164
107.3806,159.5164
107.3526,159.5108
107.3289,159.4950
107.3131,159.4713
107.3075,159.4433
107.3075,157.5567
107.3131,157.5287
107.3289,157.5050
107.3526,157.4892
107.3806,157.4836
107.8194,157.4836
107.8474,157.4892
107.8711,157.5050
107.8869,157.5287
107.8925,157.5567
Z" /> 
<path style="fill:#000000; fill-opacity:1.0000; stroke:none;fill-rule:evenodd;"
d="M 108.6925,159.4433
108.6869,159.4713
108.6711,159.4950
108.6474,159.5108
108.6194,159.5164
108.1806,159.5164
108.1526,159.5108
108.1289,159.4950
108.1131,159.4713
108.1075,159.4433
108.1075,157.5567
108.1131,157.5287
108.1289,157.5050
108.1526,157.4892
108.1806,157.4836
108.6194,157.4836
108.6474,157.4892
108.6711,157.5050
108.6869,157.5287
108.6925,157.5567
Z" /> 
<path style="fill:#000000; fill-opacity:1.0000; stroke:none;fill-rule:evenodd;"
d="M 109.4925,159.4433
109.4869,159.4713
109.4711,159.4950
109.4474,159.5108
109.4194,159.5164
108.9806,159.5164
108.9526,159.5108
108.9289,159.4950
108.9131,159.4713
108.9075,159.4433
108.9075,157.5567
108.9131,157.5287
108.9289,157.5050
108.9526,157.4892
108.9806,157.4836
109.4194,157.4836
109.4474,157.4892
109.4711,157.5050
109.4869,157.5287
109.4925,157.5567
Z" /> 
<path style="fill:#000000; fill-opacity:1.0000; stroke:none;fill-rule:evenodd;"
d="M 110.2925,159.4433
110.2869,159.4713
110.2711,159.4950
110.2474,159.5108
110.2194,159.5164
109.7806,159.5164
109.7526,159.5108
109.7289,159.4950
109.7131,159.4713
109.7075,159.4433
109.7075,157.5567
109.7131,157.5287
109.7289,157.5050
109.7526,157.4892
109.7806,157.4836
110.2194,157.4836
110.2474,157.4892
110.2711,157.5050
110.2869,157.5287
110.2925,157.5567
Z" /> 
<path style="fill:#000000; fill-opacity:1.0000; stroke:none;fill-rule:evenodd;"
d="M 111.0925,159.4433
111.0869,159.4713
111.0711,159.4950
111.0474,159.5108
111.0194,159.5164
110.5806,159.5164
110.5526,159.5108
110.5289,159.4950
110.5131,159.4713
110.5075,159.4433
110.5075,157.5567
110.5131,157.5287
110.5289,157.5050
110.5526,157.4892
110.5806,157.4836
111.0194,157.4836
111.0474,157.4892
111.0711,157.5050
111.0869,157.5287
111.0925,157.5567
Z" /> 
<path style="fill:#000000; fill-opacity:1.0000; stroke:none;fill-rule:evenodd;"
d="M 111.8925,159.4433
111.8869,159.4713
111.8711,159.4950
111.8474,159.5108
111.8194,159.5164
111.3806,159.5164
111.3526,159.5108
111.3289,159.4950
111.3131,159.4713
111.3075,159.4433
111.3075,157.5567
111.3131,157.5287
111.3289,157.5050
111.3526,157.4892
111.3806,157.4836
111.8194,157.4836
111.8474,157.4892
111.8711,157.5050
111.8869,157.5287
111.8925,157.5567
Z" /> 
<path style="fill:#000000; fill-opacity:1.0000; stroke:none;fill-rule:evenodd;"
d="M 112.6925,159.4433
112.6869,159.4713
112.6711,159.4950
112.6474,159.5108
112.6194,159.5164
112.1806,159.5164
112.1526,159.5108
112.1289,159.4950
112.1131,159.4713
112.1075,159.4433
112.1075,157.5567
112.1131,157.5287
112.1289,157.5050
112.1526,157.4892
112.1806,157.4836
112.6194,157.4836
112.6474,157.4892
112.6711,157.5050
112.6869,157.5287
112.6925,157.5567
Z" /> 
<path style="fill:#000000; fill-opacity:1.0000; stroke:none;fill-rule:evenodd;"
d="M 113.4925,159.4433
113.4869,159.4713
113.4711,159.4950
113.4474,159.5108
113.4194,159.5164
112.9806,159.5164
112.9526,159.5108
112.9289,159.4950
112.9131,159.4713
112.9075,159.4433
112.9075,157.5567
112.9131,157.5287
112.9289,157.5050
112.9526,157.4892
112.9806,157.4836
113.4194,157.4836
113.4474,157.4892
113.4711,157.5050
113.4869,157.5287
113.4925,157.5567
Z" /> 
<path style="fill:#000000; fill-opacity:1.0000; stroke:none;fill-rule:evenodd;"
d="M 114.2925,159.4433
114.2869,159.4713
114.2711,159.4950
114.2474,159.5108
114.2194,159.5164
113.7806,159.5164
113.7526,159.5108
113.7289,159.4950
113.7131,159.4713
113.7075,159.4433
113.7075,157.5567
113.7131,157.5287
113.7289,157.5050
113.7526,157.4892
113.7806,157.4836
114.2194,157.4836
114.2474,157.4892
114.2711,157.5050
114.2869,157.5287
114.2925,157.5567
Z" /> 
<path style="fill:#000000; fill-opacity:1.0000; stroke:none;fill-rule:evenodd;"
d="M 115.0925,159.4433
115.0869,159.4713
115.0711,159.4950
115.0474,159.5108
115.0194,159.5164
114.5806,159.5164
114.5526,159.5108
114.5289,159.4950
114.5131,159.4713
114.5075,159.4433
114.5075,157.5567
114.5131,157.5287
114.5289,157.5050
114.5526,157.4892
114.5806,157.4836
115.0194,157.4836
115.0474,157.4892
115.0711,157.5050
115.0869,157.5287
115.0925,157.5567
Z" /> 
<path style="fill:#000000; fill-opacity:1.0000; stroke:none;fill-rule:evenodd;"
d="M 115.8925,159.4433
115.8869,159.4713
115.8711,159.4950
115.8474,159.5108
115.8194,159.5164
115.3806,159.5164
115.3526,159.5108
115.3289,159.4950
115.3131,159.4713
115.3075,159.4433
115.3075,157.5567
115.3131,157.5287
115.3289,157.5050
115.3526,157.4892
115.3806,157.4836
115.8194,157.4836
115.8474,157.4892
115.8711,157.5050
115.8869,157.5287
115.8925,157.5567
Z" /> 
<path style="fill:#000000; fill-opacity:1.0000; stroke:none;fill-rule:evenodd;"
d="M 116.6925,159.4433
116.6869,159.4713
116.6711,159.4950
116.6474,159.5108
116.6194,159.5164
116.1806,159.5164
116.1526,159.5108
116.1289,159.4950
116.1131,159.4713
116.1075,159.4433
116.1075,157.5567
116.1131,157.5287
116.1289,157.5050
116.1526,157.4892
116.1806,157.4836
116.6194,157.4836
116.6474,157.4892
116.6711,157.5050
116.6869,157.5287
116.6925,157.5567
Z" /> 
<path style="fill:#000000; fill-opacity:1.0000; stroke:none;fill-rule:evenodd;"
d="M 93.5530,142.2350
93.5608,142.1960
93.5829,142.1629
93.6160,142.1408
93.6550,142.1330
95.1850,142.1330
95.2240,142.1408
95.2571,142.1629
95.2792,142.1960
95.2870,142.2350
95.2870,143.7650
95.2792,143.8040
95.2571,143.8371
95.2240,143.8592
95.1850,143.8670
93.6550,143.8670
93.6160,143.8592
93.5829,143.8371
93.5608,143.8040
93.5530,143.7650
Z" /> 
</g>
<g style="fill:#000000; fill-opacity:1.0000; stroke:none;">
<circle cx="96.9600" cy="143.0000" r="0.8670" /> 
</g>
<g style="fill:#000000; fill-opacity:1.0000; stroke:none;">
<circle cx="99.5000" cy="143.0000" r="0.8670" /> 
</g>
<g style="fill:#000000; fill-opacity:1.0000; stroke:none;">
<circle cx="102.0400" cy="143.0000" r="0.8670" /> 
</g>
<g style="fill:#000000; fill-opacity:1.0000; stroke:none;">
<circle cx="94.4200" cy="140.4600" r="0.8670" /> 
</g>
<g style="fill:#000000; fill-opacity:1.0000; stroke:none;">
<circle cx="96.9600" cy="140.4600" r="0.8670" /> 
</g>
<g style="fill:#000000; fill-opacity:1.0000; stroke:none;">
<circle cx="99.5000" cy="140.4600" r="0.8670" /> 
</g>
<g style="fill:#000000; fill-opacity:1.0000; stroke:none;">
<circle cx="102.0400" cy="140.4600" r="0.8670" /> 
</g> 
</svg>
