<?xml version="1.0" standalone="no"?>
 <!DOCTYPE svg PUBLIC "-//W3C//DTD SVG 1.1//EN" 
 "http://www.w3.org/Graphics/SVG/1.1/DTD/svg11.dtd"> 
<svg
  xmlns:svg="http://www.w3.org/2000/svg"
  xmlns="http://www.w3.org/2000/svg"
  xmlns:xlink="http://www.w3.org/1999/xlink"
  version="1.1"
  width="297.0022mm" height="210.0072mm" viewBox="0.0000 0.0000 297.0022 210.0072">
<title>SVG Image created as SUM25-TopSilkLayer.svg date 2025/06/25 15:42:16 </title>
  <desc>Image generated by PCBNEW </desc>
<g style="fill:#000000; fill-opacity:1.0000;stroke:#000000; stroke-opacity:1.0000;
stroke-linecap:round; stroke-linejoin:round;"
 transform="translate(0 0) scale(1 1)">
</g>
<g style="fill:none; 
stroke:#000000; stroke-width:0.1500; stroke-opacity:1; 
stroke-linecap:round; stroke-linejoin:round;">
<text x="96.1950" y="96.0000"
textLength="1.9643" font-size="1.3333" lengthAdjust="spacingAndGlyphs"
text-anchor="middle" opacity="0" stroke-opacity="0">J5</text>
<g class="stroked-text"><desc>J5</desc>
<path d="M95.8617 94.9548
L95.8617 95.6691
" />
<path d="M95.8617 95.6691
L95.8140 95.8120
" />
<path d="M95.8140 95.8120
L95.7188 95.9072
" />
<path d="M95.7188 95.9072
L95.5760 95.9548
" />
<path d="M95.5760 95.9548
L95.4807 95.9548
" />
<path d="M96.8140 94.9548
L96.3379 94.9548
" />
<path d="M96.3379 94.9548
L96.2902 95.4310
" />
<path d="M96.2902 95.4310
L96.3379 95.3834
" />
<path d="M96.3379 95.3834
L96.4331 95.3358
" />
<path d="M96.4331 95.3358
L96.6712 95.3358
" />
<path d="M96.6712 95.3358
L96.7664 95.3834
" />
<path d="M96.7664 95.3834
L96.8140 95.4310
" />
<path d="M96.8140 95.4310
L96.8617 95.5262
" />
<path d="M96.8617 95.5262
L96.8617 95.7643
" />
<path d="M96.8617 95.7643
L96.8140 95.8596
" />
<path d="M96.8140 95.8596
L96.7664 95.9072
" />
<path d="M96.7664 95.9072
L96.6712 95.9548
" />
<path d="M96.6712 95.9548
L96.4331 95.9548
" />
<path d="M96.4331 95.9548
L96.3379 95.9072
" />
<path d="M96.3379 95.9072
L96.2902 95.8596
" />
</g><text x="82.6088" y="83.0664"
textLength="1.9643" font-size="1.3333" lengthAdjust="spacingAndGlyphs"
text-anchor="middle" opacity="0" stroke-opacity="0">J3</text>
<g class="stroked-text"><desc>J3</desc>
<path d="M82.2755 82.0212
L82.2755 82.7355
" />
<path d="M82.2755 82.7355
L82.2278 82.8784
" />
<path d="M82.2278 82.8784
L82.1326 82.9736
" />
<path d="M82.1326 82.9736
L81.9898 83.0212
" />
<path d="M81.9898 83.0212
L81.8945 83.0212
" />
<path d="M82.6564 82.0212
L83.2755 82.0212
" />
<path d="M83.2755 82.0212
L82.9421 82.4022
" />
<path d="M82.9421 82.4022
L83.0850 82.4022
" />
<path d="M83.0850 82.4022
L83.1802 82.4498
" />
<path d="M83.1802 82.4498
L83.2278 82.4974
" />
<path d="M83.2278 82.4974
L83.2755 82.5926
" />
<path d="M83.2755 82.5926
L83.2755 82.8307
" />
<path d="M83.2755 82.8307
L83.2278 82.9260
" />
<path d="M83.2278 82.9260
L83.1802 82.9736
" />
<path d="M83.1802 82.9736
L83.0850 83.0212
" />
<path d="M83.0850 83.0212
L82.7993 83.0212
" />
<path d="M82.7993 83.0212
L82.7040 82.9736
" />
<path d="M82.7040 82.9736
L82.6564 82.9260
" />
</g><text x="113.5170" y="83.1402"
textLength="1.9643" font-size="1.3333" lengthAdjust="spacingAndGlyphs"
text-anchor="middle" opacity="0" stroke-opacity="0">J1</text>
<g class="stroked-text"><desc>J1</desc>
<path d="M113.1837 82.0950
L113.1837 82.8093
" />
<path d="M113.1837 82.8093
L113.1360 82.9522
" />
<path d="M113.1360 82.9522
L113.0408 83.0474
" />
<path d="M113.0408 83.0474
L112.8980 83.0950
" />
<path d="M112.8980 83.0950
L112.8027 83.0950
" />
<path d="M114.1837 83.0950
L113.6122 83.0950
" />
<path d="M113.8980 83.0950
L113.8980 82.0950
" />
<path d="M113.8980 82.0950
L113.8027 82.2379
" />
<path d="M113.8027 82.2379
L113.7075 82.3331
" />
<path d="M113.7075 82.3331
L113.6122 82.3807
" />
</g></g>
<g style="fill:none; 
stroke:#000000; stroke-width:0.2000; stroke-opacity:1; 
stroke-linecap:round; stroke-linejoin:round;">
<path d="M92.8900 96.5850
L92.8900 103.9550
" />
<path d="M92.8900 103.9550
L93.4600 103.9550
" />
<path d="M93.4600 96.5850
L92.8900 96.5850
" />
<path d="M93.4600 97.0950
L93.4600 96.5850
" />
<path d="M93.4600 103.4450
L97.4600 103.4450
" />
<path d="M93.4600 103.9550
L93.4600 103.4450
" />
<path d="M96.8250 96.5850
L96.8250 97.0950
" />
<path d="M96.8250 97.0950
L93.4600 97.0950
" />
<path d="M97.4600 103.4450
L97.4600 104.4650
" />
<path d="M97.4600 104.4650
L100.0000 104.4650
" />
<path d="M100.0000 103.4450
L104.0000 103.4450
" />
<path d="M100.0000 104.4650
L100.0000 103.4450
" />
<path d="M100.6350 96.5850
L96.8250 96.5850
" />
<path d="M100.6350 97.0950
L100.6350 96.5850
" />
<path d="M104.0000 96.5850
L104.0000 97.0950
" />
<path d="M104.0000 97.0950
L100.6350 97.0950
" />
<path d="M104.0000 103.4450
L104.0000 103.9550
" />
<path d="M104.0000 103.9550
L104.5700 103.9550
" />
<path d="M104.5700 96.5850
L104.0000 96.5850
" />
<path d="M104.5700 103.9550
L104.5700 96.5850
" />
<circle cx="92.3400" cy="98.8900" r="0.1000" /> 
</g>
<g style="fill:none; 
stroke:#000000; stroke-width:0.1524; stroke-opacity:1; 
stroke-linecap:round; stroke-linejoin:round;">
<path d="M72.2202 76.8006
L72.2202 90.3134
" />
<path d="M72.2202 90.3134
L92.7688 90.3134
" />
<path d="M92.7688 76.8006
L72.2202 76.8006
" />
<path d="M92.7688 90.3134
L92.7688 76.8006
" />
</g>
<g style="fill:none; 
stroke:#000000; stroke-width:0.5080; stroke-opacity:1; 
stroke-linecap:round; stroke-linejoin:round;">
<path d="M71.9662 79.6200 A0.3810 0.3810 0.0 0 0 71.2042 79.6200" />
<path d="M71.2042 79.6200 A0.3810 0.3810 0.0 0 0 71.9662 79.6200" />
</g>
<g style="fill:none; 
stroke:#000000; stroke-width:0.1524; stroke-opacity:1; 
stroke-linecap:round; stroke-linejoin:round;">
<path d="M103.1284 76.8744
L103.1284 90.3872
" />
<path d="M103.1284 90.3872
L123.6770 90.3872
" />
<path d="M123.6770 76.8744
L103.1284 76.8744
" />
<path d="M123.6770 90.3872
L123.6770 76.8744
" />
</g>
<g style="fill:none; 
stroke:#000000; stroke-width:0.5080; stroke-opacity:1; 
stroke-linecap:round; stroke-linejoin:round;">
<path d="M102.8744 79.6938 A0.3810 0.3810 0.0 0 0 102.1124 79.6938" />
<path d="M102.1124 79.6938 A0.3810 0.3810 0.0 0 0 102.8744 79.6938" />
<path d="M72.6662 164.2800 A0.3810 0.3810 0.0 0 0 71.9042 164.2800" />
<path d="M71.9042 164.2800 A0.3810 0.3810 0.0 0 0 72.6662 164.2800" />
<path d="M99.0662 164.2800 A0.3810 0.3810 0.0 0 0 98.3042 164.2800" />
<path d="M98.3042 164.2800 A0.3810 0.3810 0.0 0 0 99.0662 164.2800" />
</g> 
</svg>
