<?xml version="1.0" standalone="no"?>
 <!DOCTYPE svg PUBLIC "-//W3C//DTD SVG 1.1//EN" 
 "http://www.w3.org/Graphics/SVG/1.1/DTD/svg11.dtd"> 
<svg
  xmlns:svg="http://www.w3.org/2000/svg"
  xmlns="http://www.w3.org/2000/svg"
  xmlns:xlink="http://www.w3.org/1999/xlink"
  version="1.1"
  width="297.0022mm" height="210.0072mm" viewBox="0.0000 0.0000 297.0022 210.0072">
<title>SVG Image created as SUM25-TopSolderMaskLayer.svg date 2025/06/25 15:42:16 </title>
  <desc>Image generated by PCBNEW </desc>
<g style="fill:#000000; fill-opacity:1.0000;stroke:#000000; stroke-opacity:1.0000;
stroke-linecap:round; stroke-linejoin:round;"
 transform="translate(0 0) scale(1 1)">
<path style="fill:#000000; fill-opacity:1.0000; stroke:none;fill-rule:evenodd;"
d="M 94.0530,98.2350
94.0608,98.1960
94.0829,98.1629
94.1160,98.1408
94.1550,98.1330
95.6850,98.1330
95.7240,98.1408
95.7571,98.1629
95.7792,98.1960
95.7870,98.2350
95.7870,99.7650
95.7792,99.8040
95.7571,99.8371
95.7240,99.8592
95.6850,99.8670
94.1550,99.8670
94.1160,99.8592
94.0829,99.8371
94.0608,99.8040
94.0530,99.7650
Z" /> 
</g>
<g style="fill:#000000; fill-opacity:1.0000; stroke:none;">
<circle cx="97.4600" cy="99.0000" r="0.8670" /> 
</g>
<g style="fill:#000000; fill-opacity:1.0000; stroke:none;">
<circle cx="100.0000" cy="99.0000" r="0.8670" /> 
</g>
<g style="fill:#000000; fill-opacity:1.0000; stroke:none;">
<circle cx="102.5400" cy="99.0000" r="0.8670" /> 
</g>
<g style="fill:#000000; fill-opacity:1.0000; stroke:none;">
<circle cx="94.9200" cy="101.5400" r="0.8670" /> 
</g>
<g style="fill:#000000; fill-opacity:1.0000; stroke:none;">
<circle cx="97.4600" cy="101.5400" r="0.8670" /> 
</g>
<g style="fill:#000000; fill-opacity:1.0000; stroke:none;">
<circle cx="100.0000" cy="101.5400" r="0.8670" /> 
</g>
<g style="fill:#000000; fill-opacity:1.0000; stroke:none;">
<circle cx="102.5400" cy="101.5400" r="0.8670" /> 
</g>
<g style="fill:#000000; fill-opacity:1.0000; stroke:none;">
<circle cx="91.3972" cy="87.6972" r="0.7751" /> 
</g>
<g style="fill:#000000; fill-opacity:1.0000; stroke:none;">
<circle cx="73.5918" cy="88.8148" r="0.7751" /> 
</g>
<g style="fill:#000000; fill-opacity:1.0000; stroke:none;">
<circle cx="91.3972" cy="84.4460" r="0.7751" /> 
</g>
<g style="fill:#000000; fill-opacity:1.0000; stroke:none;">
<circle cx="73.5918" cy="84.4460" r="0.7751" /> 
</g>
<g style="fill:#000000; fill-opacity:1.0000; stroke:none;">
<circle cx="90.5082" cy="82.4394" r="1.0291" /> 
</g>
<g style="fill:#000000; fill-opacity:1.0000; stroke:none;">
<circle cx="74.5062" cy="82.4394" r="1.0291" /> 
</g>
<g style="fill:#000000; fill-opacity:1.0000; stroke:none;">
<circle cx="91.3972" cy="80.4582" r="0.7751" /> 
</g>
<g style="fill:#000000; fill-opacity:1.0000; stroke:none;">
<circle cx="73.5918" cy="80.4582" r="0.7751" /> 
</g>
<g style="fill:#000000; fill-opacity:1.0000; stroke:none;">
<circle cx="91.3972" cy="78.4262" r="0.7751" /> 
</g>
<g style="fill:#000000; fill-opacity:1.0000; stroke:none;">
<circle cx="73.5918" cy="78.4262" r="0.7751" /> 
<path style="fill:#000000; fill-opacity:1.0000; stroke:none;fill-rule:evenodd;"
d="M 75.9925,80.4433
75.9869,80.4713
75.9711,80.4950
75.9474,80.5108
75.9194,80.5164
75.4806,80.5164
75.4526,80.5108
75.4289,80.4950
75.4131,80.4713
75.4075,80.4433
75.4075,78.5567
75.4131,78.5287
75.4289,78.5050
75.4526,78.4892
75.4806,78.4836
75.9194,78.4836
75.9474,78.4892
75.9711,78.5050
75.9869,78.5287
75.9925,78.5567
Z" /> 
<path style="fill:#000000; fill-opacity:1.0000; stroke:none;fill-rule:evenodd;"
d="M 76.7925,80.4433
76.7869,80.4713
76.7711,80.4950
76.7474,80.5108
76.7194,80.5164
76.2806,80.5164
76.2526,80.5108
76.2289,80.4950
76.2131,80.4713
76.2075,80.4433
76.2075,78.5567
76.2131,78.5287
76.2289,78.5050
76.2526,78.4892
76.2806,78.4836
76.7194,78.4836
76.7474,78.4892
76.7711,78.5050
76.7869,78.5287
76.7925,78.5567
Z" /> 
<path style="fill:#000000; fill-opacity:1.0000; stroke:none;fill-rule:evenodd;"
d="M 77.5925,80.4433
77.5869,80.4713
77.5711,80.4950
77.5474,80.5108
77.5194,80.5164
77.0806,80.5164
77.0526,80.5108
77.0289,80.4950
77.0131,80.4713
77.0075,80.4433
77.0075,78.5567
77.0131,78.5287
77.0289,78.5050
77.0526,78.4892
77.0806,78.4836
77.5194,78.4836
77.5474,78.4892
77.5711,78.5050
77.5869,78.5287
77.5925,78.5567
Z" /> 
<path style="fill:#000000; fill-opacity:1.0000; stroke:none;fill-rule:evenodd;"
d="M 78.3925,80.4433
78.3869,80.4713
78.3711,80.4950
78.3474,80.5108
78.3194,80.5164
77.8806,80.5164
77.8526,80.5108
77.8289,80.4950
77.8131,80.4713
77.8075,80.4433
77.8075,78.5567
77.8131,78.5287
77.8289,78.5050
77.8526,78.4892
77.8806,78.4836
78.3194,78.4836
78.3474,78.4892
78.3711,78.5050
78.3869,78.5287
78.3925,78.5567
Z" /> 
<path style="fill:#000000; fill-opacity:1.0000; stroke:none;fill-rule:evenodd;"
d="M 79.1925,80.4433
79.1869,80.4713
79.1711,80.4950
79.1474,80.5108
79.1194,80.5164
78.6806,80.5164
78.6526,80.5108
78.6289,80.4950
78.6131,80.4713
78.6075,80.4433
78.6075,78.5567
78.6131,78.5287
78.6289,78.5050
78.6526,78.4892
78.6806,78.4836
79.1194,78.4836
79.1474,78.4892
79.1711,78.5050
79.1869,78.5287
79.1925,78.5567
Z" /> 
<path style="fill:#000000; fill-opacity:1.0000; stroke:none;fill-rule:evenodd;"
d="M 79.9925,80.4433
79.9869,80.4713
79.9711,80.4950
79.9474,80.5108
79.9194,80.5164
79.4806,80.5164
79.4526,80.5108
79.4289,80.4950
79.4131,80.4713
79.4075,80.4433
79.4075,78.5567
79.4131,78.5287
79.4289,78.5050
79.4526,78.4892
79.4806,78.4836
79.9194,78.4836
79.9474,78.4892
79.9711,78.5050
79.9869,78.5287
79.9925,78.5567
Z" /> 
<path style="fill:#000000; fill-opacity:1.0000; stroke:none;fill-rule:evenodd;"
d="M 80.7925,80.4433
80.7869,80.4713
80.7711,80.4950
80.7474,80.5108
80.7194,80.5164
80.2806,80.5164
80.2526,80.5108
80.2289,80.4950
80.2131,80.4713
80.2075,80.4433
80.2075,78.5567
80.2131,78.5287
80.2289,78.5050
80.2526,78.4892
80.2806,78.4836
80.7194,78.4836
80.7474,78.4892
80.7711,78.5050
80.7869,78.5287
80.7925,78.5567
Z" /> 
<path style="fill:#000000; fill-opacity:1.0000; stroke:none;fill-rule:evenodd;"
d="M 81.5925,80.4433
81.5869,80.4713
81.5711,80.4950
81.5474,80.5108
81.5194,80.5164
81.0806,80.5164
81.0526,80.5108
81.0289,80.4950
81.0131,80.4713
81.0075,80.4433
81.0075,78.5567
81.0131,78.5287
81.0289,78.5050
81.0526,78.4892
81.0806,78.4836
81.5194,78.4836
81.5474,78.4892
81.5711,78.5050
81.5869,78.5287
81.5925,78.5567
Z" /> 
<path style="fill:#000000; fill-opacity:1.0000; stroke:none;fill-rule:evenodd;"
d="M 82.3925,80.4433
82.3869,80.4713
82.3711,80.4950
82.3474,80.5108
82.3194,80.5164
81.8806,80.5164
81.8526,80.5108
81.8289,80.4950
81.8131,80.4713
81.8075,80.4433
81.8075,78.5567
81.8131,78.5287
81.8289,78.5050
81.8526,78.4892
81.8806,78.4836
82.3194,78.4836
82.3474,78.4892
82.3711,78.5050
82.3869,78.5287
82.3925,78.5567
Z" /> 
<path style="fill:#000000; fill-opacity:1.0000; stroke:none;fill-rule:evenodd;"
d="M 83.1925,80.4433
83.1869,80.4713
83.1711,80.4950
83.1474,80.5108
83.1194,80.5164
82.6806,80.5164
82.6526,80.5108
82.6289,80.4950
82.6131,80.4713
82.6075,80.4433
82.6075,78.5567
82.6131,78.5287
82.6289,78.5050
82.6526,78.4892
82.6806,78.4836
83.1194,78.4836
83.1474,78.4892
83.1711,78.5050
83.1869,78.5287
83.1925,78.5567
Z" /> 
<path style="fill:#000000; fill-opacity:1.0000; stroke:none;fill-rule:evenodd;"
d="M 83.9925,80.4433
83.9869,80.4713
83.9711,80.4950
83.9474,80.5108
83.9194,80.5164
83.4806,80.5164
83.4526,80.5108
83.4289,80.4950
83.4131,80.4713
83.4075,80.4433
83.4075,78.5567
83.4131,78.5287
83.4289,78.5050
83.4526,78.4892
83.4806,78.4836
83.9194,78.4836
83.9474,78.4892
83.9711,78.5050
83.9869,78.5287
83.9925,78.5567
Z" /> 
<path style="fill:#000000; fill-opacity:1.0000; stroke:none;fill-rule:evenodd;"
d="M 84.7925,80.4433
84.7869,80.4713
84.7711,80.4950
84.7474,80.5108
84.7194,80.5164
84.2806,80.5164
84.2526,80.5108
84.2289,80.4950
84.2131,80.4713
84.2075,80.4433
84.2075,78.5567
84.2131,78.5287
84.2289,78.5050
84.2526,78.4892
84.2806,78.4836
84.7194,78.4836
84.7474,78.4892
84.7711,78.5050
84.7869,78.5287
84.7925,78.5567
Z" /> 
<path style="fill:#000000; fill-opacity:1.0000; stroke:none;fill-rule:evenodd;"
d="M 85.5925,80.4433
85.5869,80.4713
85.5711,80.4950
85.5474,80.5108
85.5194,80.5164
85.0806,80.5164
85.0526,80.5108
85.0289,80.4950
85.0131,80.4713
85.0075,80.4433
85.0075,78.5567
85.0131,78.5287
85.0289,78.5050
85.0526,78.4892
85.0806,78.4836
85.5194,78.4836
85.5474,78.4892
85.5711,78.5050
85.5869,78.5287
85.5925,78.5567
Z" /> 
<path style="fill:#000000; fill-opacity:1.0000; stroke:none;fill-rule:evenodd;"
d="M 86.3925,80.4433
86.3869,80.4713
86.3711,80.4950
86.3474,80.5108
86.3194,80.5164
85.8806,80.5164
85.8526,80.5108
85.8289,80.4950
85.8131,80.4713
85.8075,80.4433
85.8075,78.5567
85.8131,78.5287
85.8289,78.5050
85.8526,78.4892
85.8806,78.4836
86.3194,78.4836
86.3474,78.4892
86.3711,78.5050
86.3869,78.5287
86.3925,78.5567
Z" /> 
<path style="fill:#000000; fill-opacity:1.0000; stroke:none;fill-rule:evenodd;"
d="M 87.1925,80.4433
87.1869,80.4713
87.1711,80.4950
87.1474,80.5108
87.1194,80.5164
86.6806,80.5164
86.6526,80.5108
86.6289,80.4950
86.6131,80.4713
86.6075,80.4433
86.6075,78.5567
86.6131,78.5287
86.6289,78.5050
86.6526,78.4892
86.6806,78.4836
87.1194,78.4836
87.1474,78.4892
87.1711,78.5050
87.1869,78.5287
87.1925,78.5567
Z" /> 
<path style="fill:#000000; fill-opacity:1.0000; stroke:none;fill-rule:evenodd;"
d="M 87.9925,80.4433
87.9869,80.4713
87.9711,80.4950
87.9474,80.5108
87.9194,80.5164
87.4806,80.5164
87.4526,80.5108
87.4289,80.4950
87.4131,80.4713
87.4075,80.4433
87.4075,78.5567
87.4131,78.5287
87.4289,78.5050
87.4526,78.4892
87.4806,78.4836
87.9194,78.4836
87.9474,78.4892
87.9711,78.5050
87.9869,78.5287
87.9925,78.5567
Z" /> 
<path style="fill:#000000; fill-opacity:1.0000; stroke:none;fill-rule:evenodd;"
d="M 88.7925,80.4433
88.7869,80.4713
88.7711,80.4950
88.7474,80.5108
88.7194,80.5164
88.2806,80.5164
88.2526,80.5108
88.2289,80.4950
88.2131,80.4713
88.2075,80.4433
88.2075,78.5567
88.2131,78.5287
88.2289,78.5050
88.2526,78.4892
88.2806,78.4836
88.7194,78.4836
88.7474,78.4892
88.7711,78.5050
88.7869,78.5287
88.7925,78.5567
Z" /> 
<path style="fill:#000000; fill-opacity:1.0000; stroke:none;fill-rule:evenodd;"
d="M 89.5925,80.4433
89.5869,80.4713
89.5711,80.4950
89.5474,80.5108
89.5194,80.5164
89.0806,80.5164
89.0526,80.5108
89.0289,80.4950
89.0131,80.4713
89.0075,80.4433
89.0075,78.5567
89.0131,78.5287
89.0289,78.5050
89.0526,78.4892
89.0806,78.4836
89.5194,78.4836
89.5474,78.4892
89.5711,78.5050
89.5869,78.5287
89.5925,78.5567
Z" /> 
<path style="fill:#000000; fill-opacity:1.0000; stroke:none;fill-rule:evenodd;"
d="M 75.9925,86.3433
75.9869,86.3713
75.9711,86.3950
75.9474,86.4108
75.9194,86.4164
75.4806,86.4164
75.4526,86.4108
75.4289,86.3950
75.4131,86.3713
75.4075,86.3433
75.4075,84.4567
75.4131,84.4287
75.4289,84.4050
75.4526,84.3892
75.4806,84.3836
75.9194,84.3836
75.9474,84.3892
75.9711,84.4050
75.9869,84.4287
75.9925,84.4567
Z" /> 
<path style="fill:#000000; fill-opacity:1.0000; stroke:none;fill-rule:evenodd;"
d="M 76.7925,86.3433
76.7869,86.3713
76.7711,86.3950
76.7474,86.4108
76.7194,86.4164
76.2806,86.4164
76.2526,86.4108
76.2289,86.3950
76.2131,86.3713
76.2075,86.3433
76.2075,84.4567
76.2131,84.4287
76.2289,84.4050
76.2526,84.3892
76.2806,84.3836
76.7194,84.3836
76.7474,84.3892
76.7711,84.4050
76.7869,84.4287
76.7925,84.4567
Z" /> 
<path style="fill:#000000; fill-opacity:1.0000; stroke:none;fill-rule:evenodd;"
d="M 77.5925,86.3433
77.5869,86.3713
77.5711,86.3950
77.5474,86.4108
77.5194,86.4164
77.0806,86.4164
77.0526,86.4108
77.0289,86.3950
77.0131,86.3713
77.0075,86.3433
77.0075,84.4567
77.0131,84.4287
77.0289,84.4050
77.0526,84.3892
77.0806,84.3836
77.5194,84.3836
77.5474,84.3892
77.5711,84.4050
77.5869,84.4287
77.5925,84.4567
Z" /> 
<path style="fill:#000000; fill-opacity:1.0000; stroke:none;fill-rule:evenodd;"
d="M 78.3925,86.3433
78.3869,86.3713
78.3711,86.3950
78.3474,86.4108
78.3194,86.4164
77.8806,86.4164
77.8526,86.4108
77.8289,86.3950
77.8131,86.3713
77.8075,86.3433
77.8075,84.4567
77.8131,84.4287
77.8289,84.4050
77.8526,84.3892
77.8806,84.3836
78.3194,84.3836
78.3474,84.3892
78.3711,84.4050
78.3869,84.4287
78.3925,84.4567
Z" /> 
<path style="fill:#000000; fill-opacity:1.0000; stroke:none;fill-rule:evenodd;"
d="M 79.1925,86.3433
79.1869,86.3713
79.1711,86.3950
79.1474,86.4108
79.1194,86.4164
78.6806,86.4164
78.6526,86.4108
78.6289,86.3950
78.6131,86.3713
78.6075,86.3433
78.6075,84.4567
78.6131,84.4287
78.6289,84.4050
78.6526,84.3892
78.6806,84.3836
79.1194,84.3836
79.1474,84.3892
79.1711,84.4050
79.1869,84.4287
79.1925,84.4567
Z" /> 
<path style="fill:#000000; fill-opacity:1.0000; stroke:none;fill-rule:evenodd;"
d="M 79.9925,86.3433
79.9869,86.3713
79.9711,86.3950
79.9474,86.4108
79.9194,86.4164
79.4806,86.4164
79.4526,86.4108
79.4289,86.3950
79.4131,86.3713
79.4075,86.3433
79.4075,84.4567
79.4131,84.4287
79.4289,84.4050
79.4526,84.3892
79.4806,84.3836
79.9194,84.3836
79.9474,84.3892
79.9711,84.4050
79.9869,84.4287
79.9925,84.4567
Z" /> 
<path style="fill:#000000; fill-opacity:1.0000; stroke:none;fill-rule:evenodd;"
d="M 80.7925,86.3433
80.7869,86.3713
80.7711,86.3950
80.7474,86.4108
80.7194,86.4164
80.2806,86.4164
80.2526,86.4108
80.2289,86.3950
80.2131,86.3713
80.2075,86.3433
80.2075,84.4567
80.2131,84.4287
80.2289,84.4050
80.2526,84.3892
80.2806,84.3836
80.7194,84.3836
80.7474,84.3892
80.7711,84.4050
80.7869,84.4287
80.7925,84.4567
Z" /> 
<path style="fill:#000000; fill-opacity:1.0000; stroke:none;fill-rule:evenodd;"
d="M 81.5925,86.3433
81.5869,86.3713
81.5711,86.3950
81.5474,86.4108
81.5194,86.4164
81.0806,86.4164
81.0526,86.4108
81.0289,86.3950
81.0131,86.3713
81.0075,86.3433
81.0075,84.4567
81.0131,84.4287
81.0289,84.4050
81.0526,84.3892
81.0806,84.3836
81.5194,84.3836
81.5474,84.3892
81.5711,84.4050
81.5869,84.4287
81.5925,84.4567
Z" /> 
<path style="fill:#000000; fill-opacity:1.0000; stroke:none;fill-rule:evenodd;"
d="M 82.3925,86.3433
82.3869,86.3713
82.3711,86.3950
82.3474,86.4108
82.3194,86.4164
81.8806,86.4164
81.8526,86.4108
81.8289,86.3950
81.8131,86.3713
81.8075,86.3433
81.8075,84.4567
81.8131,84.4287
81.8289,84.4050
81.8526,84.3892
81.8806,84.3836
82.3194,84.3836
82.3474,84.3892
82.3711,84.4050
82.3869,84.4287
82.3925,84.4567
Z" /> 
<path style="fill:#000000; fill-opacity:1.0000; stroke:none;fill-rule:evenodd;"
d="M 83.1925,86.3433
83.1869,86.3713
83.1711,86.3950
83.1474,86.4108
83.1194,86.4164
82.6806,86.4164
82.6526,86.4108
82.6289,86.3950
82.6131,86.3713
82.6075,86.3433
82.6075,84.4567
82.6131,84.4287
82.6289,84.4050
82.6526,84.3892
82.6806,84.3836
83.1194,84.3836
83.1474,84.3892
83.1711,84.4050
83.1869,84.4287
83.1925,84.4567
Z" /> 
<path style="fill:#000000; fill-opacity:1.0000; stroke:none;fill-rule:evenodd;"
d="M 83.9925,86.3433
83.9869,86.3713
83.9711,86.3950
83.9474,86.4108
83.9194,86.4164
83.4806,86.4164
83.4526,86.4108
83.4289,86.3950
83.4131,86.3713
83.4075,86.3433
83.4075,84.4567
83.4131,84.4287
83.4289,84.4050
83.4526,84.3892
83.4806,84.3836
83.9194,84.3836
83.9474,84.3892
83.9711,84.4050
83.9869,84.4287
83.9925,84.4567
Z" /> 
<path style="fill:#000000; fill-opacity:1.0000; stroke:none;fill-rule:evenodd;"
d="M 84.7925,86.3433
84.7869,86.3713
84.7711,86.3950
84.7474,86.4108
84.7194,86.4164
84.2806,86.4164
84.2526,86.4108
84.2289,86.3950
84.2131,86.3713
84.2075,86.3433
84.2075,84.4567
84.2131,84.4287
84.2289,84.4050
84.2526,84.3892
84.2806,84.3836
84.7194,84.3836
84.7474,84.3892
84.7711,84.4050
84.7869,84.4287
84.7925,84.4567
Z" /> 
<path style="fill:#000000; fill-opacity:1.0000; stroke:none;fill-rule:evenodd;"
d="M 85.5925,86.3433
85.5869,86.3713
85.5711,86.3950
85.5474,86.4108
85.5194,86.4164
85.0806,86.4164
85.0526,86.4108
85.0289,86.3950
85.0131,86.3713
85.0075,86.3433
85.0075,84.4567
85.0131,84.4287
85.0289,84.4050
85.0526,84.3892
85.0806,84.3836
85.5194,84.3836
85.5474,84.3892
85.5711,84.4050
85.5869,84.4287
85.5925,84.4567
Z" /> 
<path style="fill:#000000; fill-opacity:1.0000; stroke:none;fill-rule:evenodd;"
d="M 86.3925,86.3433
86.3869,86.3713
86.3711,86.3950
86.3474,86.4108
86.3194,86.4164
85.8806,86.4164
85.8526,86.4108
85.8289,86.3950
85.8131,86.3713
85.8075,86.3433
85.8075,84.4567
85.8131,84.4287
85.8289,84.4050
85.8526,84.3892
85.8806,84.3836
86.3194,84.3836
86.3474,84.3892
86.3711,84.4050
86.3869,84.4287
86.3925,84.4567
Z" /> 
<path style="fill:#000000; fill-opacity:1.0000; stroke:none;fill-rule:evenodd;"
d="M 87.1925,86.3433
87.1869,86.3713
87.1711,86.3950
87.1474,86.4108
87.1194,86.4164
86.6806,86.4164
86.6526,86.4108
86.6289,86.3950
86.6131,86.3713
86.6075,86.3433
86.6075,84.4567
86.6131,84.4287
86.6289,84.4050
86.6526,84.3892
86.6806,84.3836
87.1194,84.3836
87.1474,84.3892
87.1711,84.4050
87.1869,84.4287
87.1925,84.4567
Z" /> 
<path style="fill:#000000; fill-opacity:1.0000; stroke:none;fill-rule:evenodd;"
d="M 87.9925,86.3433
87.9869,86.3713
87.9711,86.3950
87.9474,86.4108
87.9194,86.4164
87.4806,86.4164
87.4526,86.4108
87.4289,86.3950
87.4131,86.3713
87.4075,86.3433
87.4075,84.4567
87.4131,84.4287
87.4289,84.4050
87.4526,84.3892
87.4806,84.3836
87.9194,84.3836
87.9474,84.3892
87.9711,84.4050
87.9869,84.4287
87.9925,84.4567
Z" /> 
<path style="fill:#000000; fill-opacity:1.0000; stroke:none;fill-rule:evenodd;"
d="M 88.7925,86.3433
88.7869,86.3713
88.7711,86.3950
88.7474,86.4108
88.7194,86.4164
88.2806,86.4164
88.2526,86.4108
88.2289,86.3950
88.2131,86.3713
88.2075,86.3433
88.2075,84.4567
88.2131,84.4287
88.2289,84.4050
88.2526,84.3892
88.2806,84.3836
88.7194,84.3836
88.7474,84.3892
88.7711,84.4050
88.7869,84.4287
88.7925,84.4567
Z" /> 
<path style="fill:#000000; fill-opacity:1.0000; stroke:none;fill-rule:evenodd;"
d="M 89.5925,86.3433
89.5869,86.3713
89.5711,86.3950
89.5474,86.4108
89.5194,86.4164
89.0806,86.4164
89.0526,86.4108
89.0289,86.3950
89.0131,86.3713
89.0075,86.3433
89.0075,84.4567
89.0131,84.4287
89.0289,84.4050
89.0526,84.3892
89.0806,84.3836
89.5194,84.3836
89.5474,84.3892
89.5711,84.4050
89.5869,84.4287
89.5925,84.4567
Z" /> 
</g>
<g style="fill:#000000; fill-opacity:1.0000; stroke:none;">
<circle cx="122.3054" cy="87.7710" r="0.7751" /> 
</g>
<g style="fill:#000000; fill-opacity:1.0000; stroke:none;">
<circle cx="104.5000" cy="88.8886" r="0.7751" /> 
</g>
<g style="fill:#000000; fill-opacity:1.0000; stroke:none;">
<circle cx="122.3054" cy="84.5198" r="0.7751" /> 
</g>
<g style="fill:#000000; fill-opacity:1.0000; stroke:none;">
<circle cx="104.5000" cy="84.5198" r="0.7751" /> 
</g>
<g style="fill:#000000; fill-opacity:1.0000; stroke:none;">
<circle cx="121.4164" cy="82.5132" r="1.0291" /> 
</g>
<g style="fill:#000000; fill-opacity:1.0000; stroke:none;">
<circle cx="105.4144" cy="82.5132" r="1.0291" /> 
</g>
<g style="fill:#000000; fill-opacity:1.0000; stroke:none;">
<circle cx="122.3054" cy="80.5320" r="0.7751" /> 
</g>
<g style="fill:#000000; fill-opacity:1.0000; stroke:none;">
<circle cx="104.5000" cy="80.5320" r="0.7751" /> 
</g>
<g style="fill:#000000; fill-opacity:1.0000; stroke:none;">
<circle cx="122.3054" cy="78.5000" r="0.7751" /> 
</g>
<g style="fill:#000000; fill-opacity:1.0000; stroke:none;">
<circle cx="104.5000" cy="78.5000" r="0.7751" /> 
<path style="fill:#000000; fill-opacity:1.0000; stroke:none;fill-rule:evenodd;"
d="M 106.9007,80.5171
106.8951,80.5451
106.8793,80.5688
106.8556,80.5846
106.8276,80.5902
106.3888,80.5902
106.3608,80.5846
106.3371,80.5688
106.3213,80.5451
106.3157,80.5171
106.3157,78.6305
106.3213,78.6025
106.3371,78.5788
106.3608,78.5630
106.3888,78.5574
106.8276,78.5574
106.8556,78.5630
106.8793,78.5788
106.8951,78.6025
106.9007,78.6305
Z" /> 
<path style="fill:#000000; fill-opacity:1.0000; stroke:none;fill-rule:evenodd;"
d="M 107.7007,80.5171
107.6951,80.5451
107.6793,80.5688
107.6556,80.5846
107.6276,80.5902
107.1888,80.5902
107.1608,80.5846
107.1371,80.5688
107.1213,80.5451
107.1157,80.5171
107.1157,78.6305
107.1213,78.6025
107.1371,78.5788
107.1608,78.5630
107.1888,78.5574
107.6276,78.5574
107.6556,78.5630
107.6793,78.5788
107.6951,78.6025
107.7007,78.6305
Z" /> 
<path style="fill:#000000; fill-opacity:1.0000; stroke:none;fill-rule:evenodd;"
d="M 108.5007,80.5171
108.4951,80.5451
108.4793,80.5688
108.4556,80.5846
108.4276,80.5902
107.9888,80.5902
107.9608,80.5846
107.9371,80.5688
107.9213,80.5451
107.9157,80.5171
107.9157,78.6305
107.9213,78.6025
107.9371,78.5788
107.9608,78.5630
107.9888,78.5574
108.4276,78.5574
108.4556,78.5630
108.4793,78.5788
108.4951,78.6025
108.5007,78.6305
Z" /> 
<path style="fill:#000000; fill-opacity:1.0000; stroke:none;fill-rule:evenodd;"
d="M 109.3007,80.5171
109.2951,80.5451
109.2793,80.5688
109.2556,80.5846
109.2276,80.5902
108.7888,80.5902
108.7608,80.5846
108.7371,80.5688
108.7213,80.5451
108.7157,80.5171
108.7157,78.6305
108.7213,78.6025
108.7371,78.5788
108.7608,78.5630
108.7888,78.5574
109.2276,78.5574
109.2556,78.5630
109.2793,78.5788
109.2951,78.6025
109.3007,78.6305
Z" /> 
<path style="fill:#000000; fill-opacity:1.0000; stroke:none;fill-rule:evenodd;"
d="M 110.1007,80.5171
110.0951,80.5451
110.0793,80.5688
110.0556,80.5846
110.0276,80.5902
109.5888,80.5902
109.5608,80.5846
109.5371,80.5688
109.5213,80.5451
109.5157,80.5171
109.5157,78.6305
109.5213,78.6025
109.5371,78.5788
109.5608,78.5630
109.5888,78.5574
110.0276,78.5574
110.0556,78.5630
110.0793,78.5788
110.0951,78.6025
110.1007,78.6305
Z" /> 
<path style="fill:#000000; fill-opacity:1.0000; stroke:none;fill-rule:evenodd;"
d="M 110.9007,80.5171
110.8951,80.5451
110.8793,80.5688
110.8556,80.5846
110.8276,80.5902
110.3888,80.5902
110.3608,80.5846
110.3371,80.5688
110.3213,80.5451
110.3157,80.5171
110.3157,78.6305
110.3213,78.6025
110.3371,78.5788
110.3608,78.5630
110.3888,78.5574
110.8276,78.5574
110.8556,78.5630
110.8793,78.5788
110.8951,78.6025
110.9007,78.6305
Z" /> 
<path style="fill:#000000; fill-opacity:1.0000; stroke:none;fill-rule:evenodd;"
d="M 111.7007,80.5171
111.6951,80.5451
111.6793,80.5688
111.6556,80.5846
111.6276,80.5902
111.1888,80.5902
111.1608,80.5846
111.1371,80.5688
111.1213,80.5451
111.1157,80.5171
111.1157,78.6305
111.1213,78.6025
111.1371,78.5788
111.1608,78.5630
111.1888,78.5574
111.6276,78.5574
111.6556,78.5630
111.6793,78.5788
111.6951,78.6025
111.7007,78.6305
Z" /> 
<path style="fill:#000000; fill-opacity:1.0000; stroke:none;fill-rule:evenodd;"
d="M 112.5007,80.5171
112.4951,80.5451
112.4793,80.5688
112.4556,80.5846
112.4276,80.5902
111.9888,80.5902
111.9608,80.5846
111.9371,80.5688
111.9213,80.5451
111.9157,80.5171
111.9157,78.6305
111.9213,78.6025
111.9371,78.5788
111.9608,78.5630
111.9888,78.5574
112.4276,78.5574
112.4556,78.5630
112.4793,78.5788
112.4951,78.6025
112.5007,78.6305
Z" /> 
<path style="fill:#000000; fill-opacity:1.0000; stroke:none;fill-rule:evenodd;"
d="M 113.3007,80.5171
113.2951,80.5451
113.2793,80.5688
113.2556,80.5846
113.2276,80.5902
112.7888,80.5902
112.7608,80.5846
112.7371,80.5688
112.7213,80.5451
112.7157,80.5171
112.7157,78.6305
112.7213,78.6025
112.7371,78.5788
112.7608,78.5630
112.7888,78.5574
113.2276,78.5574
113.2556,78.5630
113.2793,78.5788
113.2951,78.6025
113.3007,78.6305
Z" /> 
<path style="fill:#000000; fill-opacity:1.0000; stroke:none;fill-rule:evenodd;"
d="M 114.1007,80.5171
114.0951,80.5451
114.0793,80.5688
114.0556,80.5846
114.0276,80.5902
113.5888,80.5902
113.5608,80.5846
113.5371,80.5688
113.5213,80.5451
113.5157,80.5171
113.5157,78.6305
113.5213,78.6025
113.5371,78.5788
113.5608,78.5630
113.5888,78.5574
114.0276,78.5574
114.0556,78.5630
114.0793,78.5788
114.0951,78.6025
114.1007,78.6305
Z" /> 
<path style="fill:#000000; fill-opacity:1.0000; stroke:none;fill-rule:evenodd;"
d="M 114.9007,80.5171
114.8951,80.5451
114.8793,80.5688
114.8556,80.5846
114.8276,80.5902
114.3888,80.5902
114.3608,80.5846
114.3371,80.5688
114.3213,80.5451
114.3157,80.5171
114.3157,78.6305
114.3213,78.6025
114.3371,78.5788
114.3608,78.5630
114.3888,78.5574
114.8276,78.5574
114.8556,78.5630
114.8793,78.5788
114.8951,78.6025
114.9007,78.6305
Z" /> 
<path style="fill:#000000; fill-opacity:1.0000; stroke:none;fill-rule:evenodd;"
d="M 115.7007,80.5171
115.6951,80.5451
115.6793,80.5688
115.6556,80.5846
115.6276,80.5902
115.1888,80.5902
115.1608,80.5846
115.1371,80.5688
115.1213,80.5451
115.1157,80.5171
115.1157,78.6305
115.1213,78.6025
115.1371,78.5788
115.1608,78.5630
115.1888,78.5574
115.6276,78.5574
115.6556,78.5630
115.6793,78.5788
115.6951,78.6025
115.7007,78.6305
Z" /> 
<path style="fill:#000000; fill-opacity:1.0000; stroke:none;fill-rule:evenodd;"
d="M 116.5007,80.5171
116.4951,80.5451
116.4793,80.5688
116.4556,80.5846
116.4276,80.5902
115.9888,80.5902
115.9608,80.5846
115.9371,80.5688
115.9213,80.5451
115.9157,80.5171
115.9157,78.6305
115.9213,78.6025
115.9371,78.5788
115.9608,78.5630
115.9888,78.5574
116.4276,78.5574
116.4556,78.5630
116.4793,78.5788
116.4951,78.6025
116.5007,78.6305
Z" /> 
<path style="fill:#000000; fill-opacity:1.0000; stroke:none;fill-rule:evenodd;"
d="M 117.3007,80.5171
117.2951,80.5451
117.2793,80.5688
117.2556,80.5846
117.2276,80.5902
116.7888,80.5902
116.7608,80.5846
116.7371,80.5688
116.7213,80.5451
116.7157,80.5171
116.7157,78.6305
116.7213,78.6025
116.7371,78.5788
116.7608,78.5630
116.7888,78.5574
117.2276,78.5574
117.2556,78.5630
117.2793,78.5788
117.2951,78.6025
117.3007,78.6305
Z" /> 
<path style="fill:#000000; fill-opacity:1.0000; stroke:none;fill-rule:evenodd;"
d="M 118.1007,80.5171
118.0951,80.5451
118.0793,80.5688
118.0556,80.5846
118.0276,80.5902
117.5888,80.5902
117.5608,80.5846
117.5371,80.5688
117.5213,80.5451
117.5157,80.5171
117.5157,78.6305
117.5213,78.6025
117.5371,78.5788
117.5608,78.5630
117.5888,78.5574
118.0276,78.5574
118.0556,78.5630
118.0793,78.5788
118.0951,78.6025
118.1007,78.6305
Z" /> 
<path style="fill:#000000; fill-opacity:1.0000; stroke:none;fill-rule:evenodd;"
d="M 118.9007,80.5171
118.8951,80.5451
118.8793,80.5688
118.8556,80.5846
118.8276,80.5902
118.3888,80.5902
118.3608,80.5846
118.3371,80.5688
118.3213,80.5451
118.3157,80.5171
118.3157,78.6305
118.3213,78.6025
118.3371,78.5788
118.3608,78.5630
118.3888,78.5574
118.8276,78.5574
118.8556,78.5630
118.8793,78.5788
118.8951,78.6025
118.9007,78.6305
Z" /> 
<path style="fill:#000000; fill-opacity:1.0000; stroke:none;fill-rule:evenodd;"
d="M 119.7007,80.5171
119.6951,80.5451
119.6793,80.5688
119.6556,80.5846
119.6276,80.5902
119.1888,80.5902
119.1608,80.5846
119.1371,80.5688
119.1213,80.5451
119.1157,80.5171
119.1157,78.6305
119.1213,78.6025
119.1371,78.5788
119.1608,78.5630
119.1888,78.5574
119.6276,78.5574
119.6556,78.5630
119.6793,78.5788
119.6951,78.6025
119.7007,78.6305
Z" /> 
<path style="fill:#000000; fill-opacity:1.0000; stroke:none;fill-rule:evenodd;"
d="M 120.5007,80.5171
120.4951,80.5451
120.4793,80.5688
120.4556,80.5846
120.4276,80.5902
119.9888,80.5902
119.9608,80.5846
119.9371,80.5688
119.9213,80.5451
119.9157,80.5171
119.9157,78.6305
119.9213,78.6025
119.9371,78.5788
119.9608,78.5630
119.9888,78.5574
120.4276,78.5574
120.4556,78.5630
120.4793,78.5788
120.4951,78.6025
120.5007,78.6305
Z" /> 
<path style="fill:#000000; fill-opacity:1.0000; stroke:none;fill-rule:evenodd;"
d="M 106.9007,86.4171
106.8951,86.4451
106.8793,86.4688
106.8556,86.4846
106.8276,86.4902
106.3888,86.4902
106.3608,86.4846
106.3371,86.4688
106.3213,86.4451
106.3157,86.4171
106.3157,84.5305
106.3213,84.5025
106.3371,84.4788
106.3608,84.4630
106.3888,84.4574
106.8276,84.4574
106.8556,84.4630
106.8793,84.4788
106.8951,84.5025
106.9007,84.5305
Z" /> 
<path style="fill:#000000; fill-opacity:1.0000; stroke:none;fill-rule:evenodd;"
d="M 107.7007,86.4171
107.6951,86.4451
107.6793,86.4688
107.6556,86.4846
107.6276,86.4902
107.1888,86.4902
107.1608,86.4846
107.1371,86.4688
107.1213,86.4451
107.1157,86.4171
107.1157,84.5305
107.1213,84.5025
107.1371,84.4788
107.1608,84.4630
107.1888,84.4574
107.6276,84.4574
107.6556,84.4630
107.6793,84.4788
107.6951,84.5025
107.7007,84.5305
Z" /> 
<path style="fill:#000000; fill-opacity:1.0000; stroke:none;fill-rule:evenodd;"
d="M 108.5007,86.4171
108.4951,86.4451
108.4793,86.4688
108.4556,86.4846
108.4276,86.4902
107.9888,86.4902
107.9608,86.4846
107.9371,86.4688
107.9213,86.4451
107.9157,86.4171
107.9157,84.5305
107.9213,84.5025
107.9371,84.4788
107.9608,84.4630
107.9888,84.4574
108.4276,84.4574
108.4556,84.4630
108.4793,84.4788
108.4951,84.5025
108.5007,84.5305
Z" /> 
<path style="fill:#000000; fill-opacity:1.0000; stroke:none;fill-rule:evenodd;"
d="M 109.3007,86.4171
109.2951,86.4451
109.2793,86.4688
109.2556,86.4846
109.2276,86.4902
108.7888,86.4902
108.7608,86.4846
108.7371,86.4688
108.7213,86.4451
108.7157,86.4171
108.7157,84.5305
108.7213,84.5025
108.7371,84.4788
108.7608,84.4630
108.7888,84.4574
109.2276,84.4574
109.2556,84.4630
109.2793,84.4788
109.2951,84.5025
109.3007,84.5305
Z" /> 
<path style="fill:#000000; fill-opacity:1.0000; stroke:none;fill-rule:evenodd;"
d="M 110.1007,86.4171
110.0951,86.4451
110.0793,86.4688
110.0556,86.4846
110.0276,86.4902
109.5888,86.4902
109.5608,86.4846
109.5371,86.4688
109.5213,86.4451
109.5157,86.4171
109.5157,84.5305
109.5213,84.5025
109.5371,84.4788
109.5608,84.4630
109.5888,84.4574
110.0276,84.4574
110.0556,84.4630
110.0793,84.4788
110.0951,84.5025
110.1007,84.5305
Z" /> 
<path style="fill:#000000; fill-opacity:1.0000; stroke:none;fill-rule:evenodd;"
d="M 110.9007,86.4171
110.8951,86.4451
110.8793,86.4688
110.8556,86.4846
110.8276,86.4902
110.3888,86.4902
110.3608,86.4846
110.3371,86.4688
110.3213,86.4451
110.3157,86.4171
110.3157,84.5305
110.3213,84.5025
110.3371,84.4788
110.3608,84.4630
110.3888,84.4574
110.8276,84.4574
110.8556,84.4630
110.8793,84.4788
110.8951,84.5025
110.9007,84.5305
Z" /> 
<path style="fill:#000000; fill-opacity:1.0000; stroke:none;fill-rule:evenodd;"
d="M 111.7007,86.4171
111.6951,86.4451
111.6793,86.4688
111.6556,86.4846
111.6276,86.4902
111.1888,86.4902
111.1608,86.4846
111.1371,86.4688
111.1213,86.4451
111.1157,86.4171
111.1157,84.5305
111.1213,84.5025
111.1371,84.4788
111.1608,84.4630
111.1888,84.4574
111.6276,84.4574
111.6556,84.4630
111.6793,84.4788
111.6951,84.5025
111.7007,84.5305
Z" /> 
<path style="fill:#000000; fill-opacity:1.0000; stroke:none;fill-rule:evenodd;"
d="M 112.5007,86.4171
112.4951,86.4451
112.4793,86.4688
112.4556,86.4846
112.4276,86.4902
111.9888,86.4902
111.9608,86.4846
111.9371,86.4688
111.9213,86.4451
111.9157,86.4171
111.9157,84.5305
111.9213,84.5025
111.9371,84.4788
111.9608,84.4630
111.9888,84.4574
112.4276,84.4574
112.4556,84.4630
112.4793,84.4788
112.4951,84.5025
112.5007,84.5305
Z" /> 
<path style="fill:#000000; fill-opacity:1.0000; stroke:none;fill-rule:evenodd;"
d="M 113.3007,86.4171
113.2951,86.4451
113.2793,86.4688
113.2556,86.4846
113.2276,86.4902
112.7888,86.4902
112.7608,86.4846
112.7371,86.4688
112.7213,86.4451
112.7157,86.4171
112.7157,84.5305
112.7213,84.5025
112.7371,84.4788
112.7608,84.4630
112.7888,84.4574
113.2276,84.4574
113.2556,84.4630
113.2793,84.4788
113.2951,84.5025
113.3007,84.5305
Z" /> 
<path style="fill:#000000; fill-opacity:1.0000; stroke:none;fill-rule:evenodd;"
d="M 114.1007,86.4171
114.0951,86.4451
114.0793,86.4688
114.0556,86.4846
114.0276,86.4902
113.5888,86.4902
113.5608,86.4846
113.5371,86.4688
113.5213,86.4451
113.5157,86.4171
113.5157,84.5305
113.5213,84.5025
113.5371,84.4788
113.5608,84.4630
113.5888,84.4574
114.0276,84.4574
114.0556,84.4630
114.0793,84.4788
114.0951,84.5025
114.1007,84.5305
Z" /> 
<path style="fill:#000000; fill-opacity:1.0000; stroke:none;fill-rule:evenodd;"
d="M 114.9007,86.4171
114.8951,86.4451
114.8793,86.4688
114.8556,86.4846
114.8276,86.4902
114.3888,86.4902
114.3608,86.4846
114.3371,86.4688
114.3213,86.4451
114.3157,86.4171
114.3157,84.5305
114.3213,84.5025
114.3371,84.4788
114.3608,84.4630
114.3888,84.4574
114.8276,84.4574
114.8556,84.4630
114.8793,84.4788
114.8951,84.5025
114.9007,84.5305
Z" /> 
<path style="fill:#000000; fill-opacity:1.0000; stroke:none;fill-rule:evenodd;"
d="M 115.7007,86.4171
115.6951,86.4451
115.6793,86.4688
115.6556,86.4846
115.6276,86.4902
115.1888,86.4902
115.1608,86.4846
115.1371,86.4688
115.1213,86.4451
115.1157,86.4171
115.1157,84.5305
115.1213,84.5025
115.1371,84.4788
115.1608,84.4630
115.1888,84.4574
115.6276,84.4574
115.6556,84.4630
115.6793,84.4788
115.6951,84.5025
115.7007,84.5305
Z" /> 
<path style="fill:#000000; fill-opacity:1.0000; stroke:none;fill-rule:evenodd;"
d="M 116.5007,86.4171
116.4951,86.4451
116.4793,86.4688
116.4556,86.4846
116.4276,86.4902
115.9888,86.4902
115.9608,86.4846
115.9371,86.4688
115.9213,86.4451
115.9157,86.4171
115.9157,84.5305
115.9213,84.5025
115.9371,84.4788
115.9608,84.4630
115.9888,84.4574
116.4276,84.4574
116.4556,84.4630
116.4793,84.4788
116.4951,84.5025
116.5007,84.5305
Z" /> 
<path style="fill:#000000; fill-opacity:1.0000; stroke:none;fill-rule:evenodd;"
d="M 117.3007,86.4171
117.2951,86.4451
117.2793,86.4688
117.2556,86.4846
117.2276,86.4902
116.7888,86.4902
116.7608,86.4846
116.7371,86.4688
116.7213,86.4451
116.7157,86.4171
116.7157,84.5305
116.7213,84.5025
116.7371,84.4788
116.7608,84.4630
116.7888,84.4574
117.2276,84.4574
117.2556,84.4630
117.2793,84.4788
117.2951,84.5025
117.3007,84.5305
Z" /> 
<path style="fill:#000000; fill-opacity:1.0000; stroke:none;fill-rule:evenodd;"
d="M 118.1007,86.4171
118.0951,86.4451
118.0793,86.4688
118.0556,86.4846
118.0276,86.4902
117.5888,86.4902
117.5608,86.4846
117.5371,86.4688
117.5213,86.4451
117.5157,86.4171
117.5157,84.5305
117.5213,84.5025
117.5371,84.4788
117.5608,84.4630
117.5888,84.4574
118.0276,84.4574
118.0556,84.4630
118.0793,84.4788
118.0951,84.5025
118.1007,84.5305
Z" /> 
<path style="fill:#000000; fill-opacity:1.0000; stroke:none;fill-rule:evenodd;"
d="M 118.9007,86.4171
118.8951,86.4451
118.8793,86.4688
118.8556,86.4846
118.8276,86.4902
118.3888,86.4902
118.3608,86.4846
118.3371,86.4688
118.3213,86.4451
118.3157,86.4171
118.3157,84.5305
118.3213,84.5025
118.3371,84.4788
118.3608,84.4630
118.3888,84.4574
118.8276,84.4574
118.8556,84.4630
118.8793,84.4788
118.8951,84.5025
118.9007,84.5305
Z" /> 
<path style="fill:#000000; fill-opacity:1.0000; stroke:none;fill-rule:evenodd;"
d="M 119.7007,86.4171
119.6951,86.4451
119.6793,86.4688
119.6556,86.4846
119.6276,86.4902
119.1888,86.4902
119.1608,86.4846
119.1371,86.4688
119.1213,86.4451
119.1157,86.4171
119.1157,84.5305
119.1213,84.5025
119.1371,84.4788
119.1608,84.4630
119.1888,84.4574
119.6276,84.4574
119.6556,84.4630
119.6793,84.4788
119.6951,84.5025
119.7007,84.5305
Z" /> 
<path style="fill:#000000; fill-opacity:1.0000; stroke:none;fill-rule:evenodd;"
d="M 120.5007,86.4171
120.4951,86.4451
120.4793,86.4688
120.4556,86.4846
120.4276,86.4902
119.9888,86.4902
119.9608,86.4846
119.9371,86.4688
119.9213,86.4451
119.9157,86.4171
119.9157,84.5305
119.9213,84.5025
119.9371,84.4788
119.9608,84.4630
119.9888,84.4574
120.4276,84.4574
120.4556,84.4630
120.4793,84.4788
120.4951,84.5025
120.5007,84.5305
Z" /> 
</g>
<g style="fill:#000000; fill-opacity:1.0000; stroke:none;">
<circle cx="99.0000" cy="69.5000" r="1.5000" /> 
</g>
<g style="fill:#000000; fill-opacity:1.0000; stroke:none;">
<circle cx="92.0972" cy="156.2028" r="0.7751" /> 
</g>
<g style="fill:#000000; fill-opacity:1.0000; stroke:none;">
<circle cx="74.2918" cy="155.0852" r="0.7751" /> 
</g>
<g style="fill:#000000; fill-opacity:1.0000; stroke:none;">
<circle cx="92.0972" cy="159.4540" r="0.7751" /> 
</g>
<g style="fill:#000000; fill-opacity:1.0000; stroke:none;">
<circle cx="74.2918" cy="159.4540" r="0.7751" /> 
</g>
<g style="fill:#000000; fill-opacity:1.0000; stroke:none;">
<circle cx="91.2082" cy="161.4606" r="1.0291" /> 
</g>
<g style="fill:#000000; fill-opacity:1.0000; stroke:none;">
<circle cx="75.2062" cy="161.4606" r="1.0291" /> 
</g>
<g style="fill:#000000; fill-opacity:1.0000; stroke:none;">
<circle cx="92.0972" cy="163.4418" r="0.7751" /> 
</g>
<g style="fill:#000000; fill-opacity:1.0000; stroke:none;">
<circle cx="74.2918" cy="163.4418" r="0.7751" /> 
</g>
<g style="fill:#000000; fill-opacity:1.0000; stroke:none;">
<circle cx="92.0972" cy="165.4738" r="0.7751" /> 
</g>
<g style="fill:#000000; fill-opacity:1.0000; stroke:none;">
<circle cx="74.2918" cy="165.4738" r="0.7751" /> 
</g>
<g style="fill:#000000; fill-opacity:1.0000; stroke:none;">
<circle cx="118.4972" cy="156.2028" r="0.7751" /> 
</g>
<g style="fill:#000000; fill-opacity:1.0000; stroke:none;">
<circle cx="100.6918" cy="155.0852" r="0.7751" /> 
</g>
<g style="fill:#000000; fill-opacity:1.0000; stroke:none;">
<circle cx="118.4972" cy="159.4540" r="0.7751" /> 
</g>
<g style="fill:#000000; fill-opacity:1.0000; stroke:none;">
<circle cx="100.6918" cy="159.4540" r="0.7751" /> 
</g>
<g style="fill:#000000; fill-opacity:1.0000; stroke:none;">
<circle cx="117.6082" cy="161.4606" r="1.0291" /> 
</g>
<g style="fill:#000000; fill-opacity:1.0000; stroke:none;">
<circle cx="101.6062" cy="161.4606" r="1.0291" /> 
</g>
<g style="fill:#000000; fill-opacity:1.0000; stroke:none;">
<circle cx="118.4972" cy="163.4418" r="0.7751" /> 
</g>
<g style="fill:#000000; fill-opacity:1.0000; stroke:none;">
<circle cx="100.6918" cy="163.4418" r="0.7751" /> 
</g>
<g style="fill:#000000; fill-opacity:1.0000; stroke:none;">
<circle cx="118.4972" cy="165.4738" r="0.7751" /> 
</g>
<g style="fill:#000000; fill-opacity:1.0000; stroke:none;">
<circle cx="100.6918" cy="165.4738" r="0.7751" /> 
<path style="fill:#000000; fill-opacity:1.0000; stroke:none;fill-rule:evenodd;"
d="M 93.5530,142.2350
93.5608,142.1960
93.5829,142.1629
93.6160,142.1408
93.6550,142.1330
95.1850,142.1330
95.2240,142.1408
95.2571,142.1629
95.2792,142.1960
95.2870,142.2350
95.2870,143.7650
95.2792,143.8040
95.2571,143.8371
95.2240,143.8592
95.1850,143.8670
93.6550,143.8670
93.6160,143.8592
93.5829,143.8371
93.5608,143.8040
93.5530,143.7650
Z" /> 
</g>
<g style="fill:#000000; fill-opacity:1.0000; stroke:none;">
<circle cx="96.9600" cy="143.0000" r="0.8670" /> 
</g>
<g style="fill:#000000; fill-opacity:1.0000; stroke:none;">
<circle cx="99.5000" cy="143.0000" r="0.8670" /> 
</g>
<g style="fill:#000000; fill-opacity:1.0000; stroke:none;">
<circle cx="102.0400" cy="143.0000" r="0.8670" /> 
</g>
<g style="fill:#000000; fill-opacity:1.0000; stroke:none;">
<circle cx="94.4200" cy="140.4600" r="0.8670" /> 
</g>
<g style="fill:#000000; fill-opacity:1.0000; stroke:none;">
<circle cx="96.9600" cy="140.4600" r="0.8670" /> 
</g>
<g style="fill:#000000; fill-opacity:1.0000; stroke:none;">
<circle cx="99.5000" cy="140.4600" r="0.8670" /> 
</g>
<g style="fill:#000000; fill-opacity:1.0000; stroke:none;">
<circle cx="102.0400" cy="140.4600" r="0.8670" /> 
</g> 
</svg>
