<?xml version="1.0" standalone="no"?>
 <!DOCTYPE svg PUBLIC "-//W3C//DTD SVG 1.1//EN" 
 "http://www.w3.org/Graphics/SVG/1.1/DTD/svg11.dtd"> 
<svg
  xmlns:svg="http://www.w3.org/2000/svg"
  xmlns="http://www.w3.org/2000/svg"
  xmlns:xlink="http://www.w3.org/1999/xlink"
  version="1.1"
  width="297.0022mm" height="210.0072mm" viewBox="0.0000 0.0000 297.0022 210.0072">
<title>SVG Image created as SUM25-Inner2.svg date 2025/06/25 15:42:16 </title>
  <desc>Image generated by PCBNEW </desc>
<g style="fill:#000000; fill-opacity:1.0000;stroke:#000000; stroke-opacity:1.0000;
stroke-linecap:round; stroke-linejoin:round;"
 transform="translate(0 0) scale(1 1)">
<path style="fill:#000000; fill-opacity:1.0000; stroke:none;fill-rule:evenodd;"
d="M 94.1550,99.7650
94.1550,98.2350
95.6850,98.2350
95.6850,99.7650
Z" /> 
</g>
<g style="fill:#000000; fill-opacity:1.0000; stroke:none;">
<circle cx="97.4600" cy="99.0000" r="0.7650" /> 
</g>
<g style="fill:#000000; fill-opacity:1.0000; stroke:none;">
<circle cx="100.0000" cy="99.0000" r="0.7650" /> 
</g>
<g style="fill:#000000; fill-opacity:1.0000; stroke:none;">
<circle cx="102.5400" cy="99.0000" r="0.7650" /> 
</g>
<g style="fill:#000000; fill-opacity:1.0000; stroke:none;">
<circle cx="94.9200" cy="101.5400" r="0.7650" /> 
</g>
<g style="fill:#000000; fill-opacity:1.0000; stroke:none;">
<circle cx="97.4600" cy="101.5400" r="0.7650" /> 
</g>
<g style="fill:#000000; fill-opacity:1.0000; stroke:none;">
<circle cx="100.0000" cy="101.5400" r="0.7650" /> 
</g>
<g style="fill:#000000; fill-opacity:1.0000; stroke:none;">
<circle cx="102.5400" cy="101.5400" r="0.7650" /> 
</g>
<g style="fill:#000000; fill-opacity:1.0000; stroke:none;">
<circle cx="91.3972" cy="87.6972" r="0.6731" /> 
</g>
<g style="fill:#000000; fill-opacity:1.0000; stroke:none;">
<circle cx="73.5918" cy="88.8148" r="0.6731" /> 
</g>
<g style="fill:#000000; fill-opacity:1.0000; stroke:none;">
<circle cx="91.3972" cy="84.4460" r="0.6731" /> 
</g>
<g style="fill:#000000; fill-opacity:1.0000; stroke:none;">
<circle cx="73.5918" cy="84.4460" r="0.6731" /> 
</g>
<g style="fill:#000000; fill-opacity:1.0000; stroke:none;">
<circle cx="90.5082" cy="82.4394" r="0.9271" /> 
</g>
<g style="fill:#000000; fill-opacity:1.0000; stroke:none;">
<circle cx="74.5062" cy="82.4394" r="0.9271" /> 
</g>
<g style="fill:#000000; fill-opacity:1.0000; stroke:none;">
<circle cx="91.3972" cy="80.4582" r="0.6731" /> 
</g>
<g style="fill:#000000; fill-opacity:1.0000; stroke:none;">
<circle cx="73.5918" cy="80.4582" r="0.6731" /> 
</g>
<g style="fill:#000000; fill-opacity:1.0000; stroke:none;">
<circle cx="91.3972" cy="78.4262" r="0.6731" /> 
</g>
<g style="fill:#000000; fill-opacity:1.0000; stroke:none;">
<circle cx="73.5918" cy="78.4262" r="0.6731" /> 
</g>
<g style="fill:#000000; fill-opacity:1.0000; stroke:none;">
<circle cx="122.3054" cy="87.7710" r="0.6731" /> 
</g>
<g style="fill:#000000; fill-opacity:1.0000; stroke:none;">
<circle cx="104.5000" cy="88.8886" r="0.6731" /> 
</g>
<g style="fill:#000000; fill-opacity:1.0000; stroke:none;">
<circle cx="122.3054" cy="84.5198" r="0.6731" /> 
</g>
<g style="fill:#000000; fill-opacity:1.0000; stroke:none;">
<circle cx="104.5000" cy="84.5198" r="0.6731" /> 
</g>
<g style="fill:#000000; fill-opacity:1.0000; stroke:none;">
<circle cx="121.4164" cy="82.5132" r="0.9271" /> 
</g>
<g style="fill:#000000; fill-opacity:1.0000; stroke:none;">
<circle cx="105.4144" cy="82.5132" r="0.9271" /> 
</g>
<g style="fill:#000000; fill-opacity:1.0000; stroke:none;">
<circle cx="122.3054" cy="80.5320" r="0.6731" /> 
</g>
<g style="fill:#000000; fill-opacity:1.0000; stroke:none;">
<circle cx="104.5000" cy="80.5320" r="0.6731" /> 
</g>
<g style="fill:#000000; fill-opacity:1.0000; stroke:none;">
<circle cx="122.3054" cy="78.5000" r="0.6731" /> 
</g>
<g style="fill:#000000; fill-opacity:1.0000; stroke:none;">
<circle cx="104.5000" cy="78.5000" r="0.6731" /> 
</g>
<g style="fill:#000000; fill-opacity:1.0000; stroke:none;">
<circle cx="92.0972" cy="156.2028" r="0.6731" /> 
</g>
<g style="fill:#000000; fill-opacity:1.0000; stroke:none;">
<circle cx="74.2918" cy="155.0852" r="0.6731" /> 
</g>
<g style="fill:#000000; fill-opacity:1.0000; stroke:none;">
<circle cx="92.0972" cy="159.4540" r="0.6731" /> 
</g>
<g style="fill:#000000; fill-opacity:1.0000; stroke:none;">
<circle cx="74.2918" cy="159.4540" r="0.6731" /> 
</g>
<g style="fill:#000000; fill-opacity:1.0000; stroke:none;">
<circle cx="91.2082" cy="161.4606" r="0.9271" /> 
</g>
<g style="fill:#000000; fill-opacity:1.0000; stroke:none;">
<circle cx="75.2062" cy="161.4606" r="0.9271" /> 
</g>
<g style="fill:#000000; fill-opacity:1.0000; stroke:none;">
<circle cx="92.0972" cy="163.4418" r="0.6731" /> 
</g>
<g style="fill:#000000; fill-opacity:1.0000; stroke:none;">
<circle cx="74.2918" cy="163.4418" r="0.6731" /> 
</g>
<g style="fill:#000000; fill-opacity:1.0000; stroke:none;">
<circle cx="92.0972" cy="165.4738" r="0.6731" /> 
</g>
<g style="fill:#000000; fill-opacity:1.0000; stroke:none;">
<circle cx="74.2918" cy="165.4738" r="0.6731" /> 
</g>
<g style="fill:#000000; fill-opacity:1.0000; stroke:none;">
<circle cx="118.4972" cy="156.2028" r="0.6731" /> 
</g>
<g style="fill:#000000; fill-opacity:1.0000; stroke:none;">
<circle cx="100.6918" cy="155.0852" r="0.6731" /> 
</g>
<g style="fill:#000000; fill-opacity:1.0000; stroke:none;">
<circle cx="118.4972" cy="159.4540" r="0.6731" /> 
</g>
<g style="fill:#000000; fill-opacity:1.0000; stroke:none;">
<circle cx="100.6918" cy="159.4540" r="0.6731" /> 
</g>
<g style="fill:#000000; fill-opacity:1.0000; stroke:none;">
<circle cx="117.6082" cy="161.4606" r="0.9271" /> 
</g>
<g style="fill:#000000; fill-opacity:1.0000; stroke:none;">
<circle cx="101.6062" cy="161.4606" r="0.9271" /> 
</g>
<g style="fill:#000000; fill-opacity:1.0000; stroke:none;">
<circle cx="118.4972" cy="163.4418" r="0.6731" /> 
</g>
<g style="fill:#000000; fill-opacity:1.0000; stroke:none;">
<circle cx="100.6918" cy="163.4418" r="0.6731" /> 
</g>
<g style="fill:#000000; fill-opacity:1.0000; stroke:none;">
<circle cx="118.4972" cy="165.4738" r="0.6731" /> 
</g>
<g style="fill:#000000; fill-opacity:1.0000; stroke:none;">
<circle cx="100.6918" cy="165.4738" r="0.6731" /> 
<path style="fill:#000000; fill-opacity:1.0000; stroke:none;fill-rule:evenodd;"
d="M 93.6550,143.7650
93.6550,142.2350
95.1850,142.2350
95.1850,143.7650
Z" /> 
</g>
<g style="fill:#000000; fill-opacity:1.0000; stroke:none;">
<circle cx="96.9600" cy="143.0000" r="0.7650" /> 
</g>
<g style="fill:#000000; fill-opacity:1.0000; stroke:none;">
<circle cx="99.5000" cy="143.0000" r="0.7650" /> 
</g>
<g style="fill:#000000; fill-opacity:1.0000; stroke:none;">
<circle cx="102.0400" cy="143.0000" r="0.7650" /> 
</g>
<g style="fill:#000000; fill-opacity:1.0000; stroke:none;">
<circle cx="94.4200" cy="140.4600" r="0.7650" /> 
</g>
<g style="fill:#000000; fill-opacity:1.0000; stroke:none;">
<circle cx="96.9600" cy="140.4600" r="0.7650" /> 
</g>
<g style="fill:#000000; fill-opacity:1.0000; stroke:none;">
<circle cx="99.5000" cy="140.4600" r="0.7650" /> 
</g>
<g style="fill:#000000; fill-opacity:1.0000; stroke:none;">
<circle cx="102.0400" cy="140.4600" r="0.7650" /> 
</g>
<g style="fill:#000000; fill-opacity:1.0000; stroke:none;">
<circle cx="125.0586" cy="78.9369" r="0.3300" /> 
</g>
<g style="fill:#000000; fill-opacity:1.0000; stroke:none;">
<circle cx="114.4062" cy="146.5000" r="0.3300" /> 
</g>
<g style="fill:#000000; fill-opacity:1.0000; stroke:none;">
<circle cx="111.7128" cy="91.7128" r="0.3300" /> 
</g>
<g style="fill:#000000; fill-opacity:1.0000; stroke:none;">
<circle cx="110.5938" cy="149.0000" r="0.3300" /> 
</g>
<g style="fill:#000000; fill-opacity:1.0000; stroke:none;">
<circle cx="109.0938" cy="92.0000" r="0.3300" /> 
</g>
<g style="fill:#000000; fill-opacity:1.0000; stroke:none;">
<circle cx="108.7128" cy="151.7128" r="0.3300" /> 
</g>
<g style="fill:#000000; fill-opacity:1.0000; stroke:none;">
<circle cx="107.1818" cy="76.3182" r="0.3300" /> 
</g>
<g style="fill:#000000; fill-opacity:1.0000; stroke:none;">
<circle cx="99.8182" cy="167.1818" r="0.3300" /> 
</g>
<g style="fill:#000000; fill-opacity:1.0000; stroke:none;">
<circle cx="113.2128" cy="152.2872" r="0.3300" /> 
</g>
<g style="fill:#000000; fill-opacity:1.0000; stroke:none;">
<circle cx="113.7128" cy="93.2128" r="0.3300" /> 
</g>
<g style="fill:#000000; fill-opacity:1.0000; stroke:none;">
<circle cx="116.9062" cy="145.5000" r="0.3300" /> 
</g>
<g style="fill:#000000; fill-opacity:1.0000; stroke:none;">
<circle cx="125.2872" cy="74.7128" r="0.3300" /> 
</g>
<g style="fill:#000000; fill-opacity:1.0000; stroke:none;">
<circle cx="97.9062" cy="166.5000" r="0.3300" /> 
</g>
<g style="fill:#000000; fill-opacity:1.0000; stroke:none;">
<circle cx="107.0000" cy="74.4062" r="0.3300" /> 
</g>
<g style="fill:#000000; fill-opacity:1.0000; stroke:none;">
<circle cx="106.7128" cy="91.7872" r="0.3300" /> 
</g>
<g style="fill:#000000; fill-opacity:1.0000; stroke:none;">
<circle cx="106.0000" cy="152.0938" r="0.3300" /> 
</g>
<g style="fill:#000000; fill-opacity:1.0000; stroke:none;">
<circle cx="90.0000" cy="73.5000" r="0.3300" /> 
</g>
<g style="fill:#000000; fill-opacity:1.0000; stroke:none;">
<circle cx="86.5000" cy="169.5000" r="0.3300" /> 
</g>
<g style="fill:#000000; fill-opacity:1.0000; stroke:none;">
<circle cx="85.7128" cy="94.2872" r="0.3300" /> 
</g>
<g style="fill:#000000; fill-opacity:1.0000; stroke:none;">
<circle cx="86.0938" cy="149.5000" r="0.3300" /> 
</g>
<g style="fill:#000000; fill-opacity:1.0000; stroke:none;">
<circle cx="75.5000" cy="76.0000" r="0.3300" /> 
</g>
<g style="fill:#000000; fill-opacity:1.0000; stroke:none;">
<circle cx="76.5000" cy="152.0000" r="0.3300" /> 
</g>
<g style="fill:#000000; fill-opacity:1.0000; stroke:none;">
<circle cx="76.5000" cy="73.9062" r="0.3300" /> 
</g>
<g style="fill:#000000; fill-opacity:1.0000; stroke:none;">
<circle cx="79.2128" cy="169.2128" r="0.3300" /> 
</g>
<g style="fill:#000000; fill-opacity:1.0000; stroke:none;">
<circle cx="89.2128" cy="75.7128" r="0.3300" /> 
</g>
<g style="fill:#000000; fill-opacity:1.0000; stroke:none;">
<circle cx="93.7872" cy="150.7128" r="0.3300" /> 
</g>
<g style="fill:#000000; fill-opacity:1.0000; stroke:none;">
<circle cx="78.0000" cy="168.0000" r="0.3300" /> 
</g>
<g style="fill:#000000; fill-opacity:1.0000; stroke:none;">
<circle cx="71.0000" cy="76.0000" r="0.3300" /> 
</g>
<g style="fill:#000000; fill-opacity:1.0000; stroke:none;">
<circle cx="88.2128" cy="151.2872" r="0.3300" /> 
</g>
<g style="fill:#000000; fill-opacity:1.0000; stroke:none;">
<circle cx="87.5938" cy="94.0000" r="0.3300" /> 
</g>
<g style="fill:#000000; fill-opacity:1.0000; stroke:none;">
<circle cx="80.7128" cy="93.2872" r="0.3300" /> 
</g>
<g style="fill:#000000; fill-opacity:1.0000; stroke:none;">
<circle cx="81.2128" cy="150.2128" r="0.3300" /> 
</g>
<g style="fill:#000000; fill-opacity:1.0000; stroke:none;">
<circle cx="77.2128" cy="94.2872" r="0.3300" /> 
</g>
<g style="fill:#000000; fill-opacity:1.0000; stroke:none;">
<circle cx="78.7128" cy="149.7128" r="0.3300" /> 
</g>
<g style="fill:#000000; fill-opacity:1.0000; stroke:none;">
<circle cx="91.5000" cy="170.5000" r="0.3300" /> 
</g>
<g style="fill:#000000; fill-opacity:1.0000; stroke:none;">
<circle cx="88.0000" cy="74.5000" r="0.3300" /> 
</g>
<g style="fill:#000000; fill-opacity:1.0000; stroke:none;">
<circle cx="124.2462" cy="78.9369" r="0.3300" /> 
</g>
<g style="fill:#000000; fill-opacity:1.0000; stroke:none;">
<circle cx="113.5938" cy="146.5000" r="0.3300" /> 
</g>
<g style="fill:#000000; fill-opacity:1.0000; stroke:none;">
<circle cx="114.2872" cy="93.7872" r="0.3300" /> 
</g>
<g style="fill:#000000; fill-opacity:1.0000; stroke:none;">
<circle cx="113.7872" cy="151.7128" r="0.3300" /> 
</g>
<g style="fill:#000000; fill-opacity:1.0000; stroke:none;">
<circle cx="112.2872" cy="92.2872" r="0.3300" /> 
</g>
<g style="fill:#000000; fill-opacity:1.0000; stroke:none;">
<circle cx="111.4062" cy="149.0000" r="0.3300" /> 
</g>
<g style="fill:#000000; fill-opacity:1.0000; stroke:none;">
<circle cx="99.1818" cy="167.8182" r="0.3300" /> 
</g>
<g style="fill:#000000; fill-opacity:1.0000; stroke:none;">
<circle cx="107.8182" cy="75.6818" r="0.3300" /> 
</g>
<g style="fill:#000000; fill-opacity:1.0000; stroke:none;">
<circle cx="109.2872" cy="152.2872" r="0.3300" /> 
</g>
<g style="fill:#000000; fill-opacity:1.0000; stroke:none;">
<circle cx="109.9062" cy="92.0000" r="0.3300" /> 
</g>
<g style="fill:#000000; fill-opacity:1.0000; stroke:none;">
<circle cx="107.0000" cy="73.5938" r="0.3300" /> 
</g>
<g style="fill:#000000; fill-opacity:1.0000; stroke:none;">
<circle cx="97.0938" cy="166.5000" r="0.3300" /> 
</g>
<g style="fill:#000000; fill-opacity:1.0000; stroke:none;">
<circle cx="106.0000" cy="152.9062" r="0.3300" /> 
</g>
<g style="fill:#000000; fill-opacity:1.0000; stroke:none;">
<circle cx="107.2872" cy="91.2128" r="0.3300" /> 
</g>
<g style="fill:#000000; fill-opacity:1.0000; stroke:none;">
<circle cx="124.7128" cy="75.2872" r="0.3300" /> 
</g>
<g style="fill:#000000; fill-opacity:1.0000; stroke:none;">
<circle cx="116.0938" cy="145.5000" r="0.3300" /> 
</g>
<g style="fill:#000000; fill-opacity:1.0000; stroke:none;">
<circle cx="89.7872" cy="76.2872" r="0.3300" /> 
</g>
<g style="fill:#000000; fill-opacity:1.0000; stroke:none;">
<circle cx="93.2128" cy="151.2872" r="0.3300" /> 
</g>
<g style="fill:#000000; fill-opacity:1.0000; stroke:none;">
<circle cx="77.7872" cy="93.7128" r="0.3300" /> 
</g>
<g style="fill:#000000; fill-opacity:1.0000; stroke:none;">
<circle cx="79.2872" cy="150.2872" r="0.3300" /> 
</g>
<g style="fill:#000000; fill-opacity:1.0000; stroke:none;">
<circle cx="76.5000" cy="73.0938" r="0.3300" /> 
</g>
<g style="fill:#000000; fill-opacity:1.0000; stroke:none;">
<circle cx="79.7872" cy="169.7872" r="0.3300" /> 
</g>
<g style="fill:#000000; fill-opacity:1.0000; stroke:none;">
<circle cx="81.7872" cy="150.7872" r="0.3300" /> 
</g>
<g style="fill:#000000; fill-opacity:1.0000; stroke:none;">
<circle cx="81.2872" cy="92.7128" r="0.3300" /> 
</g>
<g style="fill:#000000; fill-opacity:1.0000; stroke:none;">
<circle cx="86.2872" cy="93.7128" r="0.3300" /> 
</g>
<g style="fill:#000000; fill-opacity:1.0000; stroke:none;">
<circle cx="86.9062" cy="149.5000" r="0.3300" /> 
</g>
<g style="fill:#000000; fill-opacity:1.0000; stroke:none;">
<circle cx="88.4062" cy="94.0000" r="0.3300" /> 
</g>
<g style="fill:#000000; fill-opacity:1.0000; stroke:none;">
<circle cx="88.7872" cy="150.7128" r="0.3300" /> 
<path style="fill:#000000; fill-opacity:1.0000; stroke:none;fill-rule:evenodd;"
d="M 99.6013,36.6548
101.6785,36.8339
101.6897,36.8354
105.8611,37.5806
105.8720,37.5831
109.9587,38.7035
109.9694,38.7069
113.9377,40.1931
113.9480,40.1975
117.7652,42.0374
117.7751,42.0427
121.4098,44.2210
121.4192,44.2272
124.8415,46.7260
124.8502,46.7331
128.0319,49.5318
128.0400,49.5396
130.9548,52.6153
130.9622,52.6238
133.5862,55.9510
133.5927,55.9602
135.9043,59.5116
135.9100,59.5213
137.8901,63.2677
137.8949,63.2778
139.5272,67.1882
139.5311,67.1988
140.8022,71.2411
140.8051,71.2520
141.7045,75.3929
141.7064,75.4040
142.2268,79.6094
142.2276,79.6206
142.3646,83.8558
142.3645,83.8671
142.1169,88.0973
142.1158,88.1085
141.4858,92.2988
141.4836,92.3099
140.4763,96.4258
140.4731,96.4366
139.0969,100.4444
139.0928,100.4548
137.3589,104.3213
137.3538,104.3313
135.2765,108.0247
135.2706,108.0342
132.8670,111.5241
132.8602,111.5330
130.1502,114.7906
130.1426,114.7989
127.1485,117.7974
127.1402,117.8050
123.8865,120.5197
123.8776,120.5265
120.3912,122.9351
120.3817,122.9411
116.7247,125.0049
116.7228,125.0060
116.7079,125.0140
116.6425,125.0290
116.6243,125.0579
116.6138,125.0632
116.6126,125.0655
116.6126,125.0655
116.5840,125.1212
116.5787,125.1305
116.5322,125.2047
116.5322,125.2047
116.5534,125.2972
116.5645,125.3689
116.5713,125.3758
116.5775,125.4027
116.5775,125.4027
127.1510,171.5978
127.1351,171.6914
127.0578,171.7464
127.0301,171.7495
96.2938,171.7495
96.2062,171.7132
96.1698,171.6255
96.1701,171.6171
96.2687,170.1711
96.4635,167.3149
96.5057,167.2298
96.5956,167.1996
96.6346,167.2087
96.6856,167.2298
96.9286,167.3305
96.9286,167.3305
96.9286,167.3305
96.9286,167.3305
97.2590,167.3305
97.2590,167.3305
97.4525,167.2503
97.5475,167.2503
97.6805,167.3054
97.7410,167.3305
97.7410,167.3305
97.7410,167.3305
97.7410,167.3305
98.0714,167.3305
98.0714,167.3305
98.2940,167.2383
98.3889,167.2383
98.4560,167.3054
98.4560,167.4003
98.3513,167.6530
98.3513,167.9834
98.4777,168.2886
98.7114,168.5223
98.9272,168.6117
99.0166,168.6487
99.0166,168.6487
99.0166,168.6487
99.0166,168.6487
99.3470,168.6487
99.3470,168.6487
99.6522,168.5223
99.8859,168.2886
99.9842,168.0513
100.0513,167.9842
100.2886,167.8859
100.5223,167.6522
100.6487,167.3470
100.6487,167.0166
100.6484,167.0158
100.5668,166.8189
100.5668,166.7239
100.6339,166.6568
100.6813,166.6474
100.9252,166.6474
100.9252,166.6474
101.3566,166.4687
101.6867,166.1386
101.8654,165.7072
101.8654,165.2404
101.6867,164.8090
101.4232,164.5455
101.3869,164.4578
101.4232,164.3701
101.6867,164.1066
101.8654,163.6752
101.8654,163.2084
101.8026,163.0567
101.8026,162.9618
101.8697,162.8947
101.8875,162.8893
101.8902,162.8882
101.8902,162.8882
102.4149,162.6709
102.8165,162.2693
103.0338,161.7446
103.0338,161.1766
103.0338,161.1766
116.1806,161.1766
116.1806,161.1766
116.1806,161.7446
116.3979,162.2693
116.7995,162.6709
117.3223,162.8874
117.3894,162.9545
117.3894,163.0494
117.3236,163.2084
117.3236,163.6752
117.5023,164.1066
117.7658,164.3701
117.8021,164.4578
117.7658,164.5455
117.5023,164.8090
117.5023,164.8090
117.3236,165.2404
117.3236,165.7072
117.3412,165.7497
117.5023,166.1386
117.8324,166.4687
118.1374,166.5951
118.2638,166.6474
118.2638,166.6474
118.2638,166.6474
118.2638,166.6474
118.7306,166.6474
118.7306,166.6474
119.1620,166.4687
119.4921,166.1386
119.6708,165.7072
119.6708,165.2404
119.4921,164.8090
119.2286,164.5455
119.1923,164.4578
119.2286,164.3701
119.4921,164.1066
119.6708,163.6752
119.6708,163.2084
119.4921,162.7770
119.1620,162.4469
118.9205,162.3469
118.8534,162.2797
118.8534,162.1848
119.0358,161.7446
119.0358,161.1766
118.8444,160.7147
118.8444,160.6198
118.9116,160.5527
119.1620,160.4489
119.4921,160.1188
119.6708,159.6874
119.6708,159.2206
119.4921,158.7892
119.1620,158.4591
118.7306,158.2804
118.7306,158.2804
118.2638,158.2804
118.2638,158.2804
117.8324,158.4591
117.5023,158.7892
117.3236,159.2206
117.3236,159.6874
117.3984,159.8681
117.3984,159.9630
117.3313,160.0301
116.7995,160.2503
116.3979,160.6519
116.1806,161.1766
103.0338,161.1766
102.8165,160.6519
102.4149,160.2503
101.8902,160.0330
101.8902,160.0330
101.8902,160.0330
101.8832,160.0316
101.8043,159.9789
101.7858,159.8858
101.7929,159.8626
101.8654,159.6874
101.8654,159.6874
101.8654,159.2206
101.6867,158.7892
101.3566,158.4591
100.9252,158.2804
100.9252,158.2804
100.4584,158.2804
100.4584,158.2804
100.0270,158.4591
99.6969,158.7892
99.5182,159.2206
99.5182,159.6874
99.6608,160.0316
99.6969,160.1188
100.0270,160.4489
100.2766,160.5523
100.2991,160.5616
100.3662,160.6287
100.3662,160.7237
100.1786,161.1766
100.1786,161.1766
100.1786,161.7446
100.3572,162.1759
100.3572,162.2708
100.2901,162.3379
100.0270,162.4469
99.6969,162.7770
99.5182,163.2084
99.5182,163.6752
99.6969,164.1066
99.9604,164.3701
99.9967,164.4578
99.9604,164.5455
99.6969,164.8090
99.6969,164.8090
99.5182,165.2404
99.5182,165.7072
99.6969,166.1386
99.7032,166.1449
99.7395,166.2326
99.7032,166.3203
99.6630,166.3472
99.3478,166.4777
99.1141,166.7114
99.0158,166.9487
98.9601,167.0044
98.9487,167.0158
98.7941,167.0799
98.6991,167.0799
98.6320,167.0128
98.6320,166.9179
98.7367,166.6652
98.7367,166.3348
98.6103,166.0296
98.3766,165.7959
98.3124,165.7693
98.0714,165.6695
98.0714,165.6695
97.7410,165.6695
97.7410,165.6695
97.7410,165.6695
97.5475,165.7497
97.4525,165.7497
97.2590,165.6695
97.2590,165.6695
97.2590,165.6695
96.9286,165.6695
96.9286,165.6695
96.7502,165.7434
96.6552,165.7434
96.5881,165.6763
96.5790,165.6204
97.3132,154.8518
99.5182,154.8518
99.5182,155.3186
99.6091,155.5380
99.6969,155.7500
100.0270,156.0801
100.3320,156.2065
100.4584,156.2588
100.4584,156.2588
100.4584,156.2588
100.4584,156.2588
100.9252,156.2588
100.9252,156.2588
101.3566,156.0801
101.4674,155.9694
117.3236,155.9694
117.3236,156.4362
117.5023,156.8676
117.8324,157.1977
118.1374,157.3241
118.2638,157.3764
118.2638,157.3764
118.2638,157.3764
118.2638,157.3764
118.7306,157.3764
118.7306,157.3764
119.1620,157.1977
119.4921,156.8676
119.6708,156.4362
119.6708,155.9694
119.6294,155.8695
119.5799,155.7500
119.4921,155.5380
119.1620,155.2079
118.7306,155.0292
118.7306,155.0292
118.2638,155.0292
118.2638,155.0292
117.8324,155.2079
117.5023,155.5380
117.3236,155.9694
101.4674,155.9694
101.6867,155.7500
101.8654,155.3186
101.8654,154.8518
101.6867,154.4204
101.3566,154.0903
100.9252,153.9116
100.9252,153.9116
100.4584,153.9116
100.4584,153.9116
100.0270,154.0903
99.6969,154.4204
99.5182,154.8518
97.3132,154.8518
97.4725,152.5155
97.4786,152.4847
97.6640,151.9286
105.1695,151.9286
105.1695,152.2590
105.1695,152.2590
105.2497,152.4525
105.2497,152.5475
105.1695,152.7410
105.1695,152.7410
105.1695,153.0714
105.2959,153.3766
105.5296,153.6103
105.7454,153.6997
105.8348,153.7367
105.8348,153.7367
105.8348,153.7367
105.8348,153.7367
106.1652,153.7367
106.1652,153.7367
106.4704,153.6103
106.7041,153.3766
106.8305,153.0714
106.8305,152.7410
106.8305,152.7410
106.8106,152.6929
106.7503,152.5475
106.7503,152.4525
106.8305,152.2590
106.8305,151.9286
106.7041,151.6234
106.6283,151.5476
107.8823,151.5476
107.8823,151.8780
108.0087,152.1832
108.2423,152.4168
108.4359,152.4970
108.5030,152.5641
108.5763,152.7410
108.5832,152.7577
108.8168,152.9913
109.0326,153.0807
109.1220,153.1177
109.1220,153.1177
109.1220,153.1177
109.1220,153.1177
109.4524,153.1177
109.4524,153.1177
109.7577,152.9913
109.9913,152.7577
110.1177,152.4524
110.1177,152.1220
110.1177,152.1220
112.3823,152.1220
112.3823,152.4524
112.5018,152.7410
112.5087,152.7577
112.7423,152.9913
112.9582,153.0807
113.0476,153.1177
113.0476,153.1177
113.0476,153.1177
113.0476,153.1177
113.3780,153.1177
113.3780,153.1177
113.6832,152.9913
113.9168,152.7577
113.9970,152.5641
114.0641,152.4970
114.2577,152.4168
114.4913,152.1832
114.6177,151.8780
114.6177,151.5476
114.4913,151.2423
114.2577,151.0087
113.9524,150.8823
113.9524,150.8823
113.6220,150.8823
113.6220,150.8823
113.3168,151.0087
113.0832,151.2423
113.0030,151.4359
112.9359,151.5030
112.7423,151.5832
112.5087,151.8168
112.3823,152.1220
110.1177,152.1220
109.9913,151.8168
109.7577,151.5832
109.6718,151.5476
109.5641,151.5030
109.4970,151.4359
109.4779,151.3897
109.4168,151.2423
109.1832,151.0087
108.8780,150.8823
108.8780,150.8823
108.5476,150.8823
108.5476,150.8823
108.2423,151.0087
108.0087,151.2423
107.8823,151.5476
106.6283,151.5476
106.4704,151.3897
106.1652,151.2633
106.1652,151.2633
105.8348,151.2633
105.8348,151.2633
105.5296,151.3897
105.2959,151.6234
105.1695,151.9286
97.6640,151.9286
98.4736,149.4997
98.4739,149.4676
98.4794,148.8348
109.7633,148.8348
109.7633,149.1652
109.8886,149.4676
109.8897,149.4704
110.1234,149.7041
110.3392,149.7935
110.4286,149.8305
110.4286,149.8305
110.4286,149.8305
110.4286,149.8305
110.7590,149.8305
110.7590,149.8305
110.9525,149.7503
111.0475,149.7503
111.1929,149.8106
111.2410,149.8305
111.2410,149.8305
111.2410,149.8305
111.2410,149.8305
111.5714,149.8305
111.5714,149.8305
111.8766,149.7041
112.1103,149.4704
112.2367,149.1652
112.2367,148.8348
112.1103,148.5296
111.8766,148.2959
111.8124,148.2693
111.5714,148.1695
111.5714,148.1695
111.2410,148.1695
111.2410,148.1695
111.2410,148.1695
111.0475,148.2497
110.9525,148.2497
110.7590,148.1695
110.7590,148.1695
110.7590,148.1695
110.4286,148.1695
110.4286,148.1695
110.1234,148.2959
109.8897,148.5296
109.7633,148.8348
98.4794,148.8348
98.4796,148.8215
98.4986,146.6652
98.5015,146.3348
112.7633,146.3348
112.7633,146.6652
112.8897,146.9704
113.1234,147.2041
113.3392,147.2935
113.4286,147.3305
113.4286,147.3305
113.4286,147.3305
113.4286,147.3305
113.7590,147.3305
113.7590,147.3305
113.9525,147.2503
114.0475,147.2503
114.1929,147.3106
114.2410,147.3305
114.2410,147.3305
114.2410,147.3305
114.2410,147.3305
114.5714,147.3305
114.5714,147.3305
114.8766,147.2041
115.1103,146.9704
115.2367,146.6652
115.2367,146.3348
115.1103,146.0296
114.8766,145.7959
114.8124,145.7693
114.5714,145.6695
114.5714,145.6695
114.2410,145.6695
114.2410,145.6695
114.2410,145.6695
114.0475,145.7497
113.9525,145.7497
113.7590,145.6695
113.7590,145.6695
113.7590,145.6695
113.4286,145.6695
113.4286,145.6695
113.1234,145.7959
112.8897,146.0296
112.7633,146.3348
98.5015,146.3348
98.5103,145.3348
115.2633,145.3348
115.2633,145.6652
115.3897,145.9704
115.6234,146.2041
115.8392,146.2935
115.9286,146.3305
115.9286,146.3305
115.9286,146.3305
115.9286,146.3305
116.2590,146.3305
116.2590,146.3305
116.4525,146.2503
116.5475,146.2503
116.6929,146.3106
116.7410,146.3305
116.7410,146.3305
116.7410,146.3305
116.7410,146.3305
117.0714,146.3305
117.0714,146.3305
117.3766,146.2041
117.6103,145.9704
117.7367,145.6652
117.7367,145.3348
117.6103,145.0296
117.3766,144.7959
117.3124,144.7693
117.0714,144.6695
117.0714,144.6695
116.7410,144.6695
116.7410,144.6695
116.7410,144.6695
116.5475,144.7497
116.4525,144.7497
116.2590,144.6695
116.2590,144.6695
116.2590,144.6695
115.9286,144.6695
115.9286,144.6695
115.6234,144.7959
115.3897,145.0296
115.2633,145.3348
98.5103,145.3348
98.5211,144.1090
98.5582,144.0217
98.6462,143.9861
98.7327,144.0224
98.7832,144.0728
99.1120,144.2091
99.2483,144.2655
99.2483,144.2655
99.2483,144.2655
99.2483,144.2655
99.7517,144.2655
99.7517,144.2655
100.2168,144.0728
100.5728,143.7168
100.6554,143.5174
100.7225,143.4503
100.8175,143.4503
100.8846,143.5174
100.9672,143.7168
101.3232,144.0728
101.6520,144.2091
101.7883,144.2655
101.7883,144.2655
101.7883,144.2655
101.7883,144.2655
102.2917,144.2655
102.2917,144.2655
102.7568,144.0728
103.1128,143.7168
103.3055,143.2517
103.3055,142.7483
103.1128,142.2832
102.7568,141.9272
102.5568,141.8443
102.4897,141.7772
102.4897,141.6823
102.5568,141.6152
102.7566,141.5324
102.7566,141.5324
102.7577,141.5313
102.1964,140.9700
102.2512,140.9700
102.5500,140.6712
102.5500,140.6164
103.1113,141.1777
103.1113,141.1777
103.1124,141.1766
103.1124,141.1766
103.3050,140.7116
103.3050,140.7116
103.3050,140.2084
103.3050,140.2084
103.1124,139.7434
103.1113,139.7423
103.1113,139.7423
102.5500,140.3036
102.5500,140.2488
102.2512,139.9500
102.1964,139.9500
102.7577,139.3887
102.7566,139.3876
102.2916,139.1950
101.7884,139.1950
101.3234,139.3876
101.3223,139.3887
101.8836,139.9500
101.8288,139.9500
101.5300,140.2488
101.5300,140.3036
100.9687,139.7423
100.9676,139.7434
100.8846,139.9439
100.8175,140.0110
100.7225,140.0110
100.6554,139.9439
100.5724,139.7434
100.5713,139.7423
100.5713,139.7423
100.0100,140.3036
100.0100,140.2488
99.7112,139.9500
99.6564,139.9500
100.2177,139.3887
100.2166,139.3876
99.7516,139.1950
99.2484,139.1950
98.7834,139.3876
98.7751,139.3960
98.6874,139.4323
98.5997,139.3960
98.5634,139.3083
98.5634,139.3074
98.8894,102.3016
98.8927,102.2938
98.9067,102.2797
98.9067,102.2797
98.9067,102.2797
99.4900,101.6964
99.4900,101.7512
99.7888,102.0500
99.8436,102.0500
99.2823,102.6113
99.2823,102.6113
99.2834,102.6124
99.7484,102.8050
99.7484,102.8050
100.2516,102.8050
100.2516,102.8050
100.7166,102.6124
100.7166,102.6124
100.7177,102.6113
100.7177,102.6113
100.1564,102.0500
100.2112,102.0500
100.5100,101.7512
100.5100,101.6964
101.0713,102.2577
101.0724,102.2566
101.0724,102.2566
101.1554,102.0561
101.2225,101.9890
101.3175,101.9890
101.3846,102.0561
101.4676,102.2566
101.4687,102.2577
102.0300,101.6964
102.0300,101.7512
102.3288,102.0500
102.3836,102.0500
101.8223,102.6113
101.8223,102.6113
101.8234,102.6124
102.2884,102.8050
102.2884,102.8050
102.7916,102.8050
102.7916,102.8050
103.2566,102.6124
103.2566,102.6124
103.2577,102.6113
102.6964,102.0500
102.7512,102.0500
103.0500,101.7512
103.0500,101.6964
103.6113,102.2577
103.6113,102.2577
103.6124,102.2566
103.6124,102.2566
103.8050,101.7916
103.8050,101.7916
103.8050,101.2884
103.8050,101.2884
103.6124,100.8234
103.6113,100.8223
103.6113,100.8223
103.0500,101.3836
103.0500,101.3288
102.7512,101.0300
102.6964,101.0300
103.2577,100.4687
103.2566,100.4676
103.0568,100.3848
102.9897,100.3177
102.9897,100.2228
103.0568,100.1557
103.2568,100.0728
103.6128,99.7168
103.8055,99.2517
103.8055,98.7483
103.7585,98.6348
103.7232,98.5497
103.6128,98.2832
103.2568,97.9272
102.7917,97.7345
102.7917,97.7345
102.2883,97.7345
102.2883,97.7345
101.8232,97.9272
101.4672,98.2832
101.3846,98.4826
101.3175,98.5497
101.2225,98.5497
101.1554,98.4826
101.1282,98.4167
101.0728,98.2832
100.7168,97.9272
100.2517,97.7345
100.2517,97.7345
99.7483,97.7345
99.7483,97.7345
99.2832,97.9272
99.1391,98.0712
99.0515,98.1075
98.9638,98.0712
98.9275,97.9835
98.9275,97.9827
98.9277,97.9518
98.9835,91.6220
105.8823,91.6220
105.8823,91.9524
105.9704,92.1652
106.0087,92.2577
106.2423,92.4913
106.4582,92.5807
106.5476,92.6177
106.5476,92.6177
106.5476,92.6177
106.5476,92.6177
106.8780,92.6177
106.8780,92.6177
107.1832,92.4913
107.4168,92.2577
107.4970,92.0641
107.5641,91.9970
107.7577,91.9168
107.8397,91.8348
108.2633,91.8348
108.2633,92.1652
108.3897,92.4704
108.6234,92.7041
108.7528,92.7577
108.9286,92.8305
108.9286,92.8305
108.9286,92.8305
108.9286,92.8305
109.2590,92.8305
109.2590,92.8305
109.4525,92.7503
109.5475,92.7503
109.6929,92.8106
109.7410,92.8305
109.7410,92.8305
109.7410,92.8305
109.7410,92.8305
110.0714,92.8305
110.0714,92.8305
110.3766,92.7041
110.6103,92.4704
110.7367,92.1652
110.7367,92.1499
110.7730,92.0622
110.8607,92.0259
110.9484,92.0622
110.9753,92.1025
111.0087,92.1832
111.2423,92.4168
111.3717,92.4704
111.4359,92.4970
111.5030,92.5641
111.5610,92.7041
111.5832,92.7577
111.8168,92.9913
111.9527,93.0476
112.1220,93.1177
112.1220,93.1177
112.1220,93.1177
112.1220,93.1177
112.4524,93.1177
112.4524,93.1177
112.7108,93.0107
112.8057,93.0107
112.8728,93.0778
112.8823,93.1253
112.8823,93.3780
113.0087,93.6832
113.2423,93.9168
113.4359,93.9970
113.5030,94.0641
113.5832,94.2577
113.8168,94.4913
114.0326,94.5807
114.1220,94.6177
114.1220,94.6177
114.1220,94.6177
114.1220,94.6177
114.4524,94.6177
114.4524,94.6177
114.7577,94.4913
114.9913,94.2577
115.1177,93.9524
115.1177,93.6220
114.9913,93.3168
114.7577,93.0832
114.7447,93.0778
114.5641,93.0030
114.4970,92.9359
114.4168,92.7423
114.1832,92.5087
114.1550,92.4970
113.8780,92.3823
113.8780,92.3823
113.5476,92.3823
113.5476,92.3823
113.2892,92.4893
113.1943,92.4893
113.1272,92.4222
113.1177,92.3747
113.1177,92.1220
113.1177,92.1220
113.0659,91.9970
112.9913,91.8168
112.7577,91.5832
112.7086,91.5629
112.5641,91.5030
112.4970,91.4359
112.4730,91.3780
112.4168,91.2423
112.1832,91.0087
112.1694,91.0030
111.8780,90.8823
111.8780,90.8823
111.5476,90.8823
111.5476,90.8823
111.2423,91.0087
111.0087,91.2423
110.8823,91.5476
110.8823,91.5629
110.8460,91.6505
110.7583,91.6869
110.6706,91.6505
110.6437,91.6103
110.6177,91.5476
110.6103,91.5296
110.3766,91.2959
110.3124,91.2693
110.0714,91.1695
110.0714,91.1695
109.7410,91.1695
109.7410,91.1695
109.7410,91.1695
109.5475,91.2497
109.4525,91.2497
109.2590,91.1695
109.2590,91.1695
109.2590,91.1695
108.9286,91.1695
108.9286,91.1695
108.6234,91.2959
108.3897,91.5296
108.2633,91.8348
107.8397,91.8348
107.9913,91.6832
108.1177,91.3780
108.1177,91.0476
107.9913,90.7423
107.7577,90.5087
107.4524,90.3823
107.4524,90.3823
107.1220,90.3823
107.1220,90.3823
106.8168,90.5087
106.5832,90.7423
106.5030,90.9359
106.4359,91.0030
106.2423,91.0832
106.0087,91.3168
105.8823,91.6220
98.9835,91.6220
99.0097,88.6552
103.3264,88.6552
103.3264,89.1220
103.5051,89.5534
103.8352,89.8835
104.1402,90.0099
104.2666,90.0622
104.2666,90.0622
104.2666,90.0622
104.2666,90.0622
104.7334,90.0622
104.7334,90.0622
105.1648,89.8835
105.4949,89.5534
105.6736,89.1220
105.6736,88.6552
105.4949,88.2238
105.1648,87.8937
104.7334,87.7150
104.7334,87.7150
104.2666,87.7150
104.2666,87.7150
103.8352,87.8937
103.5051,88.2238
103.3264,88.6552
99.0097,88.6552
99.0195,87.5376
121.1318,87.5376
121.1318,88.0044
121.2227,88.2238
121.3105,88.4358
121.6406,88.7659
121.9456,88.8923
122.0720,88.9446
122.0720,88.9446
122.0720,88.9446
122.0720,88.9446
122.5388,88.9446
122.5388,88.9446
122.9702,88.7659
123.3003,88.4358
123.4790,88.0044
123.4790,87.5376
123.3003,87.1062
122.9702,86.7761
122.5388,86.5974
122.5388,86.5974
122.0720,86.5974
122.0720,86.5974
121.6406,86.7761
121.3105,87.1062
121.1318,87.5376
99.0195,87.5376
99.1012,78.2666
103.3264,78.2666
103.3264,78.7334
103.5051,79.1648
103.7686,79.4283
103.8049,79.5160
103.7686,79.6037
103.5051,79.8672
103.5051,79.8672
103.3264,80.2986
103.3264,80.7654
103.4315,81.0193
103.5051,81.1968
103.8352,81.5269
104.0983,81.6359
104.1654,81.7030
104.1654,81.7979
103.9868,82.2292
103.9868,82.7972
104.1744,83.2501
104.1744,83.3450
104.1073,83.4122
103.8352,83.5249
103.5051,83.8550
103.3264,84.2864
103.3264,84.7532
103.5051,85.1846
103.8352,85.5147
104.1402,85.6411
104.2666,85.6934
104.2666,85.6934
104.2666,85.6934
104.2666,85.6934
104.7334,85.6934
104.7334,85.6934
105.1648,85.5147
105.4949,85.1846
105.6736,84.7532
105.6736,84.2864
105.6011,84.1112
105.6011,84.0163
105.6682,83.9492
105.6914,83.9422
105.6984,83.9408
105.6984,83.9408
106.2231,83.7235
106.6247,83.3219
106.8420,82.7972
106.8420,82.2292
106.8420,82.2292
119.9888,82.2292
119.9888,82.2292
119.9888,82.7972
120.2061,83.3219
120.6077,83.7235
121.1324,83.9408
121.1395,83.9437
121.2066,84.0108
121.2066,84.1057
121.1318,84.2864
121.1318,84.7532
121.3105,85.1846
121.6406,85.5147
121.9456,85.6411
122.0720,85.6934
122.0720,85.6934
122.0720,85.6934
122.0720,85.6934
122.5388,85.6934
122.5388,85.6934
122.9702,85.5147
123.3003,85.1846
123.4790,84.7532
123.4790,84.2864
123.3003,83.8550
122.9702,83.5249
122.7198,83.4211
122.6527,83.3540
122.6527,83.2591
122.8440,82.7972
122.8440,82.2292
122.6616,81.7890
122.6616,81.6940
122.7287,81.6269
122.9702,81.5269
123.3003,81.1968
123.4790,80.7654
123.4790,80.2986
123.3003,79.8672
123.0368,79.6037
123.0005,79.5160
123.0368,79.4283
123.0578,79.4073
123.2691,79.1961
123.3567,79.1597
123.4444,79.1961
123.4713,79.2363
123.5421,79.4073
123.7758,79.6409
123.9916,79.7303
124.0810,79.7674
124.0810,79.7674
124.0810,79.7674
124.0810,79.7674
124.4114,79.7674
124.4114,79.7674
124.6049,79.6872
124.6999,79.6872
124.8453,79.7474
124.8934,79.7674
124.8934,79.7674
124.8934,79.7674
124.8934,79.7674
125.2238,79.7674
125.2238,79.7674
125.5290,79.6409
125.7627,79.4073
125.8891,79.1021
125.8891,78.7717
125.7627,78.4664
125.5290,78.2328
125.4648,78.2062
125.2238,78.1064
125.2238,78.1064
124.8934,78.1064
124.8934,78.1064
124.8934,78.1064
124.6999,78.1865
124.6049,78.1865
124.4114,78.1064
124.4114,78.1064
124.4114,78.1064
124.0810,78.1064
124.0810,78.1064
123.7758,78.2328
123.6867,78.3219
123.5990,78.3582
123.5113,78.3219
123.4870,78.2764
123.4837,78.2778
123.3194,77.8812
123.3003,77.8352
122.9702,77.5051
122.5388,77.3264
122.5388,77.3264
122.0720,77.3264
122.0720,77.3264
121.6406,77.5051
121.3105,77.8352
121.1318,78.2666
121.1318,78.7334
121.3105,79.1648
121.5740,79.4283
121.6103,79.5160
121.5740,79.6037
121.3105,79.8672
121.3105,79.8672
121.1318,80.2986
121.1318,80.7654
121.1770,80.8746
121.1946,80.9171
121.1976,80.9244
121.1976,81.0193
121.1305,81.0864
120.6077,81.3029
120.2061,81.7045
119.9888,82.2292
106.8420,82.2292
106.6247,81.7045
106.2231,81.3029
105.6984,81.0856
105.6871,81.0809
105.6884,81.0777
105.6222,81.0334
105.6037,80.9403
105.6108,80.9171
105.6736,80.7654
105.6736,80.2986
105.4949,79.8672
105.2314,79.6037
105.1951,79.5160
105.2314,79.4283
105.2524,79.4073
105.4949,79.1648
105.6736,78.7334
105.6736,78.2666
105.6596,78.2328
105.5140,77.8812
105.4949,77.8352
105.1648,77.5051
104.7334,77.3264
104.7334,77.3264
104.2666,77.3264
104.2666,77.3264
103.8352,77.5051
103.5051,77.8352
103.3264,78.2666
99.1012,78.2666
99.1438,73.4286
106.1695,73.4286
106.1695,73.7590
106.1695,73.7590
106.2497,73.9525
106.2497,74.0475
106.1695,74.2410
106.1695,74.2410
106.1695,74.5714
106.2711,74.8168
106.2959,74.8766
106.5296,75.1103
106.7057,75.1832
106.8348,75.2367
106.8348,75.2367
106.8348,75.2367
106.9181,75.2367
106.9408,75.2461
106.9655,75.2461
106.9830,75.2636
107.0057,75.2730
107.0152,75.2958
107.0326,75.3132
107.0326,75.3379
107.0421,75.3607
107.0326,75.4082
107.0158,75.4487
106.9487,75.5158
106.7114,75.6141
106.4777,75.8478
106.3513,76.1530
106.3513,76.4834
106.4777,76.7886
106.7114,77.0223
106.9272,77.1117
107.0166,77.1487
107.0166,77.1487
107.0166,77.1487
107.0166,77.1487
107.3470,77.1487
107.3470,77.1487
107.6522,77.0223
107.8859,76.7886
107.9842,76.5513
108.0513,76.4842
108.2886,76.3859
108.5223,76.1522
108.6487,75.8470
108.6487,75.5166
108.6484,75.5158
108.5997,75.3984
108.5223,75.2114
108.4329,75.1220
123.8823,75.1220
123.8823,75.4524
123.9493,75.6141
124.0087,75.7577
124.2423,75.9913
124.4582,76.0807
124.5476,76.1177
124.5476,76.1177
124.5476,76.1177
124.5476,76.1177
124.8780,76.1177
124.8780,76.1177
125.1832,75.9913
125.4168,75.7577
125.4970,75.5641
125.5641,75.4970
125.7577,75.4168
125.9913,75.1832
126.1177,74.8780
126.1177,74.5476
125.9913,74.2423
125.7577,74.0087
125.6221,73.9525
125.4524,73.8823
125.4524,73.8823
125.1220,73.8823
125.1220,73.8823
124.8168,74.0087
124.5832,74.2423
124.5030,74.4359
124.4359,74.5030
124.2423,74.5832
124.0087,74.8168
123.8823,75.1220
108.4329,75.1220
108.2886,74.9777
107.9834,74.8513
107.9834,74.8513
107.9001,74.8513
107.8125,74.8150
107.7761,74.7273
107.7856,74.6798
107.8305,74.5714
107.8305,74.5714
107.8305,74.2410
107.8305,74.2410
107.8106,74.1929
107.7503,74.0475
107.7503,73.9525
107.8305,73.7590
107.8305,73.4286
107.7041,73.1234
107.4704,72.8897
107.1652,72.7633
107.1652,72.7633
106.8348,72.7633
106.8348,72.7633
106.5296,72.8897
106.2959,73.1234
106.1695,73.4286
99.1438,73.4286
99.1538,72.2943
99.1624,71.3234
99.1994,71.2360
99.2863,71.2005
99.3383,71.2005
99.3383,71.2005
99.9633,70.9416
100.4416,70.4633
100.7005,69.8383
100.7005,69.1617
100.4416,68.5367
99.9633,68.0584
99.3383,67.7995
99.3383,67.7995
99.3185,67.7995
99.2308,67.7632
99.1945,67.6755
99.1945,67.6744
99.1987,67.1988
99.4667,36.7772
99.5038,36.6899
99.5918,36.6543
Z" /> 
<path style="fill:#000000; fill-opacity:1.0000; stroke:none;fill-rule:evenodd;"
d="M 101.5300,140.6712
101.8288,140.9700
101.8836,140.9700
101.3223,141.5313
101.3223,141.5313
101.3234,141.5324
101.5232,141.6152
101.5903,141.6823
101.5903,141.7772
101.5232,141.8443
101.3232,141.9272
100.9672,142.2832
100.8846,142.4826
100.8175,142.5497
100.7225,142.5497
100.6554,142.4826
100.6282,142.4167
100.5728,142.2832
100.2168,141.9272
100.0168,141.8443
99.9497,141.7772
99.9497,141.6823
100.0168,141.6152
100.2166,141.5324
100.2166,141.5324
100.2177,141.5313
99.6564,140.9700
99.7112,140.9700
100.0100,140.6712
100.0100,140.6164
100.5713,141.1777
100.5713,141.1777
100.5724,141.1766
100.5724,141.1766
100.6554,140.9761
100.7225,140.9090
100.8175,140.9090
100.8846,140.9761
100.9676,141.1766
100.9687,141.1777
101.5300,140.6164
Z" /> 
<path style="fill:#000000; fill-opacity:1.0000; stroke:none;fill-rule:evenodd;"
d="M 99.1214,99.9111
99.2080,99.9977
99.2832,100.0728
99.4832,100.1557
99.5503,100.2228
99.5503,100.3177
99.4832,100.3848
99.2834,100.4676
99.2823,100.4687
99.8436,101.0300
99.7888,101.0300
99.4900,101.3288
99.4900,101.3836
98.9203,100.8139
98.9203,100.8139
98.9027,100.7962
98.9097,99.9977
98.9468,99.9103
99.0348,99.8748
Z" /> 
<path style="fill:#000000; fill-opacity:1.0000; stroke:none;fill-rule:evenodd;"
d="M 101.3846,99.5174
101.4672,99.7168
101.8232,100.0728
102.0232,100.1557
102.0903,100.2228
102.0903,100.3177
102.0232,100.3848
101.8234,100.4676
101.8223,100.4687
102.3836,101.0300
102.3288,101.0300
102.0300,101.3288
102.0300,101.3836
101.4687,100.8223
101.4676,100.8234
101.3846,101.0239
101.3175,101.0910
101.2225,101.0910
101.1554,101.0239
101.0724,100.8234
101.0713,100.8223
101.0713,100.8223
100.5100,101.3836
100.5100,101.3288
100.2112,101.0300
100.1564,101.0300
100.7177,100.4687
100.7166,100.4676
100.5168,100.3848
100.4497,100.3177
100.4497,100.2228
100.5168,100.1557
100.7168,100.0728
101.0728,99.7168
101.1554,99.5174
101.2225,99.4503
101.3175,99.4503
Z" /> 
<path style="fill:#000000; fill-opacity:1.0000; stroke:none;fill-rule:evenodd;"
d="M 97.4567,36.4699
98.8131,36.5868
98.8974,36.6305
98.9260,36.7210
98.9239,36.7356
98.9162,36.7724
98.9162,36.7724
98.7185,59.2113
98.6445,67.6184
98.6440,67.6697
98.6440,67.6718
98.6440,67.6718
98.6440,67.6730
98.6440,67.6730
98.6488,67.6972
98.6300,67.7902
98.5745,67.8356
98.0367,68.0584
97.5584,68.5367
97.2995,69.1617
97.2995,69.8383
97.5584,70.4633
98.0367,70.9416
98.5436,71.1516
98.6107,71.2187
98.6175,71.2914
98.6119,71.3186
98.6119,71.3186
98.5933,73.4237
98.5923,73.5381
98.5774,75.2315
98.5683,76.2625
98.5507,78.2617
98.5497,78.3761
98.4690,87.5327
98.4690,87.5327
98.4680,87.6471
98.4592,88.6503
98.4582,88.7647
98.4330,91.6172
98.4330,91.6172
98.4320,91.7315
98.4207,93.0135
98.3783,97.8309
98.3412,97.9182
98.2532,97.9538
98.1854,97.9329
98.1768,97.9272
97.7117,97.7345
97.7117,97.7345
97.2083,97.7345
97.2083,97.7345
96.7432,97.9272
96.3972,98.2731
96.3095,98.3095
96.2218,98.2731
96.1880,98.1916
96.1861,98.1918
96.1855,98.1857
96.1855,98.1857
96.1565,98.0397
96.1565,98.0397
96.1565,98.0397
96.0813,97.9272
96.0458,97.8742
95.8803,97.7635
95.8803,97.7635
95.8803,97.7635
95.7343,97.7345
94.1057,97.7345
93.9597,97.7635
93.7942,97.8742
93.6835,98.0397
93.6835,98.0397
93.6545,98.1857
93.6545,99.8143
93.6835,99.9603
93.7573,100.0707
93.7942,100.1258
93.9597,100.2365
93.9597,100.2365
93.9597,100.2365
94.1057,100.2655
94.1057,100.2655
94.1061,100.2655
94.1063,100.2656
94.1118,100.2661
94.1116,100.2678
94.1938,100.3018
94.2301,100.3895
94.2023,100.4568
94.2023,100.4687
94.7636,101.0300
94.7088,101.0300
94.4100,101.3288
94.4100,101.3836
93.8487,100.8223
93.8476,100.8234
93.6550,101.2884
93.6550,101.7916
93.8476,102.2566
93.8487,102.2577
94.4100,101.6964
94.4100,101.7512
94.7088,102.0500
94.7636,102.0500
94.2023,102.6113
94.2023,102.6113
94.2034,102.6124
94.6684,102.8050
94.6684,102.8050
95.1716,102.8050
95.1716,102.8050
95.6366,102.6124
95.6366,102.6124
95.6377,102.6113
95.0764,102.0500
95.1312,102.0500
95.4300,101.7512
95.4300,101.6964
95.9913,102.2577
95.9924,102.2566
95.9924,102.2566
96.0754,102.0561
96.1425,101.9890
96.2375,101.9890
96.3046,102.0561
96.3876,102.2566
96.3887,102.2577
96.9500,101.6964
96.9500,101.7512
97.2488,102.0500
97.3036,102.0500
96.7423,102.6113
96.7423,102.6113
96.7434,102.6124
97.2084,102.8050
97.2084,102.8050
97.7116,102.8050
97.7116,102.8050
98.1636,102.6178
98.2585,102.6178
98.3257,102.6849
98.3351,102.7334
98.0129,139.3024
98.0129,139.3056
98.0129,139.3063
98.0129,139.3063
98.0548,139.5189
98.0750,139.5677
98.0740,139.6900
98.0547,139.7188
97.4700,140.3036
97.4700,140.2488
97.1712,139.9500
97.1164,139.9500
97.6777,139.3887
97.6766,139.3876
97.2116,139.1950
96.7084,139.1950
96.2434,139.3876
96.2423,139.3887
96.8036,139.9500
96.7488,139.9500
96.4500,140.2488
96.4500,140.3036
95.8887,139.7423
95.8876,139.7434
95.8046,139.9439
95.7375,140.0110
95.6425,140.0110
95.5754,139.9439
95.4924,139.7434
95.4913,139.7423
95.4913,139.7423
94.9300,140.3036
94.9300,140.2488
94.6312,139.9500
94.5764,139.9500
95.1377,139.3887
95.1366,139.3876
94.6716,139.1950
94.1684,139.1950
93.7034,139.3876
93.7023,139.3887
94.2636,139.9500
94.2088,139.9500
93.9100,140.2488
93.9100,140.3036
93.3487,139.7423
93.3476,139.7434
93.1550,140.2084
93.1550,140.7116
93.3476,141.1766
93.3487,141.1777
93.9100,140.6164
93.9100,140.6712
94.2088,140.9700
94.2636,140.9700
93.7023,141.5313
93.7023,141.5432
93.7302,141.6105
93.6938,141.6982
93.6116,141.7322
93.6118,141.7339
93.6063,141.7344
93.6062,141.7345
93.6057,141.7345
93.4597,141.7635
93.2942,141.8742
93.1835,142.0397
93.1835,142.0397
93.1545,142.1857
93.1545,143.8143
93.1835,143.9603
93.2573,144.0707
93.2942,144.1258
93.4597,144.2365
93.4597,144.2365
93.4597,144.2365
93.5327,144.2510
93.6057,144.2655
95.2343,144.2655
95.3803,144.2365
95.3803,144.2365
95.3803,144.2365
95.4081,144.2179
95.5458,144.1258
95.6565,143.9603
95.6855,143.8143
95.6855,143.8143
95.6861,143.8082
95.6880,143.8084
95.7218,143.7269
95.8095,143.6905
95.8972,143.7269
96.2432,144.0728
96.3711,144.1258
96.7083,144.2655
96.7083,144.2655
96.7083,144.2655
96.7083,144.2655
97.2117,144.2655
97.2117,144.2655
97.6768,144.0728
97.7623,143.9874
97.8500,143.9510
97.9377,143.9874
97.9740,144.0750
97.9714,144.1003
97.9706,144.1042
97.9706,144.1042
97.9598,145.3299
97.9588,145.4443
97.9510,146.3299
97.9500,146.4443
97.9302,148.6910
97.9246,148.7266
97.2962,150.7577
97.0812,151.4524
97.0000,151.7148
96.9608,152.2850
96.9565,152.3087
96.9568,152.3087
96.9563,152.3106
96.9563,152.3106
96.9416,152.3662
96.9385,152.3781
96.9324,152.4088
96.9324,152.4089
96.9233,152.4780
96.7640,154.8143
96.7540,154.9613
96.6778,156.0789
96.4561,159.3301
96.0298,165.5830
96.0357,165.7094
96.0361,165.7130
96.0355,165.7130
96.0365,165.7346
95.9369,167.1847
95.9328,167.2087
95.9142,167.2774
95.8812,167.7625
95.6209,171.5796
95.6199,171.5984
95.6197,171.6068
95.6201,171.6134
95.6168,171.6136
95.5990,171.6961
95.5192,171.7475
95.4970,171.7495
67.9369,171.7495
67.8492,171.7132
67.8129,171.6255
67.8143,171.6065
68.3978,167.8348
77.1695,167.8348
77.1695,168.1652
77.2477,168.3541
77.2959,168.4704
77.5296,168.7041
77.7408,168.7916
77.8348,168.8305
77.8348,168.8305
77.8348,168.8305
77.8348,168.8305
78.1652,168.8305
78.1652,168.8305
78.2592,168.7916
78.3541,168.7916
78.4212,168.8587
78.4212,168.9536
78.3823,169.0476
78.3823,169.0476
78.3823,169.3780
78.5012,169.6652
78.5087,169.6832
78.7423,169.9168
78.8717,169.9704
78.9359,169.9970
79.0030,170.0641
79.0610,170.2041
79.0832,170.2577
79.3168,170.4913
79.5326,170.5807
79.6220,170.6177
79.6220,170.6177
79.6220,170.6177
79.6220,170.6177
79.9524,170.6177
79.9524,170.6177
80.2577,170.4913
80.4142,170.3348
90.6695,170.3348
90.6695,170.6652
90.7959,170.9704
91.0296,171.2041
91.2454,171.2935
91.3348,171.3305
91.3348,171.3305
91.3348,171.3305
91.3348,171.3305
91.6652,171.3305
91.6652,171.3305
91.9704,171.2041
92.2041,170.9704
92.3305,170.6652
92.3305,170.3348
92.2041,170.0296
91.9704,169.7959
91.6652,169.6695
91.6652,169.6695
91.3348,169.6695
91.3348,169.6695
91.0296,169.7959
90.7959,170.0296
90.6695,170.3348
80.4142,170.3348
80.4913,170.2577
80.6177,169.9524
80.6177,169.6220
80.4988,169.3348
85.6695,169.3348
85.6695,169.6652
85.7885,169.9524
85.7959,169.9704
86.0296,170.2041
86.1590,170.2577
86.3348,170.3305
86.3348,170.3305
86.3348,170.3305
86.3348,170.3305
86.6652,170.3305
86.6652,170.3305
86.9704,170.2041
87.2041,169.9704
87.3305,169.6652
87.3305,169.3348
87.2041,169.0296
86.9704,168.7959
86.6652,168.6695
86.6652,168.6695
86.3348,168.6695
86.3348,168.6695
86.0296,168.7959
85.7959,169.0296
85.6695,169.3348
80.4988,169.3348
80.4913,169.3168
80.2577,169.0832
80.1718,169.0476
80.0641,169.0030
79.9970,168.9359
79.9650,168.8587
79.9168,168.7423
79.6832,168.5087
79.5908,168.4704
79.3780,168.3823
79.3780,168.3823
79.0476,168.3823
79.0476,168.3823
79.0476,168.3823
78.9536,168.4212
78.8587,168.4212
78.7916,168.3541
78.7916,168.2592
78.8305,168.1652
78.8305,167.8348
78.7041,167.5296
78.4704,167.2959
78.4257,167.2774
78.1652,167.1695
78.1652,167.1695
77.8348,167.1695
77.8348,167.1695
77.5296,167.2959
77.2959,167.5296
77.1695,167.8348
68.3978,167.8348
68.4026,167.8036
68.5814,166.6474
69.7303,159.2206
73.1182,159.2206
73.1182,159.6874
73.2834,160.0863
73.2969,160.1188
73.6270,160.4489
73.8302,160.5331
73.8991,160.5616
73.9662,160.6287
73.9662,160.7237
73.7786,161.1766
73.7786,161.1766
73.7786,161.7446
73.9572,162.1759
73.9572,162.2708
73.8901,162.3379
73.6270,162.4469
73.2969,162.7770
73.1182,163.2084
73.1182,163.6752
73.2969,164.1066
73.5604,164.3701
73.5967,164.4578
73.5604,164.5455
73.2969,164.8090
73.2969,164.8090
73.1182,165.2404
73.1182,165.7072
73.2879,166.1169
73.2969,166.1386
73.6270,166.4687
73.9320,166.5951
74.0584,166.6474
74.0584,166.6474
74.0584,166.6474
74.0584,166.6474
74.5252,166.6474
74.5252,166.6474
74.9566,166.4687
75.2867,166.1386
75.4654,165.7072
75.4654,165.2404
75.2867,164.8090
75.0232,164.5455
74.9869,164.4578
75.0232,164.3701
75.1462,164.2471
75.2867,164.1066
75.4654,163.6752
75.4654,163.2084
75.4026,163.0567
75.4026,162.9618
75.4697,162.8947
75.4875,162.8893
75.4902,162.8882
75.4902,162.8882
76.0149,162.6709
76.4165,162.2693
76.6338,161.7446
76.6338,161.1766
76.6338,161.1766
89.7806,161.1766
89.7806,161.1766
89.7806,161.7446
89.9979,162.2693
90.3995,162.6709
90.9223,162.8874
90.9894,162.9545
90.9894,163.0494
90.9236,163.2084
90.9236,163.6752
91.1023,164.1066
91.3658,164.3701
91.4021,164.4578
91.3658,164.5455
91.1023,164.8090
91.1023,164.8090
90.9236,165.2404
90.9236,165.7072
91.0933,166.1169
91.1023,166.1386
91.4324,166.4687
91.7374,166.5951
91.8638,166.6474
91.8638,166.6474
91.8638,166.6474
91.8638,166.6474
92.3306,166.6474
92.3306,166.6474
92.7620,166.4687
93.0921,166.1386
93.2708,165.7072
93.2708,165.2404
93.0921,164.8090
92.8286,164.5455
92.7923,164.4578
92.8286,164.3701
92.9516,164.2471
93.0921,164.1066
93.2708,163.6752
93.2708,163.2084
93.0921,162.7770
92.7620,162.4469
92.5205,162.3469
92.4534,162.2797
92.4534,162.1848
92.6358,161.7446
92.6358,161.1766
92.4444,160.7147
92.4444,160.6198
92.5116,160.5527
92.7620,160.4489
93.0921,160.1188
93.2708,159.6874
93.2708,159.2206
93.0921,158.7892
92.7620,158.4591
92.3306,158.2804
92.3306,158.2804
91.8638,158.2804
91.8638,158.2804
91.4324,158.4591
91.1023,158.7892
90.9236,159.2206
90.9236,159.6874
90.9984,159.8681
90.9984,159.9630
90.9313,160.0301
90.3995,160.2503
89.9979,160.6519
89.7806,161.1766
76.6338,161.1766
76.4165,160.6519
76.0149,160.2503
75.4902,160.0330
75.4902,160.0330
75.4902,160.0330
75.4832,160.0316
75.4043,159.9789
75.3858,159.8858
75.3929,159.8626
75.4654,159.6874
75.4654,159.6874
75.4654,159.2206
75.2867,158.7892
74.9566,158.4591
74.5252,158.2804
74.5252,158.2804
74.0584,158.2804
74.0584,158.2804
73.6270,158.4591
73.2969,158.7892
73.1182,159.2206
69.7303,159.2206
70.1425,156.5558
70.4060,154.8518
73.1182,154.8518
73.1182,155.3186
73.2091,155.5380
73.2969,155.7500
73.6270,156.0801
73.9320,156.2065
74.0584,156.2588
74.0584,156.2588
74.0584,156.2588
74.0584,156.2588
74.5252,156.2588
74.5252,156.2588
74.9566,156.0801
75.0674,155.9694
90.9236,155.9694
90.9236,156.4362
91.0457,156.7310
91.1023,156.8676
91.4324,157.1977
91.7374,157.3241
91.8638,157.3764
91.8638,157.3764
91.8638,157.3764
91.8638,157.3764
92.3306,157.3764
92.3306,157.3764
92.7620,157.1977
93.0921,156.8676
93.2708,156.4362
93.2708,155.9694
93.2294,155.8695
93.1234,155.6134
93.0921,155.5380
92.7620,155.2079
92.3306,155.0292
92.3306,155.0292
91.8638,155.0292
91.8638,155.0292
91.4324,155.2079
91.1023,155.5380
90.9236,155.9694
75.0674,155.9694
75.2867,155.7500
75.4654,155.3186
75.4654,154.8518
75.2867,154.4204
74.9566,154.0903
74.5252,153.9116
74.5252,153.9116
74.0584,153.9116
74.0584,153.9116
73.6270,154.0903
73.2969,154.4204
73.1182,154.8518
70.4060,154.8518
70.4109,154.8206
70.8727,151.8348
75.6695,151.8348
75.6695,152.1652
75.7704,152.4089
75.7959,152.4704
76.0296,152.7041
76.2454,152.7935
76.3348,152.8305
76.3348,152.8305
76.3348,152.8305
76.3348,152.8305
76.6652,152.8305
76.6652,152.8305
76.9704,152.7041
77.2041,152.4704
77.3305,152.1652
77.3305,151.8348
77.2041,151.5296
76.9704,151.2959
76.8781,151.2577
76.6652,151.1695
76.6652,151.1695
76.3348,151.1695
76.3348,151.1695
76.0296,151.2959
75.7959,151.5296
75.6695,151.8348
70.8727,151.8348
70.8775,151.8036
71.2265,149.5476
77.8823,149.5476
77.8823,149.8780
78.0087,150.1832
78.2423,150.4168
78.4029,150.4833
78.4359,150.4970
78.5030,150.5641
78.5832,150.7577
78.8168,150.9913
79.0326,151.0807
79.1220,151.1177
79.1220,151.1177
79.1220,151.1177
79.1220,151.1177
79.4524,151.1177
79.4524,151.1177
79.7577,150.9913
79.9913,150.7577
80.1177,150.4524
80.1177,150.1220
80.0869,150.0476
80.3823,150.0476
80.3823,150.3780
80.5087,150.6832
80.7423,150.9168
80.9221,150.9913
80.9359,150.9970
81.0030,151.0641
81.0252,151.1177
81.0832,151.2577
81.3168,151.4913
81.4686,151.5542
81.6220,151.6177
81.6220,151.6177
81.6220,151.6177
81.6220,151.6177
81.9524,151.6177
81.9524,151.6177
82.2577,151.4913
82.4913,151.2577
82.5475,151.1220
87.3823,151.1220
87.3823,151.4524
87.4909,151.7148
87.5087,151.7577
87.7423,151.9913
87.8553,152.0381
88.0476,152.1177
88.0476,152.1177
88.0476,152.1177
88.0476,152.1177
88.3780,152.1177
88.3780,152.1177
88.6832,151.9913
88.9168,151.7577
88.9970,151.5641
89.0641,151.4970
89.2577,151.4168
89.4913,151.1832
89.5166,151.1220
92.3823,151.1220
92.3823,151.4524
92.4909,151.7148
92.5087,151.7577
92.7423,151.9913
92.8553,152.0381
93.0476,152.1177
93.0476,152.1177
93.0476,152.1177
93.0476,152.1177
93.3780,152.1177
93.3780,152.1177
93.6832,151.9913
93.9168,151.7577
93.9970,151.5641
94.0641,151.4970
94.2577,151.4168
94.4913,151.1832
94.6177,150.8780
94.6177,150.5476
94.6049,150.5167
94.5807,150.4582
94.4913,150.2423
94.2577,150.0087
94.2439,150.0030
93.9524,149.8823
93.9524,149.8823
93.6220,149.8823
93.6220,149.8823
93.3168,150.0087
93.0832,150.2423
93.0030,150.4359
92.9359,150.5030
92.7423,150.5832
92.5087,150.8168
92.3823,151.1220
89.5166,151.1220
89.6177,150.8780
89.6177,150.5476
89.6049,150.5167
89.5807,150.4582
89.4913,150.2423
89.2577,150.0087
89.2439,150.0030
88.9524,149.8823
88.9524,149.8823
88.6220,149.8823
88.6220,149.8823
88.3168,150.0087
88.0832,150.2423
88.0030,150.4359
87.9359,150.5030
87.7423,150.5832
87.5087,150.8168
87.3823,151.1220
82.5475,151.1220
82.6177,150.9524
82.6177,150.6220
82.4913,150.3168
82.2577,150.0832
82.2568,150.0828
82.0641,150.0030
81.9970,149.9359
81.9168,149.7423
81.6832,149.5087
81.5074,149.4359
81.3780,149.3823
81.3780,149.3823
81.0476,149.3823
81.0476,149.3823
80.7423,149.5087
80.5087,149.7423
80.3823,150.0476
80.0869,150.0476
79.9913,149.8168
79.7577,149.5832
79.5641,149.5030
79.4970,149.4359
79.4855,149.4080
79.4551,149.3348
85.2633,149.3348
85.2633,149.6652
85.3897,149.9704
85.6234,150.2041
85.8392,150.2935
85.9286,150.3305
85.9286,150.3305
85.9286,150.3305
85.9286,150.3305
86.2590,150.3305
86.2590,150.3305
86.4525,150.2503
86.5475,150.2503
86.6929,150.3106
86.7410,150.3305
86.7410,150.3305
86.7410,150.3305
86.7410,150.3305
87.0714,150.3305
87.0714,150.3305
87.3766,150.2041
87.6103,149.9704
87.7367,149.6652
87.7367,149.3348
87.6103,149.0296
87.3766,148.7959
87.3124,148.7693
87.0714,148.6695
87.0714,148.6695
86.7410,148.6695
86.7410,148.6695
86.7410,148.6695
86.5475,148.7497
86.4525,148.7497
86.2590,148.6695
86.2590,148.6695
86.2590,148.6695
85.9286,148.6695
85.9286,148.6695
85.6234,148.7959
85.3897,149.0296
85.2633,149.3348
79.4551,149.3348
79.4168,149.2423
79.1832,149.0087
78.8780,148.8823
78.8780,148.8823
78.5476,148.8823
78.5476,148.8823
78.2423,149.0087
78.0087,149.2423
77.8823,149.5476
71.2265,149.5476
71.2313,149.5164
72.6760,140.1772
72.7929,139.4211
74.9327,125.5881
74.9327,125.5881
74.9358,125.5680
74.9366,125.5671
74.9482,125.4877
74.9639,125.3862
74.9136,125.3175
74.8844,125.2619
74.8664,125.2530
74.8485,125.2286
74.8413,125.2188
74.8413,125.2188
74.8036,125.2129
74.7627,125.1990
74.3615,124.9776
73.9007,124.7233
71.0965,123.1758
71.0869,123.1699
67.5778,120.7946
67.5687,120.7879
64.2894,118.1043
64.2810,118.0968
61.3021,115.1698
61.2584,115.1270
61.2508,115.1187
58.5099,111.8871
58.5030,111.8782
56.0663,108.4114
56.0603,108.4019
54.4090,105.5304
53.9479,104.7285
53.9428,104.7185
52.5966,101.7916
52.3833,101.3280
52.1721,100.8687
52.1679,100.8583
52.0846,100.6232
50.7535,96.8639
50.7503,96.8531
50.0543,94.1220
76.3823,94.1220
76.3823,94.4524
76.4285,94.5641
76.5087,94.7577
76.7423,94.9913
76.9582,95.0807
77.0476,95.1177
77.0476,95.1177
77.0476,95.1177
77.0476,95.1177
77.3780,95.1177
77.3780,95.1177
77.6832,94.9913
77.9168,94.7577
77.9970,94.5641
78.0641,94.4970
78.2577,94.4168
78.4913,94.1832
78.5166,94.1220
84.8823,94.1220
84.8823,94.4524
84.9285,94.5641
85.0087,94.7577
85.2423,94.9913
85.4582,95.0807
85.5476,95.1177
85.5476,95.1177
85.5476,95.1177
85.5476,95.1177
85.8780,95.1177
85.8780,95.1177
86.1832,94.9913
86.4168,94.7577
86.4970,94.5641
86.5641,94.4970
86.7390,94.4246
86.8339,94.4246
86.8803,94.4626
86.8811,94.4618
86.8892,94.4699
86.8896,94.4702
86.8897,94.4704
87.1234,94.7041
87.1234,94.7041
87.2528,94.7577
87.4286,94.8305
87.4286,94.8305
87.4286,94.8305
87.4286,94.8305
87.7590,94.8305
87.7590,94.8305
87.9525,94.7503
88.0475,94.7503
88.1929,94.8106
88.2410,94.8305
88.2410,94.8305
88.2410,94.8305
88.2410,94.8305
88.5714,94.8305
88.5714,94.8305
88.8766,94.7041
89.1103,94.4704
89.2367,94.1652
89.2367,93.8348
89.1103,93.5296
88.8766,93.2959
88.8103,93.2685
88.5714,93.1695
88.5714,93.1695
88.2410,93.1695
88.2410,93.1695
88.2410,93.1695
88.0475,93.2497
87.9525,93.2497
87.7590,93.1695
87.7590,93.1695
87.7590,93.1695
87.4286,93.1695
87.4286,93.1695
87.1420,93.2882
87.0471,93.2882
87.0007,93.2502
86.9999,93.2510
86.9918,93.2429
86.9914,93.2425
86.9913,93.2423
86.7577,93.0087
86.4524,92.8823
86.4524,92.8823
86.1220,92.8823
86.1220,92.8823
85.8168,93.0087
85.5832,93.2423
85.5030,93.4359
85.4359,93.5030
85.2423,93.5832
85.0087,93.8168
84.8823,94.1220
78.5166,94.1220
78.6177,93.8780
78.6177,93.5476
78.6049,93.5167
78.5807,93.4582
78.4913,93.2423
78.3710,93.1220
79.8823,93.1220
79.8823,93.4524
80.0087,93.7577
80.2423,93.9913
80.4582,94.0807
80.5476,94.1177
80.5476,94.1177
80.5476,94.1177
80.5476,94.1177
80.8780,94.1177
80.8780,94.1177
81.1832,93.9913
81.4168,93.7577
81.4970,93.5641
81.5641,93.4970
81.7577,93.4168
81.9913,93.1832
82.1177,92.8780
82.1177,92.5476
82.0906,92.4821
82.0715,92.4359
81.9913,92.2423
81.7577,92.0087
81.4524,91.8823
81.4524,91.8823
81.1220,91.8823
81.1220,91.8823
80.8168,92.0087
80.5832,92.2423
80.5030,92.4359
80.4359,92.5030
80.2423,92.5832
80.0087,92.8168
79.8823,93.1220
78.3710,93.1220
78.2577,93.0087
77.9524,92.8823
77.9524,92.8823
77.6220,92.8823
77.6220,92.8823
77.3168,93.0087
77.0832,93.2423
77.0030,93.4359
76.9359,93.5030
76.7423,93.5832
76.5087,93.8168
76.3823,94.1220
50.0543,94.1220
49.7372,92.8780
49.7038,92.7469
49.7015,92.7359
49.0364,88.5814
72.4182,88.5814
72.4182,89.0482
72.4995,89.2446
72.5969,89.4796
72.9270,89.8097
73.2320,89.9361
73.3584,89.9884
73.3584,89.9884
73.3584,89.9884
73.3584,89.9884
73.8252,89.9884
73.8252,89.9884
74.2566,89.8097
74.5867,89.4796
74.7654,89.0482
74.7654,88.5814
74.5867,88.1500
74.2566,87.8199
73.8252,87.6412
73.8252,87.6412
73.3584,87.6412
73.3584,87.6412
72.9270,87.8199
72.5969,88.1500
72.4182,88.5814
49.0364,88.5814
49.0317,88.5517
49.0304,88.5405
49.0301,88.5356
48.9571,87.4638
90.2236,87.4638
90.2236,87.9306
90.3145,88.1500
90.4023,88.3620
90.7324,88.6921
91.0374,88.8185
91.1638,88.8708
91.1638,88.8708
91.1638,88.8708
91.1638,88.8708
91.6306,88.8708
91.6306,88.8708
92.0620,88.6921
92.3921,88.3620
92.5708,87.9306
92.5708,87.4638
92.3921,87.0324
92.0620,86.7023
91.6306,86.5236
91.6306,86.5236
91.1638,86.5236
91.1638,86.5236
90.7324,86.7023
90.4023,87.0324
90.2236,87.4638
48.9571,87.4638
48.7426,84.3129
48.7423,84.3016
48.7444,84.2126
48.8390,80.0653
48.8397,80.0541
49.0520,78.1928
72.4182,78.1928
72.4182,78.6596
72.5969,79.0910
72.8604,79.3545
72.8967,79.4422
72.8604,79.5299
72.5969,79.7934
72.5969,79.7934
72.4182,80.2248
72.4182,80.6916
72.5233,80.9455
72.5969,81.1230
72.9270,81.4531
73.1901,81.5621
73.2572,81.6292
73.2572,81.7241
73.0786,82.1554
73.0786,82.7234
73.2662,83.1763
73.2662,83.2712
73.1991,83.3384
72.9270,83.4511
72.5969,83.7812
72.4182,84.2126
72.4182,84.6794
72.5359,84.9635
72.5969,85.1108
72.9270,85.4409
73.2320,85.5673
73.3584,85.6196
73.3584,85.6196
73.3584,85.6196
73.3584,85.6196
73.8252,85.6196
73.8252,85.6196
74.2566,85.4409
74.5867,85.1108
74.7654,84.6794
74.7654,84.2126
74.6929,84.0374
74.6929,83.9425
74.7600,83.8754
74.7832,83.8684
74.7902,83.8670
74.7902,83.8670
75.3149,83.6497
75.7165,83.2481
75.9338,82.7234
75.9338,82.1554
75.9338,82.1554
89.0806,82.1554
89.0806,82.7234
89.2682,83.1763
89.2979,83.2481
89.6995,83.6497
90.2242,83.8670
90.2313,83.8699
90.2984,83.9370
90.2984,84.0319
90.2236,84.2126
90.2236,84.6794
90.3413,84.9635
90.4023,85.1108
90.7324,85.4409
91.0374,85.5673
91.1638,85.6196
91.1638,85.6196
91.1638,85.6196
91.1638,85.6196
91.6306,85.6196
91.6306,85.6196
92.0620,85.4409
92.3921,85.1108
92.5708,84.6794
92.5708,84.2126
92.3921,83.7812
92.0620,83.4511
91.8116,83.3473
91.7445,83.2802
91.7445,83.1853
91.9358,82.7234
91.9358,82.1554
91.7534,81.7152
91.7534,81.6202
91.8205,81.5531
92.0620,81.4531
92.3921,81.1230
92.5708,80.6916
92.5708,80.2248
92.3921,79.7934
92.1286,79.5299
92.0923,79.4422
92.1286,79.3545
92.1778,79.3053
92.3921,79.0910
92.5708,78.6596
92.5708,78.1928
92.3921,77.7614
92.0620,77.4313
91.6306,77.2526
91.6306,77.2526
91.1638,77.2526
91.1638,77.2526
90.7324,77.4313
90.4023,77.7614
90.2236,78.1928
90.2236,78.6596
90.4023,79.0910
90.6658,79.3545
90.7021,79.4422
90.6658,79.5299
90.4023,79.7934
90.4023,79.7934
90.2236,80.2248
90.2236,80.6916
90.2508,80.7573
90.2864,80.8433
90.2894,80.8506
90.2894,80.9455
90.2223,81.0126
89.6995,81.2291
89.2979,81.6307
89.0806,82.1554
75.9338,82.1554
75.7165,81.6307
75.3149,81.2291
74.7902,81.0118
74.7789,81.0071
74.7802,81.0039
74.7140,80.9596
74.6955,80.8665
74.7026,80.8433
74.7654,80.6916
74.7654,80.2248
74.5867,79.7934
74.3232,79.5299
74.2869,79.4422
74.3232,79.3545
74.3724,79.3053
74.5867,79.0910
74.7654,78.6596
74.7654,78.1928
74.5867,77.7614
74.2566,77.4313
73.8252,77.2526
73.8252,77.2526
73.3584,77.2526
73.3584,77.2526
72.9270,77.4313
72.5969,77.7614
72.4182,78.1928
49.0520,78.1928
49.3200,75.8439
49.3215,75.8348
70.1695,75.8348
70.1695,76.1652
70.2885,76.4524
70.2959,76.4704
70.5296,76.7041
70.6590,76.7577
70.8348,76.8305
70.8348,76.8305
70.8348,76.8305
70.8348,76.8305
71.1652,76.8305
71.1652,76.8305
71.4704,76.7041
71.7041,76.4704
71.8305,76.1652
71.8305,75.8348
71.8305,75.8348
74.6695,75.8348
74.6695,76.1652
74.7885,76.4524
74.7959,76.4704
75.0296,76.7041
75.1590,76.7577
75.3348,76.8305
75.3348,76.8305
75.3348,76.8305
75.3348,76.8305
75.6652,76.8305
75.6652,76.8305
75.9704,76.7041
76.2041,76.4704
76.3305,76.1652
76.3305,75.8348
76.3150,75.7974
76.2902,75.7375
76.2041,75.5296
75.9704,75.2959
75.6652,75.1695
75.6652,75.1695
75.3348,75.1695
75.3348,75.1695
75.0296,75.2959
74.7959,75.5296
74.6695,75.8348
71.8305,75.8348
71.8150,75.7974
71.7902,75.7375
71.7041,75.5296
71.4704,75.2959
71.1652,75.1695
71.1652,75.1695
70.8348,75.1695
70.8348,75.1695
70.5296,75.2959
70.2959,75.5296
70.1695,75.8348
49.3215,75.8348
49.3218,75.8328
49.3251,75.8168
49.9237,72.9286
75.6695,72.9286
75.6695,73.2590
75.6695,73.2590
75.7497,73.4525
75.7497,73.5475
75.6695,73.7410
75.6695,73.7410
75.6695,74.0714
75.7959,74.3766
76.0296,74.6103
76.1426,74.6571
76.3348,74.7367
76.3348,74.7367
76.3348,74.7367
76.3348,74.7367
76.6652,74.7367
76.6652,74.7367
76.9704,74.6103
77.2041,74.3766
77.2214,74.3348
87.1695,74.3348
87.1695,74.6652
87.2477,74.8541
87.2959,74.9704
87.5296,75.2041
87.7033,75.2760
87.8348,75.3305
87.8348,75.3305
87.8348,75.3305
87.8348,75.3305
88.1652,75.3305
88.1652,75.3305
88.2592,75.2916
88.3541,75.2916
88.4212,75.3587
88.4212,75.4536
88.3823,75.5476
88.3823,75.5476
88.3823,75.8780
88.5012,76.1652
88.5087,76.1832
88.7423,76.4168
88.8717,76.4704
88.9359,76.4970
89.0030,76.5641
89.0610,76.7041
89.0832,76.7577
89.3168,76.9913
89.5326,77.0807
89.6220,77.1177
89.6220,77.1177
89.6220,77.1177
89.6220,77.1177
89.9524,77.1177
89.9524,77.1177
90.2577,76.9913
90.4913,76.7577
90.6177,76.4524
90.6177,76.1220
90.4913,75.8168
90.2577,75.5832
90.1718,75.5476
90.0641,75.5030
89.9970,75.4359
89.9564,75.3379
89.9168,75.2423
89.6832,75.0087
89.5908,74.9704
89.3780,74.8823
89.3780,74.8823
89.0476,74.8823
89.0476,74.8823
89.0476,74.8823
88.9536,74.9212
88.8587,74.9212
88.7916,74.8541
88.7916,74.7592
88.8305,74.6652
88.8305,74.3348
88.8058,74.2751
88.7214,74.0714
88.7041,74.0296
88.4704,73.7959
88.1652,73.6695
88.1652,73.6695
87.8348,73.6695
87.8348,73.6695
87.5296,73.7959
87.2959,74.0296
87.1695,74.3348
77.2214,74.3348
77.3305,74.0714
77.3305,73.7410
77.3305,73.7410
77.2873,73.6368
77.2503,73.5475
77.2503,73.4525
77.2991,73.3348
89.1695,73.3348
89.1695,73.6652
89.2885,73.9525
89.2959,73.9704
89.5296,74.2041
89.7011,74.2751
89.8348,74.3305
89.8348,74.3305
89.8348,74.3305
89.8348,74.3305
90.1652,74.3305
90.1652,74.3305
90.4704,74.2041
90.7041,73.9704
90.8305,73.6652
90.8305,73.3348
90.7041,73.0296
90.4704,72.7959
90.1652,72.6695
90.1652,72.6695
89.8348,72.6695
89.8348,72.6695
89.5296,72.7959
89.2959,73.0296
89.1695,73.3348
77.2991,73.3348
77.3305,73.2590
77.3305,72.9286
77.3150,72.8912
77.2755,72.7959
77.2041,72.6234
76.9704,72.3897
76.6652,72.2633
76.6652,72.2633
76.3348,72.2633
76.3348,72.2633
76.0296,72.3897
75.7959,72.6234
75.6695,72.9286
49.9237,72.9286
50.1817,71.6835
50.1845,71.6727
51.4171,67.6184
51.4208,67.6078
53.0158,63.6820
53.0205,63.6718
54.9649,59.9067
54.9705,59.8970
57.2481,56.3237
57.2546,56.3145
59.8468,52.9624
59.8541,52.9539
62.7395,49.8506
62.7475,49.8427
65.9024,47.0137
65.9111,47.0066
69.3094,44.4753
69.3187,44.4690
72.9325,42.2562
72.9423,42.2508
76.7419,40.3747
76.7521,40.3702
80.7061,38.8463
80.7167,38.8427
84.7926,37.6835
84.8035,37.6809
88.9676,36.8959
88.9787,36.8944
93.1969,36.4901
93.2081,36.4896
97.4455,36.4694
Z" /> 
<path style="fill:#000000; fill-opacity:1.0000; stroke:none;fill-rule:evenodd;"
d="M 96.4500,140.6712
96.7488,140.9700
96.8036,140.9700
96.2423,141.5313
96.2423,141.5313
96.2434,141.5324
96.4432,141.6152
96.5103,141.6823
96.5103,141.7772
96.4432,141.8443
96.2432,141.9272
95.8972,142.2731
95.8095,142.3095
95.7218,142.2731
95.6880,142.1916
95.6861,142.1918
95.6855,142.1857
95.6855,142.1857
95.6565,142.0397
95.6565,142.0397
95.6565,142.0397
95.6010,141.9567
95.5458,141.8742
95.3803,141.7635
95.3803,141.7635
95.3803,141.7635
95.2343,141.7345
95.2338,141.7345
95.2337,141.7344
95.2282,141.7339
95.2284,141.7322
95.1462,141.6982
95.1098,141.6105
95.1377,141.5431
95.1377,141.5313
94.5764,140.9700
94.6312,140.9700
94.9300,140.6712
94.9300,140.6164
95.4913,141.1777
95.4924,141.1766
95.4924,141.1766
95.5754,140.9761
95.6425,140.9090
95.7375,140.9090
95.8046,140.9761
95.8876,141.1766
95.8887,141.1777
96.4500,140.6164
Z" /> 
<path style="fill:#000000; fill-opacity:1.0000; stroke:none;fill-rule:evenodd;"
d="M 98.0347,141.1812
98.0609,141.2443
98.0603,141.3195
98.0365,141.3754
97.9928,141.5857
97.9928,141.5857
97.9903,141.8645
97.9903,141.8645
97.9903,141.8646
97.9903,141.8670
97.9903,141.8671
97.9903,141.8676
97.9903,141.8676
98.0030,141.9324
97.9843,142.0254
97.9053,142.0780
97.8122,142.0593
97.7937,142.0440
97.6768,141.9272
97.4768,141.8443
97.4097,141.7772
97.4097,141.6823
97.4768,141.6152
97.6766,141.5324
97.6766,141.5324
97.6777,141.5313
97.1164,140.9700
97.1712,140.9700
97.4700,140.6712
97.4700,140.6164
Z" /> 
<path style="fill:#000000; fill-opacity:1.0000; stroke:none;fill-rule:evenodd;"
d="M 96.3972,99.7269
96.7432,100.0728
96.9432,100.1557
97.0103,100.2228
97.0103,100.3177
96.9432,100.3848
96.7434,100.4676
96.7423,100.4687
96.7423,100.4687
97.3036,101.0300
97.2488,101.0300
96.9500,101.3288
96.9500,101.3836
96.3887,100.8223
96.3876,100.8234
96.3046,101.0239
96.2375,101.0910
96.1425,101.0910
96.0754,101.0239
95.9924,100.8234
95.9913,100.8223
95.9913,100.8223
95.4300,101.3836
95.4300,101.3288
95.1312,101.0300
95.0764,101.0300
95.6377,100.4687
95.6377,100.4568
95.6098,100.3895
95.6462,100.3018
95.7284,100.2678
95.7282,100.2661
95.7337,100.2656
95.7338,100.2655
95.7343,100.2655
95.8803,100.2365
95.8803,100.2365
95.8803,100.2365
95.9081,100.2179
96.0458,100.1258
96.1565,99.9603
96.1855,99.8143
96.1855,99.8143
96.1861,99.8082
96.1880,99.8084
96.2218,99.7269
96.3095,99.6905
Z" /> 
</g> 
</svg>
