<?xml version="1.0" standalone="no"?>
 <!DOCTYPE svg PUBLIC "-//W3C//DTD SVG 1.1//EN" 
 "http://www.w3.org/Graphics/SVG/1.1/DTD/svg11.dtd"> 
<svg
  xmlns:svg="http://www.w3.org/2000/svg"
  xmlns="http://www.w3.org/2000/svg"
  xmlns:xlink="http://www.w3.org/1999/xlink"
  version="1.1"
  width="297.0022mm" height="210.0072mm" viewBox="0.0000 0.0000 297.0022 210.0072">
<title>SVG Image created as SUM25-BottomSilkLayer.svg date 2025/06/25 15:42:16 </title>
  <desc>Image generated by PCBNEW </desc>
<g style="fill:#000000; fill-opacity:1.0000;stroke:#000000; stroke-opacity:1.0000;
stroke-linecap:round; stroke-linejoin:round;"
 transform="translate(0 0) scale(1 1)">
</g>
<g style="fill:none; 
stroke:#000000; stroke-width:0.1500; stroke-opacity:1; 
stroke-linecap:round; stroke-linejoin:round;">
<text x="83.3088" y="161.8336"
transform="scale(-1 1) translate(-166.617600 0)"
textLength="1.9643" font-size="1.3333" lengthAdjust="spacingAndGlyphs"
text-anchor="middle" opacity="0" stroke-opacity="0">J4</text>
<g class="stroked-text"><desc>J4</desc>
<path d="M83.6421 160.7884
L83.6421 161.5027
" />
<path d="M83.6421 161.5027
L83.6898 161.6456
" />
<path d="M83.6898 161.6456
L83.7850 161.7408
" />
<path d="M83.7850 161.7408
L83.9278 161.7884
" />
<path d="M83.9278 161.7884
L84.0231 161.7884
" />
<path d="M82.7374 161.1218
L82.7374 161.7884
" />
<path d="M82.9755 160.7408
L83.2136 161.4551
" />
<path d="M83.2136 161.4551
L82.5945 161.4551
" />
</g><text x="109.7088" y="161.8336"
transform="scale(-1 1) translate(-219.417600 0)"
textLength="1.9643" font-size="1.3333" lengthAdjust="spacingAndGlyphs"
text-anchor="middle" opacity="0" stroke-opacity="0">J2</text>
<g class="stroked-text"><desc>J2</desc>
<path d="M110.0421 160.7884
L110.0421 161.5027
" />
<path d="M110.0421 161.5027
L110.0898 161.6456
" />
<path d="M110.0898 161.6456
L110.1850 161.7408
" />
<path d="M110.1850 161.7408
L110.3278 161.7884
" />
<path d="M110.3278 161.7884
L110.4231 161.7884
" />
<path d="M109.6136 160.8837
L109.5659 160.8360
" />
<path d="M109.5659 160.8360
L109.4707 160.7884
" />
<path d="M109.4707 160.7884
L109.2326 160.7884
" />
<path d="M109.2326 160.7884
L109.1374 160.8360
" />
<path d="M109.1374 160.8360
L109.0898 160.8837
" />
<path d="M109.0898 160.8837
L109.0421 160.9789
" />
<path d="M109.0421 160.9789
L109.0421 161.0741
" />
<path d="M109.0421 161.0741
L109.0898 161.2170
" />
<path d="M109.0898 161.2170
L109.6612 161.7884
" />
<path d="M109.6612 161.7884
L109.0421 161.7884
" />
</g><text x="95.6950" y="147.0000"
transform="scale(-1 1) translate(-191.390000 0)"
textLength="1.9643" font-size="1.3333" lengthAdjust="spacingAndGlyphs"
text-anchor="middle" opacity="0" stroke-opacity="0">J6</text>
<g class="stroked-text"><desc>J6</desc>
<path d="M96.0283 145.9548
L96.0283 146.6691
" />
<path d="M96.0283 146.6691
L96.0760 146.8120
" />
<path d="M96.0760 146.8120
L96.1712 146.9072
" />
<path d="M96.1712 146.9072
L96.3140 146.9548
" />
<path d="M96.3140 146.9548
L96.4093 146.9548
" />
<path d="M95.1236 145.9548
L95.3140 145.9548
" />
<path d="M95.3140 145.9548
L95.4093 146.0024
" />
<path d="M95.4093 146.0024
L95.4569 146.0501
" />
<path d="M95.4569 146.0501
L95.5521 146.1929
" />
<path d="M95.5521 146.1929
L95.5998 146.3834
" />
<path d="M95.5998 146.3834
L95.5998 146.7643
" />
<path d="M95.5998 146.7643
L95.5521 146.8596
" />
<path d="M95.5521 146.8596
L95.5045 146.9072
" />
<path d="M95.5045 146.9072
L95.4093 146.9548
" />
<path d="M95.4093 146.9548
L95.2188 146.9548
" />
<path d="M95.2188 146.9548
L95.1236 146.9072
" />
<path d="M95.1236 146.9072
L95.0760 146.8596
" />
<path d="M95.0760 146.8596
L95.0283 146.7643
" />
<path d="M95.0283 146.7643
L95.0283 146.5262
" />
<path d="M95.0283 146.5262
L95.0760 146.4310
" />
<path d="M95.0760 146.4310
L95.1236 146.3834
" />
<path d="M95.1236 146.3834
L95.2188 146.3358
" />
<path d="M95.2188 146.3358
L95.4093 146.3358
" />
<path d="M95.4093 146.3358
L95.5045 146.3834
" />
<path d="M95.5045 146.3834
L95.5521 146.4310
" />
<path d="M95.5521 146.4310
L95.5998 146.5262
" />
</g></g>
<g style="fill:none; 
stroke:#000000; stroke-width:0.5080; stroke-opacity:1; 
stroke-linecap:round; stroke-linejoin:round;">
<path d="M71.9662 79.6200 A0.3810 0.3810 0.0 0 0 71.2042 79.6200" />
<path d="M71.2042 79.6200 A0.3810 0.3810 0.0 0 0 71.9662 79.6200" />
<path d="M102.8744 79.6938 A0.3810 0.3810 0.0 0 0 102.1124 79.6938" />
<path d="M102.1124 79.6938 A0.3810 0.3810 0.0 0 0 102.8744 79.6938" />
</g>
<g style="fill:none; 
stroke:#000000; stroke-width:0.1524; stroke-opacity:1; 
stroke-linecap:round; stroke-linejoin:round;">
<path d="M72.9202 153.5866
L93.4688 153.5866
" />
<path d="M72.9202 167.0994
L72.9202 153.5866
" />
<path d="M93.4688 153.5866
L93.4688 167.0994
" />
<path d="M93.4688 167.0994
L72.9202 167.0994
" />
</g>
<g style="fill:none; 
stroke:#000000; stroke-width:0.5080; stroke-opacity:1; 
stroke-linecap:round; stroke-linejoin:round;">
<path d="M72.6662 164.2800 A0.3810 0.3810 0.0 0 0 71.9042 164.2800" />
<path d="M71.9042 164.2800 A0.3810 0.3810 0.0 0 0 72.6662 164.2800" />
</g>
<g style="fill:none; 
stroke:#000000; stroke-width:0.1524; stroke-opacity:1; 
stroke-linecap:round; stroke-linejoin:round;">
<path d="M99.3202 153.5866
L119.8688 153.5866
" />
<path d="M99.3202 167.0994
L99.3202 153.5866
" />
<path d="M119.8688 153.5866
L119.8688 167.0994
" />
<path d="M119.8688 167.0994
L99.3202 167.0994
" />
</g>
<g style="fill:none; 
stroke:#000000; stroke-width:0.5080; stroke-opacity:1; 
stroke-linecap:round; stroke-linejoin:round;">
<path d="M99.0662 164.2800 A0.3810 0.3810 0.0 0 0 98.3042 164.2800" />
<path d="M98.3042 164.2800 A0.3810 0.3810 0.0 0 0 99.0662 164.2800" />
</g>
<g style="fill:none; 
stroke:#000000; stroke-width:0.2000; stroke-opacity:1; 
stroke-linecap:round; stroke-linejoin:round;">
<path d="M92.3900 138.0450
L92.9600 138.0450
" />
<path d="M92.3900 145.4150
L92.3900 138.0450
" />
<path d="M92.9600 138.0450
L92.9600 138.5550
" />
<path d="M92.9600 138.5550
L96.9600 138.5550
" />
<path d="M92.9600 144.9050
L92.9600 145.4150
" />
<path d="M92.9600 145.4150
L92.3900 145.4150
" />
<path d="M96.3250 144.9050
L92.9600 144.9050
" />
<path d="M96.3250 145.4150
L96.3250 144.9050
" />
<path d="M96.9600 137.5350
L99.5000 137.5350
" />
<path d="M96.9600 138.5550
L96.9600 137.5350
" />
<path d="M99.5000 137.5350
L99.5000 138.5550
" />
<path d="M99.5000 138.5550
L103.5000 138.5550
" />
<path d="M100.1350 144.9050
L100.1350 145.4150
" />
<path d="M100.1350 145.4150
L96.3250 145.4150
" />
<path d="M103.5000 138.0450
L104.0700 138.0450
" />
<path d="M103.5000 138.5550
L103.5000 138.0450
" />
<path d="M103.5000 144.9050
L100.1350 144.9050
" />
<path d="M103.5000 145.4150
L103.5000 144.9050
" />
<path d="M104.0700 138.0450
L104.0700 145.4150
" />
<path d="M104.0700 145.4150
L103.5000 145.4150
" />
<circle cx="91.8400" cy="143.1100" r="0.1000" /> 
</g> 
</svg>
