<?xml version="1.0" standalone="no"?>
 <!DOCTYPE svg PUBLIC "-//W3C//DTD SVG 1.1//EN" 
 "http://www.w3.org/Graphics/SVG/1.1/DTD/svg11.dtd"> 
<svg
  xmlns:svg="http://www.w3.org/2000/svg"
  xmlns="http://www.w3.org/2000/svg"
  xmlns:xlink="http://www.w3.org/1999/xlink"
  version="1.1"
  width="297.0022mm" height="210.0072mm" viewBox="0.0000 0.0000 297.0022 210.0072">
<title>SVG Image created as SUM25-BottomPasteMaskLayer.svg date 2025/06/25 15:42:16 </title>
  <desc>Image generated by PCBNEW </desc>
<g style="fill:#000000; fill-opacity:1.0000;stroke:#000000; stroke-opacity:1.0000;
stroke-linecap:round; stroke-linejoin:round;"
 transform="translate(0 0) scale(1 1)">
<path style="fill:#000000; fill-opacity:1.0000; stroke:none;fill-rule:evenodd;"
d="M 76.5905,165.2668
76.5869,165.2850
76.5766,165.3005
76.5611,165.3108
76.5429,165.3144
76.2571,165.3144
76.2389,165.3108
76.2234,165.3005
76.2131,165.2850
76.2095,165.2668
76.2095,163.5332
76.2131,163.5150
76.2234,163.4995
76.2389,163.4892
76.2571,163.4856
76.5429,163.4856
76.5611,163.4892
76.5766,163.4995
76.5869,163.5150
76.5905,163.5332
Z" /> 
<path style="fill:#000000; fill-opacity:1.0000; stroke:none;fill-rule:evenodd;"
d="M 77.3905,165.2668
77.3869,165.2850
77.3765,165.3005
77.3611,165.3108
77.3429,165.3144
77.0571,165.3144
77.0389,165.3108
77.0234,165.3005
77.0131,165.2850
77.0095,165.2668
77.0095,163.5332
77.0131,163.5150
77.0234,163.4995
77.0389,163.4892
77.0571,163.4856
77.3429,163.4856
77.3611,163.4892
77.3765,163.4995
77.3869,163.5150
77.3905,163.5332
Z" /> 
<path style="fill:#000000; fill-opacity:1.0000; stroke:none;fill-rule:evenodd;"
d="M 78.1905,165.2668
78.1869,165.2850
78.1766,165.3005
78.1611,165.3108
78.1429,165.3144
77.8571,165.3144
77.8389,165.3108
77.8234,165.3005
77.8131,165.2850
77.8095,165.2668
77.8095,163.5332
77.8131,163.5150
77.8234,163.4995
77.8389,163.4892
77.8571,163.4856
78.1429,163.4856
78.1611,163.4892
78.1766,163.4995
78.1869,163.5150
78.1905,163.5332
Z" /> 
<path style="fill:#000000; fill-opacity:1.0000; stroke:none;fill-rule:evenodd;"
d="M 78.9905,165.2668
78.9869,165.2850
78.9766,165.3005
78.9611,165.3108
78.9429,165.3144
78.6571,165.3144
78.6389,165.3108
78.6234,165.3005
78.6131,165.2850
78.6095,165.2668
78.6095,163.5332
78.6131,163.5150
78.6234,163.4995
78.6389,163.4892
78.6571,163.4856
78.9429,163.4856
78.9611,163.4892
78.9766,163.4995
78.9869,163.5150
78.9905,163.5332
Z" /> 
<path style="fill:#000000; fill-opacity:1.0000; stroke:none;fill-rule:evenodd;"
d="M 79.7905,165.2668
79.7869,165.2850
79.7766,165.3005
79.7611,165.3108
79.7429,165.3144
79.4571,165.3144
79.4389,165.3108
79.4234,165.3005
79.4131,165.2850
79.4095,165.2668
79.4095,163.5332
79.4131,163.5150
79.4234,163.4995
79.4389,163.4892
79.4571,163.4856
79.7429,163.4856
79.7611,163.4892
79.7766,163.4995
79.7869,163.5150
79.7905,163.5332
Z" /> 
<path style="fill:#000000; fill-opacity:1.0000; stroke:none;fill-rule:evenodd;"
d="M 80.5905,165.2668
80.5869,165.2850
80.5766,165.3005
80.5611,165.3108
80.5429,165.3144
80.2571,165.3144
80.2389,165.3108
80.2234,165.3005
80.2131,165.2850
80.2095,165.2668
80.2095,163.5332
80.2131,163.5150
80.2234,163.4995
80.2389,163.4892
80.2571,163.4856
80.5429,163.4856
80.5611,163.4892
80.5766,163.4995
80.5869,163.5150
80.5905,163.5332
Z" /> 
<path style="fill:#000000; fill-opacity:1.0000; stroke:none;fill-rule:evenodd;"
d="M 81.3905,165.2668
81.3869,165.2850
81.3766,165.3005
81.3611,165.3108
81.3429,165.3144
81.0571,165.3144
81.0389,165.3108
81.0234,165.3005
81.0131,165.2850
81.0095,165.2668
81.0095,163.5332
81.0131,163.5150
81.0234,163.4995
81.0389,163.4892
81.0571,163.4856
81.3429,163.4856
81.3611,163.4892
81.3766,163.4995
81.3869,163.5150
81.3905,163.5332
Z" /> 
<path style="fill:#000000; fill-opacity:1.0000; stroke:none;fill-rule:evenodd;"
d="M 82.1905,165.2668
82.1869,165.2850
82.1766,165.3005
82.1611,165.3108
82.1429,165.3144
81.8571,165.3144
81.8389,165.3108
81.8234,165.3005
81.8131,165.2850
81.8095,165.2668
81.8095,163.5332
81.8131,163.5150
81.8234,163.4995
81.8389,163.4892
81.8571,163.4856
82.1429,163.4856
82.1611,163.4892
82.1766,163.4995
82.1869,163.5150
82.1905,163.5332
Z" /> 
<path style="fill:#000000; fill-opacity:1.0000; stroke:none;fill-rule:evenodd;"
d="M 82.9905,165.2668
82.9869,165.2850
82.9766,165.3005
82.9611,165.3108
82.9429,165.3144
82.6571,165.3144
82.6389,165.3108
82.6234,165.3005
82.6131,165.2850
82.6095,165.2668
82.6095,163.5332
82.6131,163.5150
82.6234,163.4995
82.6389,163.4892
82.6571,163.4856
82.9429,163.4856
82.9611,163.4892
82.9766,163.4995
82.9869,163.5150
82.9905,163.5332
Z" /> 
<path style="fill:#000000; fill-opacity:1.0000; stroke:none;fill-rule:evenodd;"
d="M 83.7905,165.2668
83.7869,165.2850
83.7766,165.3005
83.7611,165.3108
83.7429,165.3144
83.4571,165.3144
83.4389,165.3108
83.4234,165.3005
83.4131,165.2850
83.4095,165.2668
83.4095,163.5332
83.4131,163.5150
83.4234,163.4995
83.4389,163.4892
83.4571,163.4856
83.7429,163.4856
83.7611,163.4892
83.7766,163.4995
83.7869,163.5150
83.7905,163.5332
Z" /> 
<path style="fill:#000000; fill-opacity:1.0000; stroke:none;fill-rule:evenodd;"
d="M 84.5905,165.2668
84.5869,165.2850
84.5766,165.3005
84.5611,165.3108
84.5429,165.3144
84.2571,165.3144
84.2389,165.3108
84.2234,165.3005
84.2131,165.2850
84.2095,165.2668
84.2095,163.5332
84.2131,163.5150
84.2234,163.4995
84.2389,163.4892
84.2571,163.4856
84.5429,163.4856
84.5611,163.4892
84.5766,163.4995
84.5869,163.5150
84.5905,163.5332
Z" /> 
<path style="fill:#000000; fill-opacity:1.0000; stroke:none;fill-rule:evenodd;"
d="M 85.3905,165.2668
85.3869,165.2850
85.3766,165.3005
85.3611,165.3108
85.3429,165.3144
85.0571,165.3144
85.0389,165.3108
85.0234,165.3005
85.0131,165.2850
85.0095,165.2668
85.0095,163.5332
85.0131,163.5150
85.0234,163.4995
85.0389,163.4892
85.0571,163.4856
85.3429,163.4856
85.3611,163.4892
85.3766,163.4995
85.3869,163.5150
85.3905,163.5332
Z" /> 
<path style="fill:#000000; fill-opacity:1.0000; stroke:none;fill-rule:evenodd;"
d="M 86.1905,165.2668
86.1869,165.2850
86.1766,165.3005
86.1611,165.3108
86.1429,165.3144
85.8571,165.3144
85.8389,165.3108
85.8234,165.3005
85.8131,165.2850
85.8095,165.2668
85.8095,163.5332
85.8131,163.5150
85.8234,163.4995
85.8389,163.4892
85.8571,163.4856
86.1429,163.4856
86.1611,163.4892
86.1766,163.4995
86.1869,163.5150
86.1905,163.5332
Z" /> 
<path style="fill:#000000; fill-opacity:1.0000; stroke:none;fill-rule:evenodd;"
d="M 86.9905,165.2668
86.9869,165.2850
86.9766,165.3005
86.9611,165.3108
86.9429,165.3144
86.6571,165.3144
86.6389,165.3108
86.6234,165.3005
86.6131,165.2850
86.6095,165.2668
86.6095,163.5332
86.6131,163.5150
86.6234,163.4995
86.6389,163.4892
86.6571,163.4856
86.9429,163.4856
86.9611,163.4892
86.9766,163.4995
86.9869,163.5150
86.9905,163.5332
Z" /> 
<path style="fill:#000000; fill-opacity:1.0000; stroke:none;fill-rule:evenodd;"
d="M 87.7905,165.2668
87.7869,165.2850
87.7766,165.3005
87.7611,165.3108
87.7429,165.3144
87.4571,165.3144
87.4389,165.3108
87.4234,165.3005
87.4131,165.2850
87.4095,165.2668
87.4095,163.5332
87.4131,163.5150
87.4234,163.4995
87.4389,163.4892
87.4571,163.4856
87.7429,163.4856
87.7611,163.4892
87.7766,163.4995
87.7869,163.5150
87.7905,163.5332
Z" /> 
<path style="fill:#000000; fill-opacity:1.0000; stroke:none;fill-rule:evenodd;"
d="M 88.5905,165.2668
88.5869,165.2850
88.5766,165.3005
88.5611,165.3108
88.5429,165.3144
88.2571,165.3144
88.2389,165.3108
88.2234,165.3005
88.2131,165.2850
88.2095,165.2668
88.2095,163.5332
88.2131,163.5150
88.2234,163.4995
88.2389,163.4892
88.2571,163.4856
88.5429,163.4856
88.5611,163.4892
88.5766,163.4995
88.5869,163.5150
88.5905,163.5332
Z" /> 
<path style="fill:#000000; fill-opacity:1.0000; stroke:none;fill-rule:evenodd;"
d="M 89.3905,165.2668
89.3869,165.2850
89.3766,165.3005
89.3611,165.3108
89.3429,165.3144
89.0571,165.3144
89.0389,165.3108
89.0234,165.3005
89.0131,165.2850
89.0095,165.2668
89.0095,163.5332
89.0131,163.5150
89.0234,163.4995
89.0389,163.4892
89.0571,163.4856
89.3429,163.4856
89.3611,163.4892
89.3766,163.4995
89.3869,163.5150
89.3905,163.5332
Z" /> 
<path style="fill:#000000; fill-opacity:1.0000; stroke:none;fill-rule:evenodd;"
d="M 90.1905,165.2668
90.1869,165.2850
90.1766,165.3005
90.1611,165.3108
90.1429,165.3144
89.8571,165.3144
89.8389,165.3108
89.8234,165.3005
89.8131,165.2850
89.8095,165.2668
89.8095,163.5332
89.8131,163.5150
89.8234,163.4995
89.8389,163.4892
89.8571,163.4856
90.1429,163.4856
90.1611,163.4892
90.1766,163.4995
90.1869,163.5150
90.1905,163.5332
Z" /> 
<path style="fill:#000000; fill-opacity:1.0000; stroke:none;fill-rule:evenodd;"
d="M 76.5905,159.3668
76.5869,159.3850
76.5766,159.4005
76.5611,159.4108
76.5429,159.4144
76.2571,159.4144
76.2389,159.4108
76.2234,159.4005
76.2131,159.3850
76.2095,159.3668
76.2095,157.6332
76.2131,157.6150
76.2234,157.5995
76.2389,157.5892
76.2571,157.5856
76.5429,157.5856
76.5611,157.5892
76.5766,157.5995
76.5869,157.6150
76.5905,157.6332
Z" /> 
<path style="fill:#000000; fill-opacity:1.0000; stroke:none;fill-rule:evenodd;"
d="M 77.3905,159.3668
77.3869,159.3850
77.3765,159.4005
77.3611,159.4108
77.3429,159.4144
77.0571,159.4144
77.0389,159.4108
77.0234,159.4005
77.0131,159.3850
77.0095,159.3668
77.0095,157.6332
77.0131,157.6150
77.0234,157.5995
77.0389,157.5892
77.0571,157.5856
77.3429,157.5856
77.3611,157.5892
77.3765,157.5995
77.3869,157.6150
77.3905,157.6332
Z" /> 
<path style="fill:#000000; fill-opacity:1.0000; stroke:none;fill-rule:evenodd;"
d="M 78.1905,159.3668
78.1869,159.3850
78.1766,159.4005
78.1611,159.4108
78.1429,159.4144
77.8571,159.4144
77.8389,159.4108
77.8234,159.4005
77.8131,159.3850
77.8095,159.3668
77.8095,157.6332
77.8131,157.6150
77.8234,157.5995
77.8389,157.5892
77.8571,157.5856
78.1429,157.5856
78.1611,157.5892
78.1766,157.5995
78.1869,157.6150
78.1905,157.6332
Z" /> 
<path style="fill:#000000; fill-opacity:1.0000; stroke:none;fill-rule:evenodd;"
d="M 78.9905,159.3668
78.9869,159.3850
78.9766,159.4005
78.9611,159.4108
78.9429,159.4144
78.6571,159.4144
78.6389,159.4108
78.6234,159.4005
78.6131,159.3850
78.6095,159.3668
78.6095,157.6332
78.6131,157.6150
78.6234,157.5995
78.6389,157.5892
78.6571,157.5856
78.9429,157.5856
78.9611,157.5892
78.9766,157.5995
78.9869,157.6150
78.9905,157.6332
Z" /> 
<path style="fill:#000000; fill-opacity:1.0000; stroke:none;fill-rule:evenodd;"
d="M 79.7905,159.3668
79.7869,159.3850
79.7766,159.4005
79.7611,159.4108
79.7429,159.4144
79.4571,159.4144
79.4389,159.4108
79.4234,159.4005
79.4131,159.3850
79.4095,159.3668
79.4095,157.6332
79.4131,157.6150
79.4234,157.5995
79.4389,157.5892
79.4571,157.5856
79.7429,157.5856
79.7611,157.5892
79.7766,157.5995
79.7869,157.6150
79.7905,157.6332
Z" /> 
<path style="fill:#000000; fill-opacity:1.0000; stroke:none;fill-rule:evenodd;"
d="M 80.5905,159.3668
80.5869,159.3850
80.5766,159.4005
80.5611,159.4108
80.5429,159.4144
80.2571,159.4144
80.2389,159.4108
80.2234,159.4005
80.2131,159.3850
80.2095,159.3668
80.2095,157.6332
80.2131,157.6150
80.2234,157.5995
80.2389,157.5892
80.2571,157.5856
80.5429,157.5856
80.5611,157.5892
80.5766,157.5995
80.5869,157.6150
80.5905,157.6332
Z" /> 
<path style="fill:#000000; fill-opacity:1.0000; stroke:none;fill-rule:evenodd;"
d="M 81.3905,159.3668
81.3869,159.3850
81.3766,159.4005
81.3611,159.4108
81.3429,159.4144
81.0571,159.4144
81.0389,159.4108
81.0234,159.4005
81.0131,159.3850
81.0095,159.3668
81.0095,157.6332
81.0131,157.6150
81.0234,157.5995
81.0389,157.5892
81.0571,157.5856
81.3429,157.5856
81.3611,157.5892
81.3766,157.5995
81.3869,157.6150
81.3905,157.6332
Z" /> 
<path style="fill:#000000; fill-opacity:1.0000; stroke:none;fill-rule:evenodd;"
d="M 82.1905,159.3668
82.1869,159.3850
82.1766,159.4005
82.1611,159.4108
82.1429,159.4144
81.8571,159.4144
81.8389,159.4108
81.8234,159.4005
81.8131,159.3850
81.8095,159.3668
81.8095,157.6332
81.8131,157.6150
81.8234,157.5995
81.8389,157.5892
81.8571,157.5856
82.1429,157.5856
82.1611,157.5892
82.1766,157.5995
82.1869,157.6150
82.1905,157.6332
Z" /> 
<path style="fill:#000000; fill-opacity:1.0000; stroke:none;fill-rule:evenodd;"
d="M 82.9905,159.3668
82.9869,159.3850
82.9766,159.4005
82.9611,159.4108
82.9429,159.4144
82.6571,159.4144
82.6389,159.4108
82.6234,159.4005
82.6131,159.3850
82.6095,159.3668
82.6095,157.6332
82.6131,157.6150
82.6234,157.5995
82.6389,157.5892
82.6571,157.5856
82.9429,157.5856
82.9611,157.5892
82.9766,157.5995
82.9869,157.6150
82.9905,157.6332
Z" /> 
<path style="fill:#000000; fill-opacity:1.0000; stroke:none;fill-rule:evenodd;"
d="M 83.7905,159.3668
83.7869,159.3850
83.7766,159.4005
83.7611,159.4108
83.7429,159.4144
83.4571,159.4144
83.4389,159.4108
83.4234,159.4005
83.4131,159.3850
83.4095,159.3668
83.4095,157.6332
83.4131,157.6150
83.4234,157.5995
83.4389,157.5892
83.4571,157.5856
83.7429,157.5856
83.7611,157.5892
83.7766,157.5995
83.7869,157.6150
83.7905,157.6332
Z" /> 
<path style="fill:#000000; fill-opacity:1.0000; stroke:none;fill-rule:evenodd;"
d="M 84.5905,159.3668
84.5869,159.3850
84.5766,159.4005
84.5611,159.4108
84.5429,159.4144
84.2571,159.4144
84.2389,159.4108
84.2234,159.4005
84.2131,159.3850
84.2095,159.3668
84.2095,157.6332
84.2131,157.6150
84.2234,157.5995
84.2389,157.5892
84.2571,157.5856
84.5429,157.5856
84.5611,157.5892
84.5766,157.5995
84.5869,157.6150
84.5905,157.6332
Z" /> 
<path style="fill:#000000; fill-opacity:1.0000; stroke:none;fill-rule:evenodd;"
d="M 85.3905,159.3668
85.3869,159.3850
85.3766,159.4005
85.3611,159.4108
85.3429,159.4144
85.0571,159.4144
85.0389,159.4108
85.0234,159.4005
85.0131,159.3850
85.0095,159.3668
85.0095,157.6332
85.0131,157.6150
85.0234,157.5995
85.0389,157.5892
85.0571,157.5856
85.3429,157.5856
85.3611,157.5892
85.3766,157.5995
85.3869,157.6150
85.3905,157.6332
Z" /> 
<path style="fill:#000000; fill-opacity:1.0000; stroke:none;fill-rule:evenodd;"
d="M 86.1905,159.3668
86.1869,159.3850
86.1766,159.4005
86.1611,159.4108
86.1429,159.4144
85.8571,159.4144
85.8389,159.4108
85.8234,159.4005
85.8131,159.3850
85.8095,159.3668
85.8095,157.6332
85.8131,157.6150
85.8234,157.5995
85.8389,157.5892
85.8571,157.5856
86.1429,157.5856
86.1611,157.5892
86.1766,157.5995
86.1869,157.6150
86.1905,157.6332
Z" /> 
<path style="fill:#000000; fill-opacity:1.0000; stroke:none;fill-rule:evenodd;"
d="M 86.9905,159.3668
86.9869,159.3850
86.9766,159.4005
86.9611,159.4108
86.9429,159.4144
86.6571,159.4144
86.6389,159.4108
86.6234,159.4005
86.6131,159.3850
86.6095,159.3668
86.6095,157.6332
86.6131,157.6150
86.6234,157.5995
86.6389,157.5892
86.6571,157.5856
86.9429,157.5856
86.9611,157.5892
86.9766,157.5995
86.9869,157.6150
86.9905,157.6332
Z" /> 
<path style="fill:#000000; fill-opacity:1.0000; stroke:none;fill-rule:evenodd;"
d="M 87.7905,159.3668
87.7869,159.3850
87.7766,159.4005
87.7611,159.4108
87.7429,159.4144
87.4571,159.4144
87.4389,159.4108
87.4234,159.4005
87.4131,159.3850
87.4095,159.3668
87.4095,157.6332
87.4131,157.6150
87.4234,157.5995
87.4389,157.5892
87.4571,157.5856
87.7429,157.5856
87.7611,157.5892
87.7766,157.5995
87.7869,157.6150
87.7905,157.6332
Z" /> 
<path style="fill:#000000; fill-opacity:1.0000; stroke:none;fill-rule:evenodd;"
d="M 88.5905,159.3668
88.5869,159.3850
88.5766,159.4005
88.5611,159.4108
88.5429,159.4144
88.2571,159.4144
88.2389,159.4108
88.2234,159.4005
88.2131,159.3850
88.2095,159.3668
88.2095,157.6332
88.2131,157.6150
88.2234,157.5995
88.2389,157.5892
88.2571,157.5856
88.5429,157.5856
88.5611,157.5892
88.5766,157.5995
88.5869,157.6150
88.5905,157.6332
Z" /> 
<path style="fill:#000000; fill-opacity:1.0000; stroke:none;fill-rule:evenodd;"
d="M 89.3905,159.3668
89.3869,159.3850
89.3766,159.4005
89.3611,159.4108
89.3429,159.4144
89.0571,159.4144
89.0389,159.4108
89.0234,159.4005
89.0131,159.3850
89.0095,159.3668
89.0095,157.6332
89.0131,157.6150
89.0234,157.5995
89.0389,157.5892
89.0571,157.5856
89.3429,157.5856
89.3611,157.5892
89.3766,157.5995
89.3869,157.6150
89.3905,157.6332
Z" /> 
<path style="fill:#000000; fill-opacity:1.0000; stroke:none;fill-rule:evenodd;"
d="M 90.1905,159.3668
90.1869,159.3850
90.1766,159.4005
90.1611,159.4108
90.1429,159.4144
89.8571,159.4144
89.8389,159.4108
89.8234,159.4005
89.8131,159.3850
89.8095,159.3668
89.8095,157.6332
89.8131,157.6150
89.8234,157.5995
89.8389,157.5892
89.8571,157.5856
90.1429,157.5856
90.1611,157.5892
90.1766,157.5995
90.1869,157.6150
90.1905,157.6332
Z" /> 
<path style="fill:#000000; fill-opacity:1.0000; stroke:none;fill-rule:evenodd;"
d="M 102.9905,165.2668
102.9869,165.2850
102.9766,165.3005
102.9611,165.3108
102.9429,165.3144
102.6571,165.3144
102.6389,165.3108
102.6234,165.3005
102.6131,165.2850
102.6095,165.2668
102.6095,163.5332
102.6131,163.5150
102.6234,163.4995
102.6389,163.4892
102.6571,163.4856
102.9429,163.4856
102.9611,163.4892
102.9766,163.4995
102.9869,163.5150
102.9905,163.5332
Z" /> 
<path style="fill:#000000; fill-opacity:1.0000; stroke:none;fill-rule:evenodd;"
d="M 103.7905,165.2668
103.7869,165.2850
103.7765,165.3005
103.7611,165.3108
103.7429,165.3144
103.4571,165.3144
103.4389,165.3108
103.4234,165.3005
103.4131,165.2850
103.4095,165.2668
103.4095,163.5332
103.4131,163.5150
103.4234,163.4995
103.4389,163.4892
103.4571,163.4856
103.7429,163.4856
103.7611,163.4892
103.7765,163.4995
103.7869,163.5150
103.7905,163.5332
Z" /> 
<path style="fill:#000000; fill-opacity:1.0000; stroke:none;fill-rule:evenodd;"
d="M 104.5905,165.2668
104.5869,165.2850
104.5766,165.3005
104.5611,165.3108
104.5429,165.3144
104.2571,165.3144
104.2389,165.3108
104.2234,165.3005
104.2131,165.2850
104.2095,165.2668
104.2095,163.5332
104.2131,163.5150
104.2234,163.4995
104.2389,163.4892
104.2571,163.4856
104.5429,163.4856
104.5611,163.4892
104.5766,163.4995
104.5869,163.5150
104.5905,163.5332
Z" /> 
<path style="fill:#000000; fill-opacity:1.0000; stroke:none;fill-rule:evenodd;"
d="M 105.3905,165.2668
105.3869,165.2850
105.3766,165.3005
105.3611,165.3108
105.3429,165.3144
105.0571,165.3144
105.0389,165.3108
105.0234,165.3005
105.0131,165.2850
105.0095,165.2668
105.0095,163.5332
105.0131,163.5150
105.0234,163.4995
105.0389,163.4892
105.0571,163.4856
105.3429,163.4856
105.3611,163.4892
105.3766,163.4995
105.3869,163.5150
105.3905,163.5332
Z" /> 
<path style="fill:#000000; fill-opacity:1.0000; stroke:none;fill-rule:evenodd;"
d="M 106.1905,165.2668
106.1869,165.2850
106.1766,165.3005
106.1611,165.3108
106.1429,165.3144
105.8571,165.3144
105.8389,165.3108
105.8234,165.3005
105.8131,165.2850
105.8095,165.2668
105.8095,163.5332
105.8131,163.5150
105.8234,163.4995
105.8389,163.4892
105.8571,163.4856
106.1429,163.4856
106.1611,163.4892
106.1766,163.4995
106.1869,163.5150
106.1905,163.5332
Z" /> 
<path style="fill:#000000; fill-opacity:1.0000; stroke:none;fill-rule:evenodd;"
d="M 106.9905,165.2668
106.9869,165.2850
106.9766,165.3005
106.9611,165.3108
106.9429,165.3144
106.6571,165.3144
106.6389,165.3108
106.6234,165.3005
106.6131,165.2850
106.6095,165.2668
106.6095,163.5332
106.6131,163.5150
106.6234,163.4995
106.6389,163.4892
106.6571,163.4856
106.9429,163.4856
106.9611,163.4892
106.9766,163.4995
106.9869,163.5150
106.9905,163.5332
Z" /> 
<path style="fill:#000000; fill-opacity:1.0000; stroke:none;fill-rule:evenodd;"
d="M 107.7905,165.2668
107.7869,165.2850
107.7766,165.3005
107.7611,165.3108
107.7429,165.3144
107.4571,165.3144
107.4389,165.3108
107.4234,165.3005
107.4131,165.2850
107.4095,165.2668
107.4095,163.5332
107.4131,163.5150
107.4234,163.4995
107.4389,163.4892
107.4571,163.4856
107.7429,163.4856
107.7611,163.4892
107.7766,163.4995
107.7869,163.5150
107.7905,163.5332
Z" /> 
<path style="fill:#000000; fill-opacity:1.0000; stroke:none;fill-rule:evenodd;"
d="M 108.5905,165.2668
108.5869,165.2850
108.5766,165.3005
108.5611,165.3108
108.5429,165.3144
108.2571,165.3144
108.2389,165.3108
108.2234,165.3005
108.2131,165.2850
108.2095,165.2668
108.2095,163.5332
108.2131,163.5150
108.2234,163.4995
108.2389,163.4892
108.2571,163.4856
108.5429,163.4856
108.5611,163.4892
108.5766,163.4995
108.5869,163.5150
108.5905,163.5332
Z" /> 
<path style="fill:#000000; fill-opacity:1.0000; stroke:none;fill-rule:evenodd;"
d="M 109.3905,165.2668
109.3869,165.2850
109.3766,165.3005
109.3611,165.3108
109.3429,165.3144
109.0571,165.3144
109.0389,165.3108
109.0234,165.3005
109.0131,165.2850
109.0095,165.2668
109.0095,163.5332
109.0131,163.5150
109.0234,163.4995
109.0389,163.4892
109.0571,163.4856
109.3429,163.4856
109.3611,163.4892
109.3766,163.4995
109.3869,163.5150
109.3905,163.5332
Z" /> 
<path style="fill:#000000; fill-opacity:1.0000; stroke:none;fill-rule:evenodd;"
d="M 110.1905,165.2668
110.1869,165.2850
110.1766,165.3005
110.1611,165.3108
110.1429,165.3144
109.8571,165.3144
109.8389,165.3108
109.8234,165.3005
109.8131,165.2850
109.8095,165.2668
109.8095,163.5332
109.8131,163.5150
109.8234,163.4995
109.8389,163.4892
109.8571,163.4856
110.1429,163.4856
110.1611,163.4892
110.1766,163.4995
110.1869,163.5150
110.1905,163.5332
Z" /> 
<path style="fill:#000000; fill-opacity:1.0000; stroke:none;fill-rule:evenodd;"
d="M 110.9905,165.2668
110.9869,165.2850
110.9766,165.3005
110.9611,165.3108
110.9429,165.3144
110.6571,165.3144
110.6389,165.3108
110.6234,165.3005
110.6131,165.2850
110.6095,165.2668
110.6095,163.5332
110.6131,163.5150
110.6234,163.4995
110.6389,163.4892
110.6571,163.4856
110.9429,163.4856
110.9611,163.4892
110.9766,163.4995
110.9869,163.5150
110.9905,163.5332
Z" /> 
<path style="fill:#000000; fill-opacity:1.0000; stroke:none;fill-rule:evenodd;"
d="M 111.7905,165.2668
111.7869,165.2850
111.7766,165.3005
111.7611,165.3108
111.7429,165.3144
111.4571,165.3144
111.4389,165.3108
111.4234,165.3005
111.4131,165.2850
111.4095,165.2668
111.4095,163.5332
111.4131,163.5150
111.4234,163.4995
111.4389,163.4892
111.4571,163.4856
111.7429,163.4856
111.7611,163.4892
111.7766,163.4995
111.7869,163.5150
111.7905,163.5332
Z" /> 
<path style="fill:#000000; fill-opacity:1.0000; stroke:none;fill-rule:evenodd;"
d="M 112.5905,165.2668
112.5869,165.2850
112.5766,165.3005
112.5611,165.3108
112.5429,165.3144
112.2571,165.3144
112.2389,165.3108
112.2234,165.3005
112.2131,165.2850
112.2095,165.2668
112.2095,163.5332
112.2131,163.5150
112.2234,163.4995
112.2389,163.4892
112.2571,163.4856
112.5429,163.4856
112.5611,163.4892
112.5766,163.4995
112.5869,163.5150
112.5905,163.5332
Z" /> 
<path style="fill:#000000; fill-opacity:1.0000; stroke:none;fill-rule:evenodd;"
d="M 113.3905,165.2668
113.3869,165.2850
113.3766,165.3005
113.3611,165.3108
113.3429,165.3144
113.0571,165.3144
113.0389,165.3108
113.0234,165.3005
113.0131,165.2850
113.0095,165.2668
113.0095,163.5332
113.0131,163.5150
113.0234,163.4995
113.0389,163.4892
113.0571,163.4856
113.3429,163.4856
113.3611,163.4892
113.3766,163.4995
113.3869,163.5150
113.3905,163.5332
Z" /> 
<path style="fill:#000000; fill-opacity:1.0000; stroke:none;fill-rule:evenodd;"
d="M 114.1905,165.2668
114.1869,165.2850
114.1766,165.3005
114.1611,165.3108
114.1429,165.3144
113.8571,165.3144
113.8389,165.3108
113.8234,165.3005
113.8131,165.2850
113.8095,165.2668
113.8095,163.5332
113.8131,163.5150
113.8234,163.4995
113.8389,163.4892
113.8571,163.4856
114.1429,163.4856
114.1611,163.4892
114.1766,163.4995
114.1869,163.5150
114.1905,163.5332
Z" /> 
<path style="fill:#000000; fill-opacity:1.0000; stroke:none;fill-rule:evenodd;"
d="M 114.9905,165.2668
114.9869,165.2850
114.9766,165.3005
114.9611,165.3108
114.9429,165.3144
114.6571,165.3144
114.6389,165.3108
114.6234,165.3005
114.6131,165.2850
114.6095,165.2668
114.6095,163.5332
114.6131,163.5150
114.6234,163.4995
114.6389,163.4892
114.6571,163.4856
114.9429,163.4856
114.9611,163.4892
114.9766,163.4995
114.9869,163.5150
114.9905,163.5332
Z" /> 
<path style="fill:#000000; fill-opacity:1.0000; stroke:none;fill-rule:evenodd;"
d="M 115.7905,165.2668
115.7869,165.2850
115.7766,165.3005
115.7611,165.3108
115.7429,165.3144
115.4571,165.3144
115.4389,165.3108
115.4234,165.3005
115.4131,165.2850
115.4095,165.2668
115.4095,163.5332
115.4131,163.5150
115.4234,163.4995
115.4389,163.4892
115.4571,163.4856
115.7429,163.4856
115.7611,163.4892
115.7766,163.4995
115.7869,163.5150
115.7905,163.5332
Z" /> 
<path style="fill:#000000; fill-opacity:1.0000; stroke:none;fill-rule:evenodd;"
d="M 116.5905,165.2668
116.5869,165.2850
116.5766,165.3005
116.5611,165.3108
116.5429,165.3144
116.2571,165.3144
116.2389,165.3108
116.2234,165.3005
116.2131,165.2850
116.2095,165.2668
116.2095,163.5332
116.2131,163.5150
116.2234,163.4995
116.2389,163.4892
116.2571,163.4856
116.5429,163.4856
116.5611,163.4892
116.5766,163.4995
116.5869,163.5150
116.5905,163.5332
Z" /> 
<path style="fill:#000000; fill-opacity:1.0000; stroke:none;fill-rule:evenodd;"
d="M 102.9905,159.3668
102.9869,159.3850
102.9766,159.4005
102.9611,159.4108
102.9429,159.4144
102.6571,159.4144
102.6389,159.4108
102.6234,159.4005
102.6131,159.3850
102.6095,159.3668
102.6095,157.6332
102.6131,157.6150
102.6234,157.5995
102.6389,157.5892
102.6571,157.5856
102.9429,157.5856
102.9611,157.5892
102.9766,157.5995
102.9869,157.6150
102.9905,157.6332
Z" /> 
<path style="fill:#000000; fill-opacity:1.0000; stroke:none;fill-rule:evenodd;"
d="M 103.7905,159.3668
103.7869,159.3850
103.7765,159.4005
103.7611,159.4108
103.7429,159.4144
103.4571,159.4144
103.4389,159.4108
103.4234,159.4005
103.4131,159.3850
103.4095,159.3668
103.4095,157.6332
103.4131,157.6150
103.4234,157.5995
103.4389,157.5892
103.4571,157.5856
103.7429,157.5856
103.7611,157.5892
103.7765,157.5995
103.7869,157.6150
103.7905,157.6332
Z" /> 
<path style="fill:#000000; fill-opacity:1.0000; stroke:none;fill-rule:evenodd;"
d="M 104.5905,159.3668
104.5869,159.3850
104.5766,159.4005
104.5611,159.4108
104.5429,159.4144
104.2571,159.4144
104.2389,159.4108
104.2234,159.4005
104.2131,159.3850
104.2095,159.3668
104.2095,157.6332
104.2131,157.6150
104.2234,157.5995
104.2389,157.5892
104.2571,157.5856
104.5429,157.5856
104.5611,157.5892
104.5766,157.5995
104.5869,157.6150
104.5905,157.6332
Z" /> 
<path style="fill:#000000; fill-opacity:1.0000; stroke:none;fill-rule:evenodd;"
d="M 105.3905,159.3668
105.3869,159.3850
105.3766,159.4005
105.3611,159.4108
105.3429,159.4144
105.0571,159.4144
105.0389,159.4108
105.0234,159.4005
105.0131,159.3850
105.0095,159.3668
105.0095,157.6332
105.0131,157.6150
105.0234,157.5995
105.0389,157.5892
105.0571,157.5856
105.3429,157.5856
105.3611,157.5892
105.3766,157.5995
105.3869,157.6150
105.3905,157.6332
Z" /> 
<path style="fill:#000000; fill-opacity:1.0000; stroke:none;fill-rule:evenodd;"
d="M 106.1905,159.3668
106.1869,159.3850
106.1766,159.4005
106.1611,159.4108
106.1429,159.4144
105.8571,159.4144
105.8389,159.4108
105.8234,159.4005
105.8131,159.3850
105.8095,159.3668
105.8095,157.6332
105.8131,157.6150
105.8234,157.5995
105.8389,157.5892
105.8571,157.5856
106.1429,157.5856
106.1611,157.5892
106.1766,157.5995
106.1869,157.6150
106.1905,157.6332
Z" /> 
<path style="fill:#000000; fill-opacity:1.0000; stroke:none;fill-rule:evenodd;"
d="M 106.9905,159.3668
106.9869,159.3850
106.9766,159.4005
106.9611,159.4108
106.9429,159.4144
106.6571,159.4144
106.6389,159.4108
106.6234,159.4005
106.6131,159.3850
106.6095,159.3668
106.6095,157.6332
106.6131,157.6150
106.6234,157.5995
106.6389,157.5892
106.6571,157.5856
106.9429,157.5856
106.9611,157.5892
106.9766,157.5995
106.9869,157.6150
106.9905,157.6332
Z" /> 
<path style="fill:#000000; fill-opacity:1.0000; stroke:none;fill-rule:evenodd;"
d="M 107.7905,159.3668
107.7869,159.3850
107.7766,159.4005
107.7611,159.4108
107.7429,159.4144
107.4571,159.4144
107.4389,159.4108
107.4234,159.4005
107.4131,159.3850
107.4095,159.3668
107.4095,157.6332
107.4131,157.6150
107.4234,157.5995
107.4389,157.5892
107.4571,157.5856
107.7429,157.5856
107.7611,157.5892
107.7766,157.5995
107.7869,157.6150
107.7905,157.6332
Z" /> 
<path style="fill:#000000; fill-opacity:1.0000; stroke:none;fill-rule:evenodd;"
d="M 108.5905,159.3668
108.5869,159.3850
108.5766,159.4005
108.5611,159.4108
108.5429,159.4144
108.2571,159.4144
108.2389,159.4108
108.2234,159.4005
108.2131,159.3850
108.2095,159.3668
108.2095,157.6332
108.2131,157.6150
108.2234,157.5995
108.2389,157.5892
108.2571,157.5856
108.5429,157.5856
108.5611,157.5892
108.5766,157.5995
108.5869,157.6150
108.5905,157.6332
Z" /> 
<path style="fill:#000000; fill-opacity:1.0000; stroke:none;fill-rule:evenodd;"
d="M 109.3905,159.3668
109.3869,159.3850
109.3766,159.4005
109.3611,159.4108
109.3429,159.4144
109.0571,159.4144
109.0389,159.4108
109.0234,159.4005
109.0131,159.3850
109.0095,159.3668
109.0095,157.6332
109.0131,157.6150
109.0234,157.5995
109.0389,157.5892
109.0571,157.5856
109.3429,157.5856
109.3611,157.5892
109.3766,157.5995
109.3869,157.6150
109.3905,157.6332
Z" /> 
<path style="fill:#000000; fill-opacity:1.0000; stroke:none;fill-rule:evenodd;"
d="M 110.1905,159.3668
110.1869,159.3850
110.1766,159.4005
110.1611,159.4108
110.1429,159.4144
109.8571,159.4144
109.8389,159.4108
109.8234,159.4005
109.8131,159.3850
109.8095,159.3668
109.8095,157.6332
109.8131,157.6150
109.8234,157.5995
109.8389,157.5892
109.8571,157.5856
110.1429,157.5856
110.1611,157.5892
110.1766,157.5995
110.1869,157.6150
110.1905,157.6332
Z" /> 
<path style="fill:#000000; fill-opacity:1.0000; stroke:none;fill-rule:evenodd;"
d="M 110.9905,159.3668
110.9869,159.3850
110.9766,159.4005
110.9611,159.4108
110.9429,159.4144
110.6571,159.4144
110.6389,159.4108
110.6234,159.4005
110.6131,159.3850
110.6095,159.3668
110.6095,157.6332
110.6131,157.6150
110.6234,157.5995
110.6389,157.5892
110.6571,157.5856
110.9429,157.5856
110.9611,157.5892
110.9766,157.5995
110.9869,157.6150
110.9905,157.6332
Z" /> 
<path style="fill:#000000; fill-opacity:1.0000; stroke:none;fill-rule:evenodd;"
d="M 111.7905,159.3668
111.7869,159.3850
111.7766,159.4005
111.7611,159.4108
111.7429,159.4144
111.4571,159.4144
111.4389,159.4108
111.4234,159.4005
111.4131,159.3850
111.4095,159.3668
111.4095,157.6332
111.4131,157.6150
111.4234,157.5995
111.4389,157.5892
111.4571,157.5856
111.7429,157.5856
111.7611,157.5892
111.7766,157.5995
111.7869,157.6150
111.7905,157.6332
Z" /> 
<path style="fill:#000000; fill-opacity:1.0000; stroke:none;fill-rule:evenodd;"
d="M 112.5905,159.3668
112.5869,159.3850
112.5766,159.4005
112.5611,159.4108
112.5429,159.4144
112.2571,159.4144
112.2389,159.4108
112.2234,159.4005
112.2131,159.3850
112.2095,159.3668
112.2095,157.6332
112.2131,157.6150
112.2234,157.5995
112.2389,157.5892
112.2571,157.5856
112.5429,157.5856
112.5611,157.5892
112.5766,157.5995
112.5869,157.6150
112.5905,157.6332
Z" /> 
<path style="fill:#000000; fill-opacity:1.0000; stroke:none;fill-rule:evenodd;"
d="M 113.3905,159.3668
113.3869,159.3850
113.3766,159.4005
113.3611,159.4108
113.3429,159.4144
113.0571,159.4144
113.0389,159.4108
113.0234,159.4005
113.0131,159.3850
113.0095,159.3668
113.0095,157.6332
113.0131,157.6150
113.0234,157.5995
113.0389,157.5892
113.0571,157.5856
113.3429,157.5856
113.3611,157.5892
113.3766,157.5995
113.3869,157.6150
113.3905,157.6332
Z" /> 
<path style="fill:#000000; fill-opacity:1.0000; stroke:none;fill-rule:evenodd;"
d="M 114.1905,159.3668
114.1869,159.3850
114.1766,159.4005
114.1611,159.4108
114.1429,159.4144
113.8571,159.4144
113.8389,159.4108
113.8234,159.4005
113.8131,159.3850
113.8095,159.3668
113.8095,157.6332
113.8131,157.6150
113.8234,157.5995
113.8389,157.5892
113.8571,157.5856
114.1429,157.5856
114.1611,157.5892
114.1766,157.5995
114.1869,157.6150
114.1905,157.6332
Z" /> 
<path style="fill:#000000; fill-opacity:1.0000; stroke:none;fill-rule:evenodd;"
d="M 114.9905,159.3668
114.9869,159.3850
114.9766,159.4005
114.9611,159.4108
114.9429,159.4144
114.6571,159.4144
114.6389,159.4108
114.6234,159.4005
114.6131,159.3850
114.6095,159.3668
114.6095,157.6332
114.6131,157.6150
114.6234,157.5995
114.6389,157.5892
114.6571,157.5856
114.9429,157.5856
114.9611,157.5892
114.9766,157.5995
114.9869,157.6150
114.9905,157.6332
Z" /> 
<path style="fill:#000000; fill-opacity:1.0000; stroke:none;fill-rule:evenodd;"
d="M 115.7905,159.3668
115.7869,159.3850
115.7766,159.4005
115.7611,159.4108
115.7429,159.4144
115.4571,159.4144
115.4389,159.4108
115.4234,159.4005
115.4131,159.3850
115.4095,159.3668
115.4095,157.6332
115.4131,157.6150
115.4234,157.5995
115.4389,157.5892
115.4571,157.5856
115.7429,157.5856
115.7611,157.5892
115.7766,157.5995
115.7869,157.6150
115.7905,157.6332
Z" /> 
<path style="fill:#000000; fill-opacity:1.0000; stroke:none;fill-rule:evenodd;"
d="M 116.5905,159.3668
116.5869,159.3850
116.5766,159.4005
116.5611,159.4108
116.5429,159.4144
116.2571,159.4144
116.2389,159.4108
116.2234,159.4005
116.2131,159.3850
116.2095,159.3668
116.2095,157.6332
116.2131,157.6150
116.2234,157.5995
116.2389,157.5892
116.2571,157.5856
116.5429,157.5856
116.5611,157.5892
116.5766,157.5995
116.5869,157.6150
116.5905,157.6332
Z" /> 
</g> 
</svg>
